<?xml version="1.0" encoding="iso-8859-1"?>
<!-- Generator: Adobe Illustrator 16.0.4, SVG Export Plug-In . SVG Version: 6.00 Build 0)  -->
<!DOCTYPE svg PUBLIC "-//W3C//DTD SVG 1.1//EN" "http://www.w3.org/Graphics/SVG/1.1/DTD/svg11.dtd">
<svg version="1.1" xmlns="http://www.w3.org/2000/svg" xmlns:xlink="http://www.w3.org/1999/xlink" x="0px" y="0px" width="24px"
	 height="24px" viewBox="0 0 24 24" style="enable-background:new 0 0 24 24;" xml:space="preserve">
<g id="arrow">
</g>
<g id="cross">
</g>
<g id="menu">
</g>
<g id="ellipsis">
</g>
<g id="checkmark">
</g>
<g id="plus">
</g>
<g id="plus_x2013_small">
</g>
<g id="minus">
</g>
<g id="minus-small">
</g>
<g id="label">
</g>
<g id="Layer_11">
</g>
<g id="attachment">
	<path style="fill:#808080;" d="M14,1c-2.762,0-5,2.238-5,5v10c0,1.657,1.343,3,3,3s3-1.343,3-3V6h-2v10c0,0.553-0.447,1-1,1
		s-1-0.447-1-1V6c0-1.657,1.343-3,3-3s3,1.343,3,3v10c0,2.762-2.238,5-5,5s-5-2.238-5-5v-5H5v5c0,3.866,3.134,7,7,7s7-3.134,7-7V6
		C19,3.238,16.762,1,14,1z"/>
</g>
<g id="Layer_13">
</g>
</svg>
