<?xml version="1.0" encoding="iso-8859-1"?>
<!-- Generator: Adobe Illustrator 16.0.4, SVG Export Plug-In . SVG Version: 6.00 Build 0)  -->
<!DOCTYPE svg PUBLIC "-//W3C//DTD SVG 1.1//EN" "http://www.w3.org/Graphics/SVG/1.1/DTD/svg11.dtd">
<svg version="1.1" xmlns="http://www.w3.org/2000/svg" xmlns:xlink="http://www.w3.org/1999/xlink" x="0px" y="0px" width="24px"
	 height="24px" viewBox="0 0 24 24" style="enable-background:new 0 0 24 24;" xml:space="preserve">
<g id="arrow">
</g>
<g id="cross">
</g>
<g id="menu">
</g>
<g id="ellipsis">
</g>
<g id="checkmark">
</g>
<g id="plus">
</g>
<g id="plus_x2013_small">
</g>
<g id="minus">
</g>
<g id="minus-small">
</g>
<g id="label">
</g>
<g id="Layer_11">
	<path style="fill:#808080;" d="M18,6h-3l-1-2h-4L9,6H6C4.896,6,4,6.896,4,8v8c0,1.104,0.896,2,2,2h12c1.104,0,2-0.896,2-2V8
		C20,6.896,19.104,6,18,6z M12,16c-2.209,0-4-1.79-4-4s1.791-4,4-4c2.21,0,4,1.79,4,4S14.21,16,12,16z"/>
	<circle style="opacity:0.5;fill:#808080;" cx="12" cy="12" r="2"/>
</g>
<g id="attachment">
</g>
<g id="Layer_13">
</g>
</svg>
