<?xml version="1.0" encoding="iso-8859-1"?>
<!-- Generator: Adobe Illustrator 18.1.1, SVG Export Plug-In . SVG Version: 6.00 Build 0)  -->
<svg version="1.1" xmlns="http://www.w3.org/2000/svg" xmlns:xlink="http://www.w3.org/1999/xlink" x="0px" y="0px"
	 viewBox="0 0 24 24" style="enable-background:new 0 0 24 24;" xml:space="preserve">
<g id="list-unordered">
	<path d="M9,19h12v-2H9V19z M9,13h12v-2H9V13z M9,5v2h12V5H9z M5,4.5C4.172,4.5,3.5,5.172,3.5,6S4.172,7.5,5,7.5S6.5,6.828,6.5,6
		S5.828,4.5,5,4.5z M5,10.5c-0.828,0-1.5,0.672-1.5,1.5s0.672,1.5,1.5,1.5s1.5-0.672,1.5-1.5S5.828,10.5,5,10.5z M5,16.5
		c-0.828,0-1.5,0.672-1.5,1.5s0.672,1.5,1.5,1.5s1.5-0.672,1.5-1.5S5.828,16.5,5,16.5z"/>
</g>
<g id="Layer_1">
</g>
</svg>
