<svg xmlns="http://www.w3.org/2000/svg" viewBox="0 0 24 24"><title>gridicons-heading-h2</title><g id="Artwork"><g id="heading"><path d="M12,17H10V13H6v4H4V7H6v4h4V7h2Z"/></g><path d="M14.1,15.95l1.42-1.06q.65-.5,1.12-.94a4.94,4.94,0,0,0,.74-.84,1.35,1.35,0,0,0,.27-.74.8.8,0,0,0-.3-.69,1.34,1.34,0,0,0-.81-.22,1.5,1.5,0,0,0-.77.2,5.54,5.54,0,0,0-.66.45l-1.1-1a6.14,6.14,0,0,1,.62-.49,3.34,3.34,0,0,1,.65-.35,3.55,3.55,0,0,1,.71-.2,4.9,4.9,0,0,1,.84-.07,3.73,3.73,0,0,1,1.13.16,2.73,2.73,0,0,1,.88.46,2,2,0,0,1,.78,1.64,1.84,1.84,0,0,1-.22.84,4.61,4.61,0,0,1-.58.91,10.28,10.28,0,0,1-.72.77c-.28.29-.57.6-.66.68H20V17H14.1Z"/></g></svg>