<svg xmlns="http://www.w3.org/2000/svg" viewBox="0 0 24 24"><title>gridicons-heading-h5</title><g id="Artwork"><g id="heading"><path d="M11,17H9V13H5v4H3V7H5v4H9V7h2Z"/></g><path d="M14.09,14.19a6.39,6.39,0,0,0,1.13.69,3.07,3.07,0,0,0,1.34.29A2.54,2.54,0,0,0,18,14.77a1.29,1.29,0,0,0,.57-1.14A1.3,1.3,0,0,0,18,12.5a2.29,2.29,0,0,0-1.38-.39l-.47,0a2.23,2.23,0,0,0-.4.08l-.41.15-.48.23L13.84,12l.28-5h6.4V8.92H16.21L16,10.76a4.56,4.56,0,0,1,.68-.18,4.14,4.14,0,0,1,.71-.05,5,5,0,0,1,1.37.18,3.46,3.46,0,0,1,1.14.56,2.64,2.64,0,0,1,.78.94A3,3,0,0,1,21,13.57,3,3,0,0,1,20.66,15a3.32,3.32,0,0,1-.91,1.07,4.13,4.13,0,0,1-1.31.67A5.15,5.15,0,0,1,16.9,17a6,6,0,0,1-2.31-.39,5.43,5.43,0,0,1-1.59-1Z"/></g></svg>