<?xml version="1.0" encoding="iso-8859-1"?>
<!-- Generator: Adobe Illustrator 16.0.4, SVG Export Plug-In . SVG Version: 6.00 Build 0)  -->
<!DOCTYPE svg PUBLIC "-//W3C//DTD SVG 1.1//EN" "http://www.w3.org/Graphics/SVG/1.1/DTD/svg11.dtd">
<svg version="1.1" xmlns="http://www.w3.org/2000/svg" xmlns:xlink="http://www.w3.org/1999/xlink" x="0px" y="0px" width="24px"
	 height="24px" viewBox="0 0 24 24" style="enable-background:new 0 0 24 24;" xml:space="preserve">
<g id="Structural_Icons">
	<g id="minus">
	</g>
	<g id="minus-small">
	</g>
	<g id="plus_1_">
	</g>
	<g id="plus-small">
	</g>
	<g id="ellipsis">
	</g>
	<g id="checkmark">
	</g>
	<g id="menu">
	</g>
	<g id="cross">
	</g>
	<g id="arrow">
	</g>
</g>
<g id="Form_Icons">
	<g id="attachment">
	</g>
</g>
<g id="Status_Icons">
	<g id="bell">
	</g>
</g>
<g id="Action_Icons">
	<path style="fill:#58595B;" d="M17.988,8.013c-0.289,0-0.576,0.029-0.861,0.088c-0.682-1.951-2.164-3.082-4.129-3.082
		c-1.447,0-2.76,0.652-3.576,1.638c-0.52-0.402-1.184-0.64-1.914-0.64c-1.389,0-2.562,0.951-2.898,2.236
		c-1.809,0.596-3.092,2.306-3.092,4.254C1.518,14.984,3.533,17,6.01,17H10v-4h4v4h3.988c2.479,0,4.494-2.016,4.494-4.493
		C22.482,10.028,20.467,8.013,17.988,8.013z"/>
	<polyline style="fill:none;stroke:#58595B;stroke-width:2;stroke-miterlimit:10;" points="9,19 12,22 15,19 	"/>
	<line style="fill:none;stroke:#58595B;stroke-width:2;stroke-miterlimit:10;" x1="12" y1="14" x2="12" y2="22"/>
</g>
<g id="Navigation_Icons">
</g>
<g id="PLAYGROUND">
</g>
</svg>
