<?xml version="1.0" encoding="utf-8"?>
<!-- Generator: Adobe Illustrator 18.1.1, SVG Export Plug-In . SVG Version: 6.00 Build 0)  -->
<svg version="1.1" id="Layer_1" xmlns="http://www.w3.org/2000/svg" xmlns:xlink="http://www.w3.org/1999/xlink" x="0px" y="0px"
	 viewBox="0 0 595.3 841.9" enable-background="new 0 0 595.3 841.9" xml:space="preserve">
<g id="Adv._Guides">
</g>
<g id="Guides">
</g>
<g id="Artwork">
	<path fill="none" d="M0,123.3h595.3v595.3H0V123.3z"/>
	<g>
		<path d="M52.5,458.8c18.4,118.6,121.6,210.1,245.1,210.1c136.4,0,248-111.6,248-248s-111.6-248-248-248
			c-81.8,0-153.7,39.7-198.4,99.2l0,0v-99.2H49.6v173.6h173.6v-49.6h-79.4l0,0c34.7-44.6,91.8-74.4,153.8-74.4
			c109.1,0,198.4,89.3,198.4,198.4s-89.3,198.4-198.4,198.4c-96.2,0-176.9-69.3-194.7-160.5L52.5,458.8z"/>
		<polygon points="272.8,296.9 272.8,428.4 352.2,535 391.9,505.3 322.4,413.5 322.4,296.9 		"/>
		<path d="M391.9,505.3L391.9,505.3L391.9,505.3z"/>
	</g>
</g>
</svg>
