<?xml version="1.0" encoding="iso-8859-1"?>
<!-- Generator: Adobe Illustrator 16.0.4, SVG Export Plug-In . SVG Version: 6.00 Build 0)  -->
<!DOCTYPE svg PUBLIC "-//W3C//DTD SVG 1.1//EN" "http://www.w3.org/Graphics/SVG/1.1/DTD/svg11.dtd">
<svg version="1.1" xmlns="http://www.w3.org/2000/svg" xmlns:xlink="http://www.w3.org/1999/xlink" x="0px" y="0px" width="24px"
	 height="24px" viewBox="0 0 24 24" enable-background="new 0 0 24 24" xml:space="preserve">
<g id="Structural_Icons">
	<g id="minus">
	</g>
	<g id="minus-small">
	</g>
	<g id="plus_1_">
	</g>
	<g id="plus-small">
	</g>
	<g id="ellipsis">
	</g>
	<g id="checkmark">
	</g>
	<g id="menu">
	</g>
	<g id="cross">
	</g>
	<g id="arrow">
	</g>
</g>
<g id="Form_Icons">
	<g id="attachment">
	</g>
	<g>
		<path fill="#58595B" d="M8,6h3.423c1.561,0,2.692,0.222,3.398,0.666c0.704,0.443,1.056,1.149,1.056,2.117
			c0,0.657-0.153,1.196-0.462,1.617c-0.309,0.422-0.719,0.675-1.23,0.761v0.075c0.697,0.155,1.2,0.446,1.509,0.873
			c0.309,0.426,0.463,0.993,0.463,1.7c0,1.003-0.362,1.785-1.088,2.348C14.345,16.719,13.359,17,12.115,17H8V6z M10.333,10.356
			h1.354c0.633,0,1.09-0.099,1.374-0.294c0.282-0.195,0.425-0.519,0.425-0.97c0-0.422-0.154-0.725-0.463-0.907
			C12.714,8.002,12.226,7.91,11.56,7.91h-1.227V10.356z M10.333,12.206v2.867h1.52c0.642,0,1.115-0.122,1.423-0.369
			c0.305-0.245,0.458-0.621,0.458-1.128c0-0.912-0.652-1.37-1.956-1.37H10.333z"/>
	</g>
</g>
<g id="Status_Icons">
	<g id="bell">
	</g>
</g>
<g id="Action_Icons">
</g>
<g id="Navigation_Icons">
</g>
<g id="PLAYGROUND">
</g>
</svg>
