<?xml version="1.0" encoding="iso-8859-1"?>
<!-- Generator: Adobe Illustrator 18.1.0, SVG Export Plug-In . SVG Version: 6.00 Build 0)  -->
<svg version="1.1" xmlns="http://www.w3.org/2000/svg" xmlns:xlink="http://www.w3.org/1999/xlink" x="0px" y="0px"
	 viewBox="0 0 24 24" enable-background="new 0 0 24 24" xml:space="preserve">
<g id="Structural_Icons">
	<g id="minus">
	</g>
	<g id="minus-small">
	</g>
	<g id="plus_1_">
	</g>
	<g id="plus-small">
	</g>
	<g id="ellipsis">
	</g>
	<g id="checkmark">
	</g>
	<g id="menu">
	</g>
	<g id="cross">
	</g>
	<g id="arrow">
	</g>
</g>
<g id="Form_Icons">
	<g id="attachment">
	</g>
</g>
<g id="Status_Icons">
	<g id="bell">
	</g>
</g>
<g id="Action_Icons">
	<path fill="#58595B" d="M18,6h-3l-1-2h-4L9,6H6C4.895,6,4,6.896,4,8v8c0,1.104,0.895,2,2,2h12c1.104,0,2-0.896,2-2V8
		C20,6.896,19.104,6,18,6z M12,16c-2.209,0-4-1.79-4-4c0-2.21,1.791-4,4-4c2.21,0,4,1.79,4,4C16,14.21,14.21,16,12,16z"/>
	<circle fill="#58595B" cx="12" cy="12" r="2"/>
</g>
<g id="Navigation_Icons">
</g>
<g id="PLAYGROUND">
</g>
</svg>
