<?xml version="1.0" encoding="iso-8859-1"?>
<!-- Generator: Adobe Illustrator 19.1.0, SVG Export Plug-In . SVG Version: 6.00 Build 0)  -->
<svg version="1.1" xmlns="http://www.w3.org/2000/svg" xmlns:xlink="http://www.w3.org/1999/xlink" x="0px" y="0px"
	 viewBox="0 0 24 24" style="enable-background:new 0 0 24 24;" xml:space="preserve">
<g id="block">
	<rect x="0" style="fill:none;" width="24" height="24"/>
	<path d="M12,2C6.477,2,2,6.477,2,12c0,5.523,4.477,10,10,10c5.523,0,10-4.477,10-10C22,6.477,17.523,2,12,2z M4,12
		c0-4.418,3.582-8,8-8c1.848,0,3.545,0.633,4.9,1.686L5.686,16.9C4.633,15.545,4,13.848,4,12z M12,20
		c-1.848,0-3.546-0.633-4.9-1.686L18.314,7.1C19.367,8.455,20,10.152,20,12C20,16.418,16.418,20,12,20z"/>
</g>
<g id="Layer_1">
</g>
</svg>
