<?xml version="1.0" encoding="iso-8859-1"?>
<!-- Generator: Adobe Illustrator 18.1.1, SVG Export Plug-In . SVG Version: 6.00 Build 0)  -->
<svg version="1.1" xmlns="http://www.w3.org/2000/svg" xmlns:xlink="http://www.w3.org/1999/xlink" x="0px" y="0px"
	 viewBox="0 0 24 24" style="enable-background:new 0 0 24 24;" xml:space="preserve">
<g id="camera">
	<g>
		<circle cx="14" cy="12" r="3"/>
		<path d="M20,5h-2l-1-2h-6l-1,2H8V4H4v1C2.895,5,2,5.895,2,7v11c0,1.105,0.895,2,2,2h16c1.105,0,2-0.895,2-2V7
			C22,5.895,21.105,5,20,5z M6,10c-0.552,0-1-0.448-1-1c0-0.552,0.448-1,1-1s1,0.448,1,1C7,9.552,6.552,10,6,10z M14,17
			c-2.761,0-5-2.239-5-5s2.239-5,5-5s5,2.239,5,5S16.761,17,14,17z"/>
	</g>
</g>
<g id="Layer_1">
</g>
</svg>
