<svg xmlns="http://www.w3.org/2000/svg" viewBox="0 0 24 24"><title>gridicons-heading-h5</title><g id="Artwork"><g id="heading"><path d="M12,17H10V13H6v4H4V7H6v4h4V7h2Z"/></g><path d="M14.92,14.85a4,4,0,0,0,.8.47,2.17,2.17,0,0,0,.88.18,1.82,1.82,0,0,0,1-.22.81.81,0,0,0,0-1.34,1.59,1.59,0,0,0-.86-.22l-.31,0-.27,0-.27.1-.34.16-.9-.52L14.8,10h4.86v1.56H16.6l-.1,1a3.12,3.12,0,0,1,.43-.09l.42,0a3.82,3.82,0,0,1,1,.13,2.61,2.61,0,0,1,.84.39,1.89,1.89,0,0,1,.8,1.6,2.07,2.07,0,0,1-.26,1,2.36,2.36,0,0,1-.68.76,3.17,3.17,0,0,1-1,.47,4.15,4.15,0,0,1-1.17.16,4.71,4.71,0,0,1-1.71-.28A4.22,4.22,0,0,1,14,16Z"/></g></svg>