<?xml version="1.0" encoding="utf-8"?>
<!-- Generator: Adobe Illustrator 19.0.0, SVG Export Plug-In . SVG Version: 6.00 Build 0)  -->
<svg version="1.1" xmlns="http://www.w3.org/2000/svg" xmlns:xlink="http://www.w3.org/1999/xlink" x="0px" y="0px"
	 viewBox="0 0 24 24" enable-background="new 0 0 24 24" xml:space="preserve">
<g id="Adv._Guides">
</g>
<g id="Guides">
</g>
<g id="Artwork">
	<g>
		<polygon points="21.4,10.6 12.7,19.3 9.9,16.5 8.5,17.9 12.7,22.1 22.8,12 		"/>
		<path d="M9.8,13.8l0.2-0.2l1.6,1.6l0,0l1.4,1.4l6-6V2H1v14c0,1.1,0.9,2,2,2h2.6L9.8,13.8L9.8,13.8z M3,4h14v2H3V4z M3,8h7v1H3V8z
			 M3,10h7v1H3V10z M7,13H3v-1h4V13z"/>
	</g>
</g>
</svg>
