<?xml version="1.0" encoding="iso-8859-1"?>
<!-- Generator: Adobe Illustrator 18.1.1, SVG Export Plug-In . SVG Version: 6.00 Build 0)  -->
<svg version="1.1" xmlns="http://www.w3.org/2000/svg" xmlns:xlink="http://www.w3.org/1999/xlink" x="0px" y="0px"
	 viewBox="0 0 24 24" style="enable-background:new 0 0 24 24;" xml:space="preserve">
<g id="pencil">
	<path d="M13,6l5,5l-9.507,9.507c-0.686-0.686-0.689-1.794-0.012-2.485l-0.003-0.003c-0.691,0.677-1.799,0.674-2.485-0.012
		c-0.677-0.677-0.686-1.762-0.036-2.455l-0.008-0.008c-0.693,0.649-1.779,0.64-2.455-0.036L13,6z M20.586,5.586l-2.172-2.172
		c-0.781-0.781-2.047-0.781-2.828,0L14,5l5,5l1.586-1.586C21.367,7.633,21.367,6.367,20.586,5.586z M3,18v3h3
		C6,19.343,4.657,18,3,18z"/>
</g>
<g id="Layer_1">
</g>
</svg>
