<svg xmlns="http://www.w3.org/2000/svg" viewBox="0 0 24 24"><title>gridicons-heading-h6</title><g id="Artwork"><g id="heading"><path d="M12,17H10V13H6v4H4V7H6v4h4V7h2Z"/></g><g id="Layer_4" data-name="Layer 4"><path d="M18.81,11.94a2.17,2.17,0,0,0-.57-.32,1.87,1.87,0,0,0-.71-.14,1.82,1.82,0,0,0-.59.1,1.36,1.36,0,0,0-.5.31,1.54,1.54,0,0,0-.36.57,3,3,0,0,0-.18.87,2.68,2.68,0,0,1,.87-.52,2.54,2.54,0,0,1,.86-.18,3.39,3.39,0,0,1,.92.12,2.12,2.12,0,0,1,.76.38,1.82,1.82,0,0,1,.51.65,2.16,2.16,0,0,1,.19.94,2,2,0,0,1-.23,1,2.26,2.26,0,0,1-.62.72,2.76,2.76,0,0,1-.9.45,3.75,3.75,0,0,1-1.08.15A3.6,3.6,0,0,1,16,16.81a2.86,2.86,0,0,1-1-.59,2.94,2.94,0,0,1-.73-1A3.91,3.91,0,0,1,14,13.62a4.11,4.11,0,0,1,.28-1.6A3.29,3.29,0,0,1,15,10.89a3.08,3.08,0,0,1,1.07-.67A3.52,3.52,0,0,1,17.34,10a4.12,4.12,0,0,1,1.52.26,3.69,3.69,0,0,1,1,.6Zm-1.69,3.7a1.4,1.4,0,0,0,.36,0,.9.9,0,0,0,.32-.15.75.75,0,0,0,.22-.29,1,1,0,0,0,.08-.45.7.7,0,0,0-.27-.63,1.19,1.19,0,0,0-.67-.18,1.49,1.49,0,0,0-.6.13,2,2,0,0,0-.61.44,1.93,1.93,0,0,0,.21.59,1.25,1.25,0,0,0,.3.36,1,1,0,0,0,.33.17A1.2,1.2,0,0,0,17.12,15.64Z"/></g></g></svg>