<?xml version="1.0" encoding="iso-8859-1"?>
<!-- Generator: Adobe Illustrator 18.1.0, SVG Export Plug-In . SVG Version: 6.00 Build 0)  -->
<svg version="1.1" xmlns="http://www.w3.org/2000/svg" xmlns:xlink="http://www.w3.org/1999/xlink" x="0px" y="0px"
	 viewBox="0 0 24 24" enable-background="new 0 0 24 24" xml:space="preserve">
<g id="Structural_Icons">
	<g id="minus">
	</g>
	<g id="minus-small">
	</g>
	<g id="plus_1_">
	</g>
	<g id="plus-small">
	</g>
	<g id="ellipsis">
	</g>
	<g id="checkmark">
	</g>
	<g id="menu">
	</g>
	<g id="cross">
	</g>
	<g id="arrow">
	</g>
</g>
<g id="Form_Icons">
	<g id="attachment">
	</g>
</g>
<g id="Status_Icons">
	<g id="bell">
	</g>
	<path fill="#58595B" d="M12,2C6.477,2,2,6.477,2,12c0,5.523,4.477,10,10,10s10-4.477,10-10C22,6.477,17.523,2,12,2z M13,18h-2v-2h2
		V18z M15.671,10.433c-0.267,0.427-0.775,0.908-1.523,1.443c-0.513,0.379-0.837,0.668-0.974,0.866
		c-0.136,0.198-0.205,0.457-0.205,0.778V14h-2.124v-0.594c0-0.513,0.109-0.959,0.328-1.338c0.22-0.379,0.62-0.783,1.203-1.21
		c0.56-0.402,0.931-0.727,1.11-0.979c0.179-0.251,0.269-0.531,0.269-0.841c0-0.347-0.128-0.612-0.385-0.794
		c-0.256-0.181-0.615-0.272-1.075-0.272c-0.802,0-1.714,0.261-2.74,0.785L8.682,7.002C9.873,6.335,11.137,6,12.473,6
		c1.1,0,1.975,0.265,2.624,0.794c0.65,0.529,0.974,1.234,0.974,2.116C16.071,9.497,15.938,10.006,15.671,10.433z"/>
</g>
<g id="Action_Icons">
</g>
<g id="Navigation_Icons">
</g>
<g id="PLAYGROUND">
</g>
</svg>
