<?xml version="1.0" encoding="iso-8859-1"?>
<!-- Generator: Adobe Illustrator 19.1.0, SVG Export Plug-In . SVG Version: 6.00 Build 0)  -->
<svg version="1.1" xmlns="http://www.w3.org/2000/svg" xmlns:xlink="http://www.w3.org/1999/xlink" x="0px" y="0px"
	 viewBox="0 0 24 24" style="enable-background:new 0 0 24 24;" xml:space="preserve">
<g id="cart">
	<path d="M9,20c0,1.1-0.9,2-2,2s-1.99-0.9-1.99-2S5.9,18,7,18S9,18.9,9,20z M17,18c-1.1,0-1.99,0.9-1.99,2s0.89,2,1.99,2s2-0.9,2-2
		S18.1,18,17,18z M17.396,13c0.937,0,1.749-0.651,1.952-1.566L21,5H7V4c0-1.105-0.895-2-2-2H3v2h2v1v8v2c0,1.105,0.895,2,2,2h12
		c0-1.105-0.895-2-2-2H7v-2H17.396z"/>
</g>
<g id="Layer_1">
</g>
</svg>
