<?xml version="1.0" encoding="utf-8"?>
<!-- Generator: Adobe Illustrator 19.1.0, SVG Export Plug-In . SVG Version: 6.00 Build 0)  -->
<svg version="1.1" xmlns="http://www.w3.org/2000/svg" xmlns:xlink="http://www.w3.org/1999/xlink" x="0px" y="0px"
	 viewBox="0 0 24 24" enable-background="new 0 0 24 24" xml:space="preserve">
<g id="Adv._Guides">
</g>
<g id="Guides">
</g>
<g id="Artwork">
	<g id="Layer_1_1_">
	</g>
	<path d="M12,2C6.5,2,2,6.5,2,12s4.5,10,10,10s10-4.5,10-10S17.5,2,12,2z M18,15h-2v-4.5C16,9.1,14.9,8,13.5,8S11,9.1,11,10.5V13
		l0,0v2.2l2.5-2.5l1.4,1.4L10,19l-4.9-4.9l1.4-1.4L9,15.2L9,15h0v-4.5C9,8,11,6,13.5,6S18,8,18,10.5V15z"/>
</g>
</svg>
