<?xml version="1.0" encoding="iso-8859-1"?>
<!-- Generator: Adobe Illustrator 18.1.0, SVG Export Plug-In . SVG Version: 6.00 Build 0)  -->
<svg version="1.1" xmlns="http://www.w3.org/2000/svg" xmlns:xlink="http://www.w3.org/1999/xlink" x="0px" y="0px"
	 viewBox="0 0 24 24" enable-background="new 0 0 24 24" xml:space="preserve">
<g id="Structural_Icons">
	<g id="minus">
	</g>
	<g id="minus-small">
	</g>
	<g id="plus_1_">
	</g>
	<g id="plus-small">
	</g>
	<g id="ellipsis">
	</g>
	<g id="checkmark">
	</g>
	<g id="menu">
	</g>
	<g id="cross">
	</g>
	<g id="arrow">
	</g>
</g>
<g id="Form_Icons">
	<g id="attachment">
		<path fill="#58595B" d="M5.294,14.464C4.513,13.922,4,13.022,4,12c0-1.657,1.343-3,3-3h2c0.553,0,1-0.447,1-1c0-0.553-0.447-1-1-1
			H7c-2.761,0-5,2.239-5,5c0,1.574,0.742,2.961,1.879,3.878L5.294,14.464z M18.24,7.174l2.245-2.245l-1.414-1.414L3.515,19.071
			l1.414,1.414L8.414,17H9c0.553,0,1-0.447,1-1c0-0.169-0.052-0.32-0.126-0.46l2.54-2.54H17c0.553,0,1-0.447,1-1s-0.447-1-1-1
			h-2.586l2-2H17c1.657,0,3,1.343,3,3s-1.343,3-3,3h-2c-0.553,0-1,0.447-1,1s0.447,1,1,1h2c2.761,0,5-2.239,5-5
			C22,9.669,20.398,7.728,18.24,7.174z M6,12c0,0.481,0.346,0.863,0.798,0.959L8.757,11H7C6.447,11,6,11.447,6,12z"/>
	</g>
</g>
<g id="Status_Icons">
	<g id="bell">
	</g>
</g>
<g id="Action_Icons">
</g>
<g id="Navigation_Icons">
</g>
<g id="PLAYGROUND">
</g>
</svg>
