<?xml version="1.0" encoding="utf-8"?>
<!-- Generator: Adobe Illustrator 19.1.0, SVG Export Plug-In . SVG Version: 6.00 Build 0)  -->
<svg version="1.1" xmlns="http://www.w3.org/2000/svg" xmlns:xlink="http://www.w3.org/1999/xlink" x="0px" y="0px"
	 viewBox="0 0 24 24" enable-background="new 0 0 24 24" xml:space="preserve">
<g id="Adv._Guides">
</g>
<g id="Guides">
</g>
<g id="Artwork">
	<g id="Layer_1_1_">
	</g>
	<g id="Layer_1_2_">
	</g>
	<g>
		<path d="M20,2H4L2,6v16h20V6L20,2z M5.2,4h13.5l0.5,1H4.7L5.2,4z M20,20H4V7h16V20z"/>
		<path d="M17.4,18c0.7-0.5,1.2-1.4,1.2-2.4c0-1.7-1.3-3-3-3c0,0,0,0,0,0c-0.2-2-1.8-3.6-3.9-3.6c-2.2,0-3.9,1.7-3.9,3.9
			c0,0.3,0,0.6,0.1,0.9c0,0-0.1,0-0.1,0c-1.3,0-2.4,1.1-2.4,2.4c0,0.7,0.3,1.4,0.8,1.8H17.4z"/>
	</g>
</g>
</svg>
