<?xml version="1.0" encoding="iso-8859-1"?>
<!-- Generator: Adobe Illustrator 18.1.1, SVG Export Plug-In . SVG Version: 6.00 Build 0)  -->
<svg version="1.1" xmlns="http://www.w3.org/2000/svg" xmlns:xlink="http://www.w3.org/1999/xlink" x="0px" y="0px"
	 viewBox="0 0 24 24" style="enable-background:new 0 0 24 24;" xml:space="preserve">
<g id="help-outline">
	<path d="M12,4c4.411,0,8,3.589,8,8s-3.589,8-8,8s-8-3.589-8-8S7.589,4,12,4 M12,2C6.477,2,2,6.477,2,12s4.477,10,10,10
		s10-4.477,10-10S17.523,2,12,2L12,2z M13,15h-2v2h2V15z M11.038,13v-0.528c0-0.401,0.082-0.74,0.246-1.017
		c0.163-0.276,0.454-0.546,0.871-0.808c0.332-0.209,0.571-0.397,0.716-0.565c0.145-0.168,0.218-0.36,0.218-0.577
		c0-0.172-0.077-0.308-0.233-0.409c-0.156-0.1-0.358-0.15-0.608-0.15c-0.619,0-1.341,0.219-2.168,0.657L9.226,7.933
		c1.02-0.581,2.084-0.872,3.194-0.872c0.913,0,1.63,0.201,2.15,0.602c0.52,0.401,0.78,0.948,0.78,1.64
		c0,0.495-0.116,0.924-0.347,1.287c-0.231,0.362-0.601,0.705-1.109,1.029c-0.43,0.279-0.7,0.482-0.808,0.611
		c-0.108,0.129-0.163,0.282-0.163,0.458V13H11.038z"/>
</g>
<g id="Layer_1">
</g>
</svg>
