<?xml version="1.0" encoding="iso-8859-1"?>
<!-- Generator: Adobe Illustrator 18.1.1, SVG Export Plug-In . SVG Version: 6.00 Build 0)  -->
<svg version="1.1" xmlns="http://www.w3.org/2000/svg" xmlns:xlink="http://www.w3.org/1999/xlink" x="0px" y="0px"
	 viewBox="0 0 24 24" style="enable-background:new 0 0 24 24;" xml:space="preserve">
<g id="pencil">
	<g>
		<g>
			<path d="M5.993,13.007L5.993,13.007l-2.5,2.5c0.676,0.676,1.762,0.686,2.455,0.036l0.008,0.008
				c-0.649,0.693-0.64,1.779,0.036,2.455c0.686,0.686,1.794,0.689,2.485,0.012l0.003,0.003c-0.676,0.691-0.674,1.799,0.012,2.485
				l1.25-1.25v0L18,11l-5-5L5.993,13.007z"/>
			<path d="M20.586,5.586l-2.172-2.172c-0.781-0.781-2.047-0.781-2.828,0L14,5l5,5l1.586-1.586
				C21.367,7.633,21.367,6.367,20.586,5.586z"/>
		</g>
		<path d="M3,18c1.657,0,3,1.343,3,3H3V18z"/>
	</g>
</g>
<g id="Layer_1">
</g>
</svg>
