<?xml version="1.0" encoding="iso-8859-1"?>
<!-- Generator: Adobe Illustrator 18.1.0, SVG Export Plug-In . SVG Version: 6.00 Build 0)  -->
<svg version="1.1" xmlns="http://www.w3.org/2000/svg" xmlns:xlink="http://www.w3.org/1999/xlink" x="0px" y="0px"
	 viewBox="0 0 24 24" enable-background="new 0 0 24 24" xml:space="preserve">
<g id="Structural_Icons">
	<g id="minus">
	</g>
	<g id="minus-small">
	</g>
	<g id="plus_1_">
	</g>
	<g id="plus-small">
	</g>
	<g id="ellipsis">
	</g>
	<g id="checkmark">
	</g>
	<g id="menu">
	</g>
	<g id="cross">
	</g>
	<g id="arrow">
	</g>
</g>
<g id="Form_Icons">
	<g id="attachment">
	</g>
	<path fill="#58595B" d="M9,19h10v-2H9V19z M9,13h10v-2H9V13z M9,5v2h10V5H9z M5.575,5.252c0.107-0.096,0.197-0.188,0.27-0.275
		c-0.012,0.229-0.018,0.48-0.018,0.756V8h1.175V3.717H5.959L4.488,4.915l0.601,0.738L5.575,5.252z M5.909,13.016
		c0.475-0.426,0.785-0.715,0.93-0.867s0.262-0.297,0.35-0.435s0.153-0.278,0.195-0.42s0.063-0.298,0.063-0.466
		c0-0.225-0.06-0.427-0.18-0.608S6.978,9.899,6.76,9.802S6.295,9.655,6.018,9.655c-0.221,0-0.419,0.022-0.596,0.067
		s-0.34,0.11-0.491,0.195s-0.336,0.226-0.557,0.423l0.636,0.744c0.174-0.15,0.33-0.264,0.467-0.341s0.274-0.116,0.409-0.116
		c0.131,0,0.232,0.032,0.305,0.097s0.108,0.152,0.108,0.264c0,0.09-0.018,0.176-0.054,0.258s-0.1,0.18-0.192,0.294
		s-0.287,0.328-0.586,0.64l-1.046,1.058V14h3.108v-0.955h-1.62V13.016z M6.439,17.762v-0.018c0.307-0.086,0.541-0.225,0.703-0.414
		c0.162-0.191,0.243-0.419,0.243-0.685c0-0.309-0.126-0.551-0.378-0.727s-0.6-0.264-1.043-0.264c-0.307,0-0.579,0.033-0.816,0.1
		s-0.469,0.178-0.696,0.334l0.48,0.773c0.293-0.184,0.576-0.275,0.85-0.275c0.146,0,0.263,0.027,0.35,0.082s0.13,0.139,0.13,0.252
		c0,0.301-0.294,0.451-0.882,0.451h-0.27v0.87h0.264c0.217,0,0.393,0.016,0.527,0.049c0.135,0.031,0.232,0.08,0.293,0.143
		c0.061,0.064,0.091,0.154,0.091,0.271c0,0.152-0.058,0.264-0.174,0.336c-0.116,0.07-0.301,0.106-0.555,0.106
		c-0.164,0-0.343-0.022-0.538-0.069c-0.194-0.045-0.385-0.116-0.573-0.212v0.961c0.229,0.088,0.441,0.148,0.637,0.182
		s0.41,0.05,0.64,0.05c0.561,0,0.999-0.114,1.314-0.343s0.473-0.542,0.473-0.94C7.512,18.189,7.154,17.852,6.439,17.762z"/>
</g>
<g id="Status_Icons">
	<g id="bell">
	</g>
</g>
<g id="Action_Icons">
</g>
<g id="Navigation_Icons">
</g>
<g id="PLAYGROUND">
</g>
</svg>
