<?xml version="1.0" encoding="iso-8859-1"?>
<!-- Generator: Adobe Illustrator 16.0.4, SVG Export Plug-In . SVG Version: 6.00 Build 0)  -->
<!DOCTYPE svg PUBLIC "-//W3C//DTD SVG 1.1//EN" "http://www.w3.org/Graphics/SVG/1.1/DTD/svg11.dtd">
<svg version="1.1" xmlns="http://www.w3.org/2000/svg" xmlns:xlink="http://www.w3.org/1999/xlink" x="0px" y="0px" width="24px"
	 height="24px" viewBox="0 0 24 24" enable-background="new 0 0 24 24" xml:space="preserve">
<g id="Structural_Icons">
	<g id="minus">
	</g>
	<g id="minus-small">
	</g>
	<g id="plus_1_">
	</g>
	<g id="plus-small">
	</g>
	<g id="ellipsis">
	</g>
	<g id="checkmark">
	</g>
	<g id="menu">
	</g>
	<g id="cross">
	</g>
	<g id="arrow">
	</g>
</g>
<g id="Form_Icons">
	<g id="attachment">
	</g>
	<g>
		<path fill="#58595B" d="M18,5v3.561c-0.047-0.046-0.099-0.098-0.145-0.143c-0.998-0.982-1.874-1.846-3.136-3.152
			c-1.826-1.891-3.991-2.637-6.101-2.099C6.615,3.679,5.016,5.293,4.443,7.379c-0.606,2.214,0.067,4.506,1.85,6.288l5,5l1.414-1.414
			l-5-5C5.982,10.528,6.131,8.79,6.372,7.907c0.377-1.373,1.453-2.474,2.742-2.803c1.383-0.353,2.86,0.197,4.166,1.55
			c1.276,1.322,2.162,2.194,3.172,3.188c0.051,0.05,0.107,0.106,0.159,0.157H13v2h7V5H18z"/>
		
			<rect x="13.355" y="19" transform="matrix(-0.7071 -0.7071 0.7071 -0.7071 9.8641 44.0858)" fill="#58595B" width="1.414" height="2"/>
	</g>
</g>
<g id="Status_Icons">
	<g id="bell">
	</g>
</g>
<g id="Action_Icons">
</g>
<g id="Navigation_Icons">
</g>
<g id="PLAYGROUND">
</g>
</svg>
