<?xml version="1.0" encoding="utf-8"?>
<!-- Generator: Adobe Illustrator 19.2.1, SVG Export Plug-In . SVG Version: 6.00 Build 0)  -->
<svg version="1.1" id="Layer_1" xmlns="http://www.w3.org/2000/svg" xmlns:xlink="http://www.w3.org/1999/xlink" x="0px" y="0px"
	 viewBox="0 0 24 24" enable-background="new 0 0 24 24" xml:space="preserve">
<g id="Adv._Guides">
</g>
<g id="Guides">
</g>
<g id="Artwork">
	<g>
		<g>
			<polygon points="21.6,12.1 15.5,18.2 13.4,16 12,17.4 15.5,21 23,13.5 			"/>
		</g>
	</g>
	<path d="M2,2v14c0,1.1,0.9,2,2,2h4.6l4.8-4.8l2.1,2.2l4.5-4.5V2H2z M8,13L8,13L8,13L8,13L8,13H4l0,0v-1l0,0l0,0l0,0l0,0h4V13z
		 M11,11L11,11L11,11L11,11H4l0,0v-1l0,0l0,0l0,0h7V11z M11,9L11,9L11,9L11,9L11,9H4l0,0V8l0,0l0,0l0,0l0,0h7V9z M18,6L18,6L18,6
		L18,6H4l0,0V4l0,0l0,0l0,0l0,0h14V6z"/>
</g>
</svg>
