<?xml version="1.0" encoding="iso-8859-1"?>
<!-- Generator: Adobe Illustrator 18.1.1, SVG Export Plug-In . SVG Version: 6.00 Build 0)  -->
<svg version="1.1" xmlns="http://www.w3.org/2000/svg" xmlns:xlink="http://www.w3.org/1999/xlink" x="0px" y="0px"
	 viewBox="0 0 24 24" style="enable-background:new 0 0 24 24;" xml:space="preserve">
<g id="heart-outline">
	<g>
		<path d="M16.5,4.5c2.206,0,4,1.794,4,4c0,4.669-5.543,8.941-8.5,11.023C9.043,17.441,3.5,13.169,3.5,8.5c0-2.206,1.794-4,4-4
			c1.298,0,2.522,0.638,3.273,1.706L12,7.953l1.227-1.746C13.978,5.138,15.202,4.5,16.5,4.5 M16.5,3c-1.862,0-3.505,0.928-4.5,2.344
			C11.005,3.928,9.362,3,7.5,3C4.462,3,2,5.462,2,8.5c0,5.719,6.5,10.438,10,12.85c3.5-2.412,10-7.131,10-12.85
			C22,5.462,19.538,3,16.5,3L16.5,3z"/>
	</g>
</g>
<g id="Layer_1">
</g>
</svg>
