<?xml version="1.0" encoding="iso-8859-1"?>
<!-- Generator: Adobe Illustrator 19.1.0, SVG Export Plug-In . SVG Version: 6.00 Build 0)  -->
<svg version="1.1" xmlns="http://www.w3.org/2000/svg" xmlns:xlink="http://www.w3.org/1999/xlink" x="0px" y="0px"
	 viewBox="0 0 24 24" style="enable-background:new 0 0 24 24;" xml:space="preserve">
<g id="quote">
	<path d="M11.192,15.757c0-0.88-0.23-1.618-0.69-2.217c-0.326-0.412-0.768-0.683-1.327-0.812c-0.55-0.128-1.07-0.137-1.54-0.028
		c-0.16-0.95,0.1-1.956,0.76-3.022c0.66-1.065,1.515-1.867,2.558-2.403L9.372,5c-0.8,0.396-1.56,0.898-2.26,1.505
		c-0.71,0.607-1.34,1.305-1.9,2.094s-0.98,1.68-1.25,2.69s-0.345,2.04-0.216,3.1c0.168,1.4,0.62,2.52,1.356,3.35
		C5.837,18.58,6.754,19,7.85,19c0.965,0,1.766-0.29,2.4-0.878c0.628-0.576,0.94-1.365,0.94-2.368L11.192,15.757z M20.316,15.757
		c0-0.88-0.23-1.618-0.69-2.217c-0.326-0.42-0.77-0.692-1.327-0.817c-0.56-0.124-1.073-0.13-1.54-0.022
		c-0.16-0.94,0.09-1.95,0.752-3.02c0.66-1.06,1.513-1.86,2.556-2.4L18.49,5c-0.8,0.396-1.555,0.898-2.26,1.505
		c-0.708,0.607-1.34,1.305-1.894,2.094c-0.556,0.79-0.97,1.68-1.24,2.69c-0.273,1.002-0.345,2.04-0.217,3.1
		c0.166,1.4,0.616,2.52,1.35,3.35c0.733,0.834,1.647,1.252,2.743,1.252c0.967,0,1.768-0.29,2.402-0.877
		c0.627-0.576,0.942-1.365,0.942-2.368L20.316,15.757z"/>
</g>
<g id="Layer_1">
</g>
</svg>
