<?xml version="1.0" encoding="iso-8859-1"?>
<!-- Generator: Adobe Illustrator 19.1.0, SVG Export Plug-In . SVG Version: 6.00 Build 0)  -->
<svg version="1.1" xmlns="http://www.w3.org/2000/svg" xmlns:xlink="http://www.w3.org/1999/xlink" x="0px" y="0px"
	 viewBox="0 0 24 24" style="enable-background:new 0 0 24 24;" xml:space="preserve">
<g id="lock">
	<path d="M18,8h-1V7c0-2.757-2.243-5-5-5S7,4.243,7,7v1H6c-1.105,0-2,0.895-2,2v10c0,1.105,0.895,2,2,2h12c1.105,0,2-0.895,2-2V10
		C20,8.895,19.105,8,18,8z M9,7c0-1.654,1.346-3,3-3s3,1.346,3,3v1H9V7z M13,15.723V18h-2v-2.277c-0.595-0.346-1-0.984-1-1.723
		c0-1.105,0.895-2,2-2s2,0.895,2,2C14,14.738,13.595,15.376,13,15.723z"/>
</g>
<g id="Layer_1">
</g>
</svg>
