<?xml version="1.0" encoding="iso-8859-1"?>
<!-- Generator: Adobe Illustrator 18.1.1, SVG Export Plug-In . SVG Version: 6.00 Build 0)  -->
<svg version="1.1" xmlns="http://www.w3.org/2000/svg" xmlns:xlink="http://www.w3.org/1999/xlink" x="0px" y="0px"
	 viewBox="0 0 24 24" style="enable-background:new 0 0 24 24;" xml:space="preserve">
<g id="not-visible">
	<path d="M1,12c0,0,4.188-6,11-6c0.947,0,1.839,0.121,2.678,0.322L8.36,12.64C8.133,12.139,8,11.586,8,11
		c0-0.937,0.335-1.787,0.875-2.469C6.483,9.343,4.66,10.916,3.621,12c0.678,0.707,1.695,1.621,2.98,2.398l-1.453,1.453
		C2.497,14.13,1,12,1,12z M23,12c0,0-4.188,6-11,6c-0.946,0-1.836-0.124-2.676-0.323L5,22l-1.5-1.5l0,0l0,0l17-17L22,5l-3.147,3.147
		C21.501,9.869,23,12,23,12z M20.384,12.006c-0.678-0.708-1.694-1.627-2.983-2.407L16,11c0,2.209-1.791,4-4,4l-0.947,0.947
		C11.363,15.978,11.677,16,12,16C15.978,16,18.942,13.522,20.384,12.006z"/>
</g>
<g id="Layer_1">
</g>
</svg>
