<?xml version="1.0" encoding="iso-8859-1"?>
<!-- Generator: Adobe Illustrator 18.1.0, SVG Export Plug-In . SVG Version: 6.00 Build 0)  -->
<svg version="1.1" xmlns="http://www.w3.org/2000/svg" xmlns:xlink="http://www.w3.org/1999/xlink" x="0px" y="0px"
	 viewBox="0 0 24 24" enable-background="new 0 0 24 24" xml:space="preserve">
<g id="Structural_Icons">
	<g id="minus">
	</g>
	<g id="minus-small">
	</g>
	<g id="plus_1_">
	</g>
	<g id="plus-small">
	</g>
	<g id="ellipsis">
	</g>
	<g id="checkmark">
	</g>
	<g id="menu">
	</g>
	<g id="cross">
	</g>
	<g id="arrow">
	</g>
</g>
<g id="Form_Icons">
	<g id="attachment">
	</g>
	<g>
		<path fill="#333333" d="M19.557,8.419c-0.572-2.086-2.172-3.7-4.176-4.212c-2.108-0.54-4.274,0.207-6.101,2.099
			c-1.262,1.307-2.138,2.17-3.136,3.152C6.099,9.504,6.047,9.555,6,9.601V6H4v7h7v-2H7.429c0.039-0.038,0.081-0.08,0.119-0.117
			c1.01-0.994,1.896-1.866,3.172-3.189c1.306-1.352,2.786-1.902,4.166-1.55c1.289,0.329,2.365,1.43,2.742,2.803
			c0.241,0.883,0.39,2.621-1.335,4.346l-5,5l1.414,1.414l5-5C19.489,12.925,20.163,10.633,19.557,8.419z"/>
	</g>
</g>
<g id="Status_Icons">
	<g id="bell">
	</g>
</g>
<g id="Action_Icons">
</g>
<g id="Navigation_Icons">
</g>
<g id="PLAYGROUND">
</g>
</svg>
