<?xml version="1.0" encoding="iso-8859-1"?>
<!-- Generator: Adobe Illustrator 18.1.1, SVG Export Plug-In . SVG Version: 6.00 Build 0)  -->
<svg version="1.1" xmlns="http://www.w3.org/2000/svg" xmlns:xlink="http://www.w3.org/1999/xlink" x="0px" y="0px"
	 viewBox="0 0 24 24" style="enable-background:new 0 0 24 24;" xml:space="preserve">
<g id="camera">
	<path d="M17,12c0,1.657-1.343,3-3,3s-3-1.343-3-3s1.343-3,3-3S17,10.343,17,12z M22,7v11c0,1.105-0.895,2-2,2H4
		c-1.105,0-2-0.895-2-2V7c0-1.105,0.895-2,2-2V4h4v1h2l1-2h6l1,2h2C21.105,5,22,5.895,22,7z M7,9c0-0.552-0.448-1-1-1S5,8.448,5,9
		c0,0.552,0.448,1,1,1S7,9.552,7,9z M19,12c0-2.761-2.239-5-5-5s-5,2.239-5,5s2.239,5,5,5S19,14.761,19,12z"/>
</g>
<g id="Layer_1">
</g>
</svg>
