<?xml version="1.0" encoding="iso-8859-1"?>
<!-- Generator: Adobe Illustrator 18.1.0, SVG Export Plug-In . SVG Version: 6.00 Build 0)  -->
<svg version="1.1" xmlns="http://www.w3.org/2000/svg" xmlns:xlink="http://www.w3.org/1999/xlink" x="0px" y="0px"
	 viewBox="0 0 24 24" enable-background="new 0 0 24 24" xml:space="preserve">
<g id="Structural_Icons">
	<g id="minus">
	</g>
	<g id="minus-small">
	</g>
	<g id="plus_1_">
	</g>
	<g id="plus-small">
	</g>
	<g id="ellipsis">
	</g>
	<g id="checkmark">
	</g>
	<g id="menu">
	</g>
	<g id="cross">
	</g>
	<g id="arrow">
	</g>
</g>
<g id="Form_Icons">
	<g id="attachment">
	</g>
</g>
<g id="Status_Icons">
	<g id="bell">
	</g>
</g>
<g id="Action_Icons">
</g>
<g id="Navigation_Icons">
	<g display="none">
		<path display="inline" fill="#CCCCCC" d="M18.305,18.913h-3.37V20h3.37V18.913z"/>
		<path display="inline" fill="#CCCCCC" d="M1.261,4v13.913C1.261,19.065,2.195,20,3.348,20h14.261V4H1.261z M16.619,18.261h-0.75
			h-1.435H3.348C3.156,18.261,3,18.104,3,17.913V5.739h12.869v11.152h0.75V18.261z"/>
		<path display="inline" fill="#CCCCCC" d="M19,8.87v8.72c0,0.37-0.301,0.671-0.671,0.671H18.28c-0.37,0-0.672-0.301-0.672-0.671
			V8.87H19 M20.739,7.13h-4.87V17.59c0,1.331,1.08,2.41,2.411,2.41h0.049c1.331,0,2.41-1.079,2.41-2.41V7.13L20.739,7.13z"/>
		<path display="inline" fill="#CCCCCC" d="M14.131,9.217H4.739V7.478h9.392V9.217z"/>
		<path display="inline" fill="#CCCCCC" d="M14.131,12.696h-2.783v-1.739h2.783V12.696z"/>
		<path display="inline" fill="#CCCCCC" d="M14.131,15.826h-2.783v-1.739h2.783V15.826z"/>
		<path display="inline" fill="#CCCCCC" d="M9.608,15.826H4.739v-4.87h4.869V15.826z"/>
		<path display="inline" fill="#CCCCCC" d="M18.305,18.913h-3.37V20h3.37V18.913z"/>
	</g>
	<g display="none">
		<polyline display="inline" fill="none" stroke="#CCCCCC" stroke-width="2" stroke-miterlimit="10" points="19,4 11,12 19,20 		"/>
		<polyline display="inline" fill="none" stroke="#CCCCCC" stroke-width="2" stroke-miterlimit="10" points="3,4 11,12 3,20 		"/>
	</g>
	<path fill="#58595B" d="M18,6V4H2v14c0,1.104,0.895,2,2,2h16c1.104,0,2-0.896,2-2V6H18z M9,16H4v-6h5V16z M16,16h-5v-2h5V16z
		 M16,12h-5v-2h5V12z M16,8H4V6h12V8z M20,17c0,0.553-0.447,1-1,1c-0.553,0-1-0.447-1-1V8h2V17z"/>
</g>
<g id="PLAYGROUND">
</g>
</svg>
