<?xml version="1.0" encoding="utf-8"?>
<!-- Generator: Adobe Illustrator 19.1.0, SVG Export Plug-In . SVG Version: 6.00 Build 0)  -->
<svg version="1.1" xmlns="http://www.w3.org/2000/svg" xmlns:xlink="http://www.w3.org/1999/xlink" x="0px" y="0px"
	 viewBox="0 0 24 24" enable-background="new 0 0 24 24" xml:space="preserve">
<g id="Adv._Guides">
</g>
<g id="Guides">
</g>
<g id="Artwork">
	<g>
		<path d="M6,9c-1.7,0-3,0.4-3,1v1c0,0.6,1.3,1,3,1s3-0.4,3-1v-1C9,9.4,7.7,9,6,9z"/>
		<path d="M6,13c-1.7,0-3-0.4-3-1v1c0,0.6,1.3,1,3,1s3-0.4,3-1v-1C9,12.6,7.7,13,6,13z"/>
		<path d="M6,15c-1.7,0-3-0.4-3-1v1c0,0.6,1.3,1,3,1s3-0.4,3-1v-1C9,14.6,7.7,15,6,15z"/>
		<path d="M6,17c-1.7,0-3-0.4-3-1v1c0,0.6,1.3,1,3,1s3-0.4,3-1v-1C9,16.6,7.7,17,6,17z"/>
		<path d="M6,19c-1.7,0-3-0.4-3-1v1c0,0.6,1.3,1,3,1s3-0.4,3-1v-1C9,18.6,7.7,19,6,19z"/>
		<path d="M6,21c-1.7,0-3-0.4-3-1v1c0,0.6,1.3,1,3,1s3-0.4,3-1v-1C9,20.6,7.7,21,6,21z"/>
		<path d="M18,7c-1.7,0-3,0.4-3,1v1c0,0.6,1.3,1,3,1s3-0.4,3-1V8C21,7.4,19.7,7,18,7z"/>
		<path d="M18,11c-1.7,0-3-0.4-3-1v1c0,0.6,1.3,1,3,1s3-0.4,3-1v-1C21,10.6,19.7,11,18,11z"/>
		<path d="M18,13c-1.7,0-3-0.4-3-1v1c0,0.6,1.3,1,3,1s3-0.4,3-1v-1C21,12.6,19.7,13,18,13z"/>
		<path d="M18,15c-1.7,0-3-0.4-3-1v1c0,0.6,1.3,1,3,1s3-0.4,3-1v-1C21,14.6,19.7,15,18,15z"/>
		<path d="M18,17c-1.7,0-3-0.4-3-1v1c0,0.6,1.3,1,3,1s3-0.4,3-1v-1C21,16.6,19.7,17,18,17z"/>
		<path d="M18,19c-1.7,0-3-0.4-3-1v1c0,0.6,1.3,1,3,1s3-0.4,3-1v-1C21,18.6,19.7,19,18,19z"/>
		<path d="M18,21c-1.7,0-3-0.4-3-1v1c0,0.6,1.3,1,3,1s3-0.4,3-1v-1C21,20.6,19.7,21,18,21z"/>
		<path d="M12,5c1.7,0,3-0.4,3-1V3c0-0.6-1.3-1-3-1S9,2.4,9,3v1C9,4.6,10.3,5,12,5z"/>
		<path d="M15,5c0,0.6-1.3,1-3,1S9,5.6,9,5v1c0,0.6,1.3,1,3,1s3-0.4,3-1V5z"/>
		<path d="M9,7v1c0,0.6,1.3,1,3,1c0.8,0,1.5-0.1,2-0.3v-1C13.5,7.9,12.8,8,12,8C10.3,8,9,7.6,9,7z"/>
		<path d="M10,9.7v1c0.5,0.2,1.2,0.3,2,0.3s1.5-0.1,2-0.3v-1c-0.5,0.2-1.2,0.3-2,0.3S10.5,9.9,10,9.7z"/>
		<path d="M10,11.7v1c0.5,0.2,1.2,0.3,2,0.3s1.5-0.1,2-0.3v-1c-0.5,0.2-1.2,0.3-2,0.3S10.5,11.9,10,11.7z"/>
		<path d="M10,13.7v1c0.5,0.2,1.2,0.3,2,0.3s1.5-0.1,2-0.3v-1c-0.5,0.2-1.2,0.3-2,0.3S10.5,13.9,10,13.7z"/>
		<path d="M10,15.7v1c0.5,0.2,1.2,0.3,2,0.3s1.5-0.1,2-0.3v-1c-0.5,0.2-1.2,0.3-2,0.3S10.5,15.9,10,15.7z"/>
		<path d="M10,17.7v1c0.5,0.2,1.2,0.3,2,0.3s1.5-0.1,2-0.3v-1c-0.5,0.2-1.2,0.3-2,0.3S10.5,17.9,10,17.7z"/>
		<path d="M10,19.7v1c0.5,0.2,1.2,0.3,2,0.3s1.5-0.1,2-0.3v-1c-0.5,0.2-1.2,0.3-2,0.3S10.5,19.9,10,19.7z"/>
	</g>
</g>
</svg>
