<?xml version="1.0" encoding="iso-8859-1"?>
<!-- Generator: Adobe Illustrator 19.1.0, SVG Export Plug-In . SVG Version: 6.00 Build 0)  -->
<svg version="1.1" xmlns="http://www.w3.org/2000/svg" xmlns:xlink="http://www.w3.org/1999/xlink" x="0px" y="0px"
	 viewBox="0 0 24 24" style="enable-background:new 0 0 24 24;" xml:space="preserve">
<g id="camera">
	<rect style="fill:none;" width="24" height="24"/>
	<path d="M17,12c0,1.7-1.3,3-3,3s-3-1.3-3-3s1.3-3,3-3S17,10.3,17,12z M22,7v11c0,1.1-0.9,2-2,2H4c-1.1,0-2-0.9-2-2V7
		c0-1.1,0.9-2,2-2V4h4v1h2l1-2h6l1,2h2C21.1,5,22,5.9,22,7z M7.5,9c0-0.8-0.7-1.5-1.5-1.5S4.5,8.2,4.5,9s0.7,1.5,1.5,1.5
		S7.5,9.8,7.5,9z M19,12c0-2.8-2.2-5-5-5s-5,2.2-5,5s2.2,5,5,5S19,14.8,19,12z"/>
</g>
<g id="Layer_1">
</g>
</svg>
