<?xml version="1.0" encoding="utf-8"?>
<!-- Generator: Adobe Illustrator 19.1.0, SVG Export Plug-In . SVG Version: 6.00 Build 0)  -->
<svg version="1.1" xmlns="http://www.w3.org/2000/svg" xmlns:xlink="http://www.w3.org/1999/xlink" x="0px" y="0px"
	 viewBox="0 0 24 24" enable-background="new 0 0 24 24" xml:space="preserve">
<g id="Adv._Guides">
</g>
<g id="Guides">
</g>
<g id="Artwork">
	<g id="Layer_1_1_">
	</g>
	<g>
		<rect x="16" y="14" width="2" height="2"/>
		<path d="M17,20h3c1.1,0,2-0.9,2-2v-3C22,17.8,19.8,20,17,20z"/>
		<path d="M6,14v2h6.1C12,15.7,12,15.3,12,15s0-0.7,0.1-1H6z"/>
		<path d="M20,4H4C2.9,4,2,4.9,2,6v12c0,1.1,0.9,2,2,2h13c-1.6,0-3.1-0.8-4-2H4v-6h9c0.9-1.2,2.3-2,4-2c2.8,0,5,2.2,5,5V6
			C22,4.9,21.1,4,20,4z M20,8H4V6h16V8z"/>
		<path d="M17,11c-2.2,0-4,1.8-4,4s1.8,4,4,4s4-1.8,4-4S19.2,11,17,11z M17,18c-1.7,0-3-1.3-3-3s1.3-3,3-3s3,1.3,3,3S18.7,18,17,18z
			"/>
	</g>
</g>
</svg>
