<?xml version="1.0" encoding="iso-8859-1"?>
<!-- Generator: Adobe Illustrator 18.1.1, SVG Export Plug-In . SVG Version: 6.00 Build 0)  -->
<svg version="1.1" xmlns="http://www.w3.org/2000/svg" xmlns:xlink="http://www.w3.org/1999/xlink" x="0px" y="0px"
	 viewBox="0 0 24 24" style="enable-background:new 0 0 24 24;" xml:space="preserve">
<g id="redo">
	<path d="M18,6v3.561c0,0-2.019-1.988-3.28-3.295c-1.826-1.891-3.991-2.637-6.101-2.099C6.615,4.679,5.016,6.293,4.443,8.379
		c-0.606,2.214,0.067,4.506,1.85,6.288l5,5l1.414-1.414l-5-5C5.982,11.528,6.131,9.79,6.372,8.907
		c0.377-1.373,1.453-2.474,2.742-2.803c1.383-0.352,2.86,0.197,4.166,1.55C14.557,8.977,16.611,11,16.611,11H13v2h7V6H18z"/>
</g>
<g id="Layer_1">
</g>
</svg>
