<?xml version="1.0" encoding="utf-8"?>
<!-- Generator: Adobe Illustrator 19.1.0, SVG Export Plug-In . SVG Version: 6.00 Build 0)  -->
<svg version="1.1" xmlns="http://www.w3.org/2000/svg" xmlns:xlink="http://www.w3.org/1999/xlink" x="0px" y="0px"
	 viewBox="0 0 24 24" enable-background="new 0 0 24 24" xml:space="preserve">
<g id="Adv._Guides">
</g>
<g id="Guides">
</g>
<g id="Artwork">
	<g>
		<path d="M6,18c-1.1,0-2,0.9-2,2s0.9,2,2,2s2-0.9,2-2S7.1,18,6,18z"/>
		<path d="M17,18c-1.1,0-2,0.9-2,2s0.9,2,2,2s2-0.9,2-2S18.1,18,17,18z"/>
		<path d="M22,13l-1.7-6.4c-0.2-0.9-1-1.6-2-1.6h-2.7l-0.3-1l-0.1-0.4c-0.2-0.9-1-1.6-2-1.6H12H4C2.9,2,2,2.9,2,4v11
			c0,1.1,0.9,2,2,2h18c0-1.1-0.9-2-2-2h2V13z"/>
	</g>
</g>
</svg>
