<?xml version="1.0" encoding="iso-8859-1"?>
<!-- Generator: Adobe Illustrator 18.1.1, SVG Export Plug-In . SVG Version: 6.00 Build 0)  -->
<svg version="1.1" xmlns="http://www.w3.org/2000/svg" xmlns:xlink="http://www.w3.org/1999/xlink" x="0px" y="0px"
	 viewBox="0 0 24 24" style="enable-background:new 0 0 24 24;" xml:space="preserve">
<g id="layout">
	<path d="M8,20H5c-1.105,0-2-0.895-2-2V6c0-1.105,0.895-2,2-2h3c1.105,0,2,0.895,2,2v12C10,19.105,9.105,20,8,20z M16,10h4
		c1.105,0,2-0.895,2-2V5c0-1.105-0.895-2-2-2h-4c-1.105,0-2,0.895-2,2v3C14,9.105,14.895,10,16,10z M21,20v-6c0-1.105-0.895-2-2-2
		h-5c-1.105,0-2,0.895-2,2v6c0,1.105,0.895,2,2,2h5C20.105,22,21,21.105,21,20z"/>
</g>
<g id="Layer_1">
</g>
</svg>
