<?xml version="1.0" encoding="iso-8859-1"?>
<!-- Generator: Adobe Illustrator 18.1.1, SVG Export Plug-In . SVG Version: 6.00 Build 0)  -->
<svg version="1.1" xmlns="http://www.w3.org/2000/svg" xmlns:xlink="http://www.w3.org/1999/xlink" x="0px" y="0px"
	 viewBox="0 0 24 24" style="enable-background:new 0 0 24 24;" xml:space="preserve">
<g id="help">
	<g>
		<path d="M12,2C6.477,2,2,6.477,2,12c0,5.523,4.477,10,10,10s10-4.477,10-10C22,6.477,17.523,2,12,2z M13,17h-2v-2h2V17z
			 M15.003,10.589c-0.231,0.362-0.6,0.705-1.108,1.029c-0.43,0.279-0.7,0.482-0.808,0.611c-0.108,0.129-0.163,0.282-0.163,0.458V13
			h-1.885v-0.528c0-0.401,0.082-0.74,0.246-1.017c0.163-0.276,0.454-0.546,0.872-0.808c0.332-0.209,0.571-0.397,0.716-0.565
			c0.145-0.168,0.217-0.36,0.217-0.577c0-0.172-0.077-0.308-0.233-0.409c-0.156-0.1-0.358-0.15-0.608-0.15
			c-0.619,0-1.341,0.219-2.168,0.657L9.226,7.933c1.02-0.581,2.084-0.872,3.194-0.872c0.913,0,1.63,0.201,2.15,0.602
			c0.52,0.401,0.78,0.948,0.78,1.64C15.35,9.798,15.234,10.227,15.003,10.589z"/>
	</g>
</g>
<g id="Layer_1">
</g>
</svg>
