<?xml version="1.0" encoding="iso-8859-1"?>
<!-- Generator: Adobe Illustrator 18.1.1, SVG Export Plug-In . SVG Version: 6.00 Build 0)  -->
<svg version="1.1" xmlns="http://www.w3.org/2000/svg" xmlns:xlink="http://www.w3.org/1999/xlink" x="0px" y="0px"
	 viewBox="0 0 24 24" style="enable-background:new 0 0 24 24;" xml:space="preserve">
<g id="ellipsis">
	<path d="M7,12c0,1.104-0.896,2-2,2s-2-0.896-2-2s0.896-2,2-2S7,10.896,7,12z M19,10c-1.104,0-2,0.896-2,2s0.896,2,2,2s2-0.896,2-2
		S20.104,10,19,10z M12,10c-1.104,0-2,0.896-2,2s0.896,2,2,2s2-0.896,2-2S13.104,10,12,10z"/>
</g>
<g id="Layer_1">
</g>
</svg>
