<?xml version="1.0" encoding="iso-8859-1"?>
<!-- Generator: Adobe Illustrator 18.1.0, SVG Export Plug-In . SVG Version: 6.00 Build 0)  -->
<svg version="1.1" xmlns="http://www.w3.org/2000/svg" xmlns:xlink="http://www.w3.org/1999/xlink" x="0px" y="0px"
	 viewBox="0 0 24 24" enable-background="new 0 0 24 24" xml:space="preserve">
<g id="Structural_Icons">
	<g id="minus">
	</g>
	<g id="minus-small">
	</g>
	<g id="plus_1_">
	</g>
	<g id="plus-small">
	</g>
	<g id="ellipsis">
	</g>
	<g id="checkmark">
	</g>
	<g id="menu">
	</g>
	<g id="cross">
	</g>
	<g id="arrow">
	</g>
</g>
<g id="Form_Icons">
	<g id="attachment">
	</g>
</g>
<g id="Status_Icons">
	<g id="bell">
	</g>
</g>
<g id="Action_Icons">
</g>
<g id="Navigation_Icons">
	<path fill="#333333" d="M6.159,16.271c-0.357,0.019-0.709,0.159-0.981,0.431c-0.585,0.585-0.585,1.534,0,2.119
		c0.585,0.585,1.534,0.585,2.119,0c0.273-0.273,0.413-0.624,0.431-0.981L6.159,16.271z M13.85,20.193
		c-0.108-0.754,0.122-1.689,0.51-2.077l3.885-3.885c2.34-2.34,2.34-6.135,0-8.475c-2.34-2.34-6.135-2.34-8.475,0L5.885,9.64
		c-0.388,0.388-1.323,0.618-2.077,0.51L2.706,9.993L2,10.699L13.301,22l0.706-0.706L13.85,20.193z"/>
</g>
<g id="PLAYGROUND">
</g>
</svg>
