<?xml version="1.0" encoding="iso-8859-1"?>
<!-- Generator: Adobe Illustrator 18.0.0, SVG Export Plug-In . SVG Version: 6.00 Build 0)  -->
<!DOCTYPE svg PUBLIC "-//W3C//DTD SVG 1.1//EN" "http://www.w3.org/Graphics/SVG/1.1/DTD/svg11.dtd">
<svg version="1.1" xmlns="http://www.w3.org/2000/svg" xmlns:xlink="http://www.w3.org/1999/xlink" x="0px" y="0px"
	 viewBox="0 0 24 24" enable-background="new 0 0 24 24" xml:space="preserve">
<g id="Structural_Icons">
	<g id="minus">
	</g>
	<g id="minus-small">
	</g>
	<g id="plus_1_">
	</g>
	<g id="plus-small">
	</g>
	<g id="ellipsis">
	</g>
	<g id="checkmark">
	</g>
	<g id="menu">
	</g>
	<g id="cross">
	</g>
	<g id="arrow">
	</g>
</g>
<g id="Form_Icons">
	<g id="attachment">
	</g>
</g>
<g id="Status_Icons">
	<g id="bell">
	</g>
</g>
<g id="Action_Icons">
	<g>
		<path fill="#333333" d="M12,5.236l2.106,4.211L14.382,10H15h3.149l-2.774,2.219l-0.52,0.416l0.183,0.64l1.253,4.384l-3.736-2.491
			L12,14.798l-0.555,0.37l-3.736,2.491l1.253-4.384l0.183-0.64l-0.52-0.416L5.851,10H9h0.618l0.276-0.553L12,5.236 M12,3L9,9H3l5,4
			l-2,7l6-4l6,4l-2-7l5-4h-6L12,3L12,3z"/>
	</g>
</g>
<g id="Navigation_Icons">
</g>
<g id="PLAYGROUND">
</g>
</svg>
