<?xml version="1.0" encoding="iso-8859-1"?>
<!-- Generator: Adobe Illustrator 18.1.1, SVG Export Plug-In . SVG Version: 6.00 Build 0)  -->
<svg version="1.1" xmlns="http://www.w3.org/2000/svg" xmlns:xlink="http://www.w3.org/1999/xlink" x="0px" y="0px"
	 viewBox="0 0 24 24" style="enable-background:new 0 0 24 24;" xml:space="preserve">
<g id="cloud-upload">
	<path d="M18,9c-0.009,0-0.017,0.002-0.025,0.003C17.72,5.646,14.922,3,11.5,3C7.91,3,5,5.91,5,9.5c0,0.524,0.069,1.031,0.186,1.519
		C5.123,11.016,5.064,11,5,11c-2.209,0-4,1.791-4,4c0,1.202,0.541,2.267,1.38,3h18.593C22.196,17.089,23,15.643,23,14
		C23,11.239,20.761,9,18,9z M13,13v3h-2v-3H8l4-5l4,5H13z"/>
</g>
<g id="Layer_1">
</g>
</svg>
