<?xml version="1.0" encoding="iso-8859-1"?>
<!-- Generator: Adobe Illustrator 19.0.0, SVG Export Plug-In . SVG Version: 6.00 Build 0)  -->
<svg version="1.1" xmlns="http://www.w3.org/2000/svg" xmlns:xlink="http://www.w3.org/1999/xlink" x="0px" y="0px"
	 viewBox="0 0 24 24" style="enable-background:new 0 0 24 24;" xml:space="preserve">
<g id="customize">
	<path d="M2,6c0-1.505,0.78-3.08,2-4c0,0.845,0.69,2,2,2c1.657,0,3,1.343,3,3c0,0.386-0.079,0.752-0.212,1.091
		c0.739,0.593,1.476,1.188,2.191,1.808l-2.08,2.08c-0.62-0.715-1.215-1.453-1.808-2.191C6.752,9.921,6.386,10,6,10
		C3.79,10,2,8.21,2,6z M14.152,12.848l1.341-1.341C16.099,11.812,16.775,12,17.5,12c2.485,0,4.5-2.015,4.5-4.5
		c0-0.725-0.188-1.401-0.493-2.007L18,9l-2-2l3.507-3.507C18.901,3.188,18.225,3,17.5,3C15.015,3,13,5.015,13,7.5
		c0,0.725,0.188,1.401,0.493,2.007L3,20l2,2l6.848-6.848c1.885,1.928,3.874,3.753,5.977,5.449l1.425,1.149l1.5-1.5l-1.149-1.425
		C17.905,16.722,16.08,14.733,14.152,12.848z"/>
</g>
<g id="Layer_1">
</g>
</svg>
