<?xml version="1.0" encoding="iso-8859-1"?>
<!-- Generator: Adobe Illustrator 19.1.0, SVG Export Plug-In . SVG Version: 6.00 Build 0)  -->
<svg version="1.1" xmlns="http://www.w3.org/2000/svg" xmlns:xlink="http://www.w3.org/1999/xlink" x="0px" y="0px"
	 viewBox="0 0 24 24" style="enable-background:new 0 0 24 24;" xml:space="preserve">
<g id="special-character">
	<path d="M12.005,7.418c-1.237,0-2.191,0.376-2.861,1.128S8.14,10.358,8.14,11.725c0,1.388,0.226,2.514,0.677,3.378
		c0.451,0.865,1.135,1.543,2.051,2.036V20H5v-2.666h3.119c-1.039-0.636-1.841-1.502-2.404-2.6c-0.564-1.097-0.846-2.322-0.846-3.676
		c0-1.258,0.292-2.363,0.876-3.317C6.33,6.788,7.162,6.055,8.242,5.542s2.334-0.769,3.763-0.769c2.181,0,3.915,0.571,5.204,1.712
		s1.933,2.673,1.933,4.594c0,1.354-0.283,2.57-0.852,3.65c-0.567,1.08-1.38,1.948-2.44,2.604H19V20h-5.908v-2.861
		c0.95-0.492,1.651-1.179,2.102-2.061s0.677-2.006,0.677-3.374c0-1.36-0.337-2.415-1.01-3.164
		C14.188,7.793,13.236,7.418,12.005,7.418z"/>
</g>
<g id="Layer_1">
</g>
</svg>
