<?xml version="1.0" encoding="iso-8859-1"?>
<!-- Generator: Adobe Illustrator 18.1.0, SVG Export Plug-In . SVG Version: 6.00 Build 0)  -->
<svg version="1.1" xmlns="http://www.w3.org/2000/svg" xmlns:xlink="http://www.w3.org/1999/xlink" x="0px" y="0px"
	 viewBox="0 0 24 24" enable-background="new 0 0 24 24" xml:space="preserve">
<g id="Structural_Icons">
	<g id="minus">
	</g>
	<g id="minus-small">
	</g>
	<g id="plus_1_">
	</g>
	<g id="plus-small">
	</g>
	<g id="ellipsis">
	</g>
	<g id="checkmark">
	</g>
	<g id="menu">
	</g>
	<g id="cross">
	</g>
	<g id="arrow">
	</g>
</g>
<g id="Form_Icons">
	<g id="attachment">
	</g>
</g>
<g id="Status_Icons">
	<g id="bell">
		<path fill="#58595B" d="M6.442,16.238c-0.357,0.019-0.709,0.159-0.982,0.432c-0.586,0.586-0.586,1.536,0,2.121
			c0.586,0.586,1.536,0.586,2.121,0c0.273-0.273,0.413-0.625,0.432-0.982L6.442,16.238z M14.141,20.163
			c-0.108-0.755,0.122-1.691,0.511-2.08l3.889-3.889c2.343-2.343,2.343-6.142,0-8.485c-2.343-2.343-6.142-2.343-8.485,0L6.166,9.598
			c-0.389,0.389-1.325,0.619-2.08,0.511L2.984,9.952l-0.707,0.707l11.314,11.314l0.707-0.707L14.141,20.163z"/>
	</g>
</g>
<g id="Action_Icons">
</g>
<g id="Navigation_Icons">
</g>
<g id="PLAYGROUND">
</g>
</svg>
