<?xml version="1.0" encoding="iso-8859-1"?>
<!-- Generator: Adobe Illustrator 19.1.0, SVG Export Plug-In . SVG Version: 6.00 Build 0)  -->
<svg version="1.1" xmlns="http://www.w3.org/2000/svg" xmlns:xlink="http://www.w3.org/1999/xlink" x="0px" y="0px"
	 viewBox="0 0 24 24" style="enable-background:new 0 0 24 24;" xml:space="preserve">
<g id="folder-multiple">
	<rect x="0" style="fill:none;" width="24" height="24"/>
	<path d="M4,7L4,7C2.895,7,2,7.895,2,9v10c0,1.1,0.9,2,2,2h14c1.105,0,2-0.895,2-2v0H4V7z M20,17H8c-1.105,0-2-0.895-2-2V5
		c0-1.105,0.895-2,2-2h3c1.105,0,2,0.895,2,2v0h7c1.105,0,2,0.895,2,2v8C22,16.105,21.105,17,20,17z"/>
</g>
<g id="Layer_1">
</g>
</svg>
