<?xml version="1.0" encoding="iso-8859-1"?>
<!-- Generator: Adobe Illustrator 18.1.1, SVG Export Plug-In . SVG Version: 6.00 Build 0)  -->
<svg version="1.1" xmlns="http://www.w3.org/2000/svg" xmlns:xlink="http://www.w3.org/1999/xlink" x="0px" y="0px"
	 viewBox="0 0 24 24" style="enable-background:new 0 0 24 24;" xml:space="preserve">
<g id="image-multiple">
	<g>
		<circle cx="16.5" cy="7.5" r="1.5"/>
		<path d="M4,6L4,6C2.895,6,2,6.895,2,8v12c0,1.1,0.9,2,2,2h12c1.105,0,2-0.895,2-2v0H4V6z"/>
		<path d="M20,2H8C6.895,2,6,2.895,6,4v12c0,1.105,0.895,2,2,2h12c1.105,0,2-0.895,2-2V4C22,2.895,21.105,2,20,2z M20,4v8.234
			l-0.512-0.57c-0.795-0.885-2.182-0.885-2.976,0l-0.656,0.731L11,7l-3,3.333V4H20z"/>
	</g>
</g>
<g id="Layer_1">
</g>
</svg>
