<svg xmlns="http://www.w3.org/2000/svg" viewBox="0 0 24 24"><title>gridicons-heading-h3</title><g id="Artwork"><g id="heading"><path d="M11,17H9V13H5v4H3V7H5v4H9V7h2Z"/></g><path d="M14.11,14.22a4.83,4.83,0,0,0,1.17.7,3.49,3.49,0,0,0,1.37.27,2.94,2.94,0,0,0,1.4-.3.92.92,0,0,0,.55-.84,1.14,1.14,0,0,0-.15-.58,1.13,1.13,0,0,0-.51-.43,3.62,3.62,0,0,0-1-.27,9.76,9.76,0,0,0-1.52-.1V11.1a4.73,4.73,0,0,0,2.17-.36,1.06,1.06,0,0,0,.63-.93A.9.9,0,0,0,17.84,9a2,2,0,0,0-1.13-.28A2.84,2.84,0,0,0,15.57,9a5.59,5.59,0,0,0-1.06.62L13.29,8.23a6.55,6.55,0,0,1,1.64-.9A5.37,5.37,0,0,1,16.83,7a6.47,6.47,0,0,1,1.56.17,3.77,3.77,0,0,1,1.21.52,2.47,2.47,0,0,1,.79.83,2.23,2.23,0,0,1,.28,1.12,1.74,1.74,0,0,1-.52,1.28,3.87,3.87,0,0,1-1.46.86v.06a3.89,3.89,0,0,1,1.65.83A1.93,1.93,0,0,1,21,14.19a2.16,2.16,0,0,1-.34,1.19,2.86,2.86,0,0,1-.9.88,4.47,4.47,0,0,1-1.32.55,6.43,6.43,0,0,1-1.57.19,6.41,6.41,0,0,1-2.31-.37,4.29,4.29,0,0,1-1.57-1Z"/></g></svg>