<?xml version="1.0" encoding="iso-8859-1"?>
<!-- Generator: Adobe Illustrator 19.1.0, SVG Export Plug-In . SVG Version: 6.00 Build 0)  -->
<svg version="1.1" xmlns="http://www.w3.org/2000/svg" xmlns:xlink="http://www.w3.org/1999/xlink" x="0px" y="0px"
	 viewBox="0 0 24 24" style="enable-background:new 0 0 24 24;" xml:space="preserve">
<g id="add-outline">
	<rect x="0" style="fill:none;" width="24" height="24"/>
	<path d="M12,4c4.411,0,8,3.589,8,8s-3.589,8-8,8s-8-3.589-8-8S7.589,4,12,4 M12,2C6.477,2,2,6.477,2,12s4.477,10,10,10
		s10-4.477,10-10S17.523,2,12,2L12,2z M17,11h-4V7h-2v4H7v2h4v4h2v-4h4V11z"/>
</g>
<g id="Layer_1">
</g>
</svg>
