<svg xmlns="http://www.w3.org/2000/svg" viewBox="0 0 24 24"><title>gridicons-heading-h6</title><g id="Artwork"><g id="heading"><path d="M11,17H9V13H5v4H3V7H5v4H9V7h2Z"/></g><path d="M19.58,9.49A3.17,3.17,0,0,0,18.76,9a2.68,2.68,0,0,0-1.94,0,2,2,0,0,0-.78.52,2.69,2.69,0,0,0-.55.93,4.66,4.66,0,0,0-.25,1.43,4.17,4.17,0,0,1,1.25-.77,3.45,3.45,0,0,1,1.28-.27A4.3,4.3,0,0,1,19,11a3,3,0,0,1,1,.55,2.5,2.5,0,0,1,.68.93A3.25,3.25,0,0,1,21,13.77a2.92,2.92,0,0,1-.3,1.35,3.2,3.2,0,0,1-.83,1,3.64,3.64,0,0,1-1.2.64,4.71,4.71,0,0,1-3-.05,3.72,3.72,0,0,1-1.35-.85,4.2,4.2,0,0,1-1-1.48A5.81,5.81,0,0,1,13,12.22a6.49,6.49,0,0,1,.38-2.34,4.59,4.59,0,0,1,1-1.62,4.08,4.08,0,0,1,1.44-.95A4.65,4.65,0,0,1,17.52,7a5.2,5.2,0,0,1,2,.34,4.68,4.68,0,0,1,1.37.81Zm-2.39,5.84a2,2,0,0,0,.6-.09A1.47,1.47,0,0,0,18.3,15a1.38,1.38,0,0,0,.35-.49,1.72,1.72,0,0,0,.13-.71,1.26,1.26,0,0,0-.43-1.07,1.81,1.81,0,0,0-1.12-.33,2.41,2.41,0,0,0-1,.21,2.92,2.92,0,0,0-1,.73,3.53,3.53,0,0,0,.29,1,2.15,2.15,0,0,0,.44.62,1.44,1.44,0,0,0,.54.33A1.93,1.93,0,0,0,17.19,15.33Z"/></g></svg>