<?xml version="1.0" encoding="utf-8"?>
<!-- Generator: Adobe Illustrator 19.1.0, SVG Export Plug-In . SVG Version: 6.00 Build 0)  -->
<svg version="1.1" id="Layer_1" xmlns="http://www.w3.org/2000/svg" xmlns:xlink="http://www.w3.org/1999/xlink" x="0px" y="0px"
	 viewBox="0 0 24 24" style="enable-background:new 0 0 24 24;" xml:space="preserve">
<path d="M11,13.9l0.8-2.3L10.4,8C10,8,9.5,7.9,9.5,7.9c-0.5,0-0.4-0.7,0.1-0.7c0,0,1.4,0.1,2.2,0.1c0.9,0,2.3-0.1,2.3-0.1
	c0.5,0,0.5,0.6,0.1,0.7c0,0-0.5,0.1-1,0.1l2,6c-0.9,0-1.7-0.1-2.6-0.1l-0.4-1.2l-0.4,1.2C11.5,13.9,11.2,13.9,11,13.9z M3.8,14.3
	c-0.2-0.7-0.3-1.5-0.3-2.3c0-1.2,0.3-2.4,0.7-3.5l2,5.6C7.1,14.1,8,14,8.8,14l-2-6c0.5,0,1-0.1,1-0.1c0.5-0.1,0.4-0.7-0.1-0.7
	c0,0-1.4,0.1-2.3,0.1c-0.2,0-0.3,0-0.5,0C6.4,5,9,3.5,12,3.5c2.2,0,4.2,0.8,5.7,2.2c0,0-0.1,0-0.1,0c-0.8,0-1.4,0.7-1.4,1.5
	c0,0.7,0.4,1.3,0.8,2c0.3,0.6,0.7,1.3,0.7,2.3c0,0.7-0.2,1.5-0.6,2.5c0.3,0,0.6,0,0.9,0.1l0.8-2.3c0.5-1.2,0.6-2.2,0.6-3
	c0-0.3,0-0.6-0.1-0.9c0.7,1.2,1,2.6,1,4.1c0,0.8-0.1,1.6-0.3,2.3c0.5,0,1,0.1,1.5,0.2c0.2-0.8,0.3-1.6,0.3-2.5c0-5.5-4.5-10-10-10
	S2,6.5,2,12c0,0.9,0.1,1.7,0.3,2.5C2.8,14.4,3.3,14.4,3.8,14.3z M18.5,17.5c-1.8,2.2-4.3,3-6.5,3c-1.9,0-4.6-0.7-6.5-3
	c-0.6,0-1.2,0.1-1.8,0.2C5.6,20.3,8.6,22,12,22c3.4,0,6.4-1.7,8.2-4.4C19.6,17.6,19.1,17.5,18.5,17.5z M12,15c-3.7,0-7.4,0.3-11,0.7
	c0.2,0.4,0.4,0.8,0.5,1.2C5,16.6,8.5,16.3,12,16.3s7,0.2,10.5,0.7c0.2-0.4,0.3-0.8,0.5-1.2C19.4,15.3,15.7,15,12,15z"/>
</svg>
