<?xml version="1.0" encoding="iso-8859-1"?>
<!-- Generator: Adobe Illustrator 18.1.1, SVG Export Plug-In . SVG Version: 6.00 Build 0)  -->
<svg version="1.1" xmlns="http://www.w3.org/2000/svg" xmlns:xlink="http://www.w3.org/1999/xlink" x="0px" y="0px"
	 viewBox="0 0 24 24" style="enable-background:new 0 0 24 24;" xml:space="preserve">
<g id="link">
	<g>
		<rect x="7" y="11" width="10" height="2"/>
		<path d="M18,7h-1c-1.631,0-3.065,0.792-3.977,2H17h1c1.103,0,2,0.897,2,2v2c0,1.103-0.897,2-2,2h-1h-3.977
			c0.913,1.208,2.347,2,3.977,2h1c2.209,0,4-1.791,4-4v-2C22,8.791,20.209,7,18,7z"/>
		<path d="M6,7h1c1.631,0,3.065,1,3.977,2H7H6c-1.103,0-2,0.897-2,2v2c0,1.103,0.897,2,2,2h1h3.977C10.065,16,8.63,17,7,17H6
			c-2.209,0-4-1.791-4-4v-2C2,8.791,3.791,7,6,7z"/>
	</g>
</g>
<g id="Layer_1">
</g>
</svg>
