<?xml version="1.0" encoding="utf-8"?>
<!-- Generator: Adobe Illustrator 18.0.0, SVG Export Plug-In . SVG Version: 6.00 Build 0)  -->
<!DOCTYPE svg PUBLIC "-//W3C//DTD SVG 1.1//EN" "http://www.w3.org/Graphics/SVG/1.1/DTD/svg11.dtd">
<svg version="1.1" xmlns="http://www.w3.org/2000/svg" xmlns:xlink="http://www.w3.org/1999/xlink" x="0px" y="0px"
	 viewBox="0 0 24 24" enable-background="new 0 0 24 24" xml:space="preserve">
<g id="Guides">
</g>
<g id="Artwork">
	<g>
		<defs>
			<path id="SVGID_1_" d="M26.1,5.1c0-0.8,0.3-1.5,0.9-2.1c0.6-0.6,1.3-0.9,2.1-0.9H41c0.8,0,1.5,0.3,2.1,0.9
				C43.7,3.6,44,4.3,44,5.1v4.5c0,0.8-0.3,1.5-0.9,2.1c-0.6,0.6-1.3,0.9-2.1,0.9h-5.2l-5.2,5.2v-5.2h-1.5c-0.8,0-1.5-0.3-2.1-0.9
				c-0.6-0.6-0.9-1.3-0.9-2.1V5.1z"/>
		</defs>
		<clipPath id="SVGID_2_">
			<use xlink:href="#SVGID_1_"  overflow="visible"/>
		</clipPath>
	</g>
	<path fill="#231F20" d="M12,5c-5,0-9,2.9-9,6.5c0,2.4,1.8,4.5,4.6,5.7c0.1,0,0.2,0.1,0.2,0.2c0,0.7-0.2,1.4-1,2
		c-0.2,0.2,0,0.5,0.2,0.5c1-0.1,1.7-0.3,3-0.9c0.7-0.3,1.3-0.6,1.8-1c0.1,0,0.1,0,0.2,0c5,0,9-2.9,9-6.5S17,5,12,5z"/>
</g>
</svg>
