<?xml version="1.0" encoding="utf-8"?>
<!-- Generator: Adobe Illustrator 19.1.0, SVG Export Plug-In . SVG Version: 6.00 Build 0)  -->
<!DOCTYPE svg PUBLIC "-//W3C//DTD SVG 1.1//EN" "http://www.w3.org/Graphics/SVG/1.1/DTD/svg11.dtd">
<svg version="1.1" xmlns="http://www.w3.org/2000/svg" xmlns:xlink="http://www.w3.org/1999/xlink" x="0px" y="0px"
	 viewBox="0 0 24 24" enable-background="new 0 0 24 24" xml:space="preserve">
<g id="Adv._Guides">
</g>
<g id="Guides">
</g>
<g id="Artwork">
	<g>
		<defs>
			<path id="SVGID_1_" d="M15,4h2v16h-2V4z M2,10c0-1.1,0.9-2,2-2h7l4-4v16c0,0-4-4-4-4H4c-1.1,0-2-0.9-2-2V10z M9,18v-2H5v3
				c0,1.1,0.9,2,2,2h2V18z M19,15c1.7,0,3-1.3,3-3c0-1.7-1.3-3-3-3v3V15z"/>
		</defs>
		<clipPath id="SVGID_2_">
			<use xlink:href="#SVGID_1_"  overflow="visible"/>
		</clipPath>
		<g clip-path="url(#SVGID_2_)">
			<defs>
				<rect id="SVGID_3_" x="-79" y="-13" width="105" height="40"/>
			</defs>
			<clipPath id="SVGID_4_">
				<use xlink:href="#SVGID_3_"  overflow="visible"/>
			</clipPath>
			<rect x="-5" y="-1" clip-path="url(#SVGID_4_)" width="31" height="27"/>
		</g>
	</g>
</g>
</svg>
