<?xml version="1.0" encoding="iso-8859-1"?>
<!-- Generator: Adobe Illustrator 18.1.0, SVG Export Plug-In . SVG Version: 6.00 Build 0)  -->
<svg version="1.1" xmlns="http://www.w3.org/2000/svg" xmlns:xlink="http://www.w3.org/1999/xlink" x="0px" y="0px"
	 viewBox="0 0 24 24" enable-background="new 0 0 24 24" xml:space="preserve">
<g id="Structural_Icons">
	<g id="minus">
	</g>
	<g id="minus-small">
	</g>
	<g id="plus_1_">
	</g>
	<g id="plus-small">
	</g>
	<g id="ellipsis">
	</g>
	<g id="checkmark">
	</g>
	<g id="menu">
	</g>
	<g id="cross">
	</g>
	<g id="arrow">
	</g>
</g>
<g id="Form_Icons">
	<g id="attachment">
		<path fill="#333333" d="M14,1c-2.762,0-5,2.238-5,5v10c0,1.657,1.343,3,3,3c1.657,0,2.99-1.343,2.99-3V6H13v10
			c0,0.553-0.447,1-1,1c-0.553,0-1-0.447-1-1V6c0-1.657,1.343-3,3-3c1.657,0,3,1.343,3,3v10.125C17,18.887,14.762,21,12,21
			c-2.762,0-5-2.238-5-5v-5H5v5c0,3.866,3.134,7,7,7c3.866,0,6.99-3.134,6.99-7V6C18.99,3.238,16.762,1,14,1z"/>
	</g>
</g>
<g id="Status_Icons">
	<g id="bell">
	</g>
</g>
<g id="Action_Icons">
</g>
<g id="Navigation_Icons">
</g>
<g id="PLAYGROUND">
</g>
</svg>
