<svg id="Artwork" xmlns="http://www.w3.org/2000/svg" viewBox="0 0 24 24"><title>gridicons-coupon</title><path d="M13,16v2H11V16h2Zm3-3h2V11H16v2Zm2,8H16v2h2V21Zm3-5v2h2V16H21Zm-1-3a1,1,0,0,1,1,1h2a3,3,0,0,0-3-3v2Zm1,7a1,1,0,0,1-1,1v2a3,3,0,0,0,3-3H21Zm-7,1a1,1,0,0,1-1-1H11a3,3,0,0,0,3,3V21Zm3.21-5.21a2,2,0,0,1-2.83,0L10,11.41,8.57,12.85A3.46,3.46,0,0,1,9,14.5,3.5,3.5,0,1,1,5.5,11a3.46,3.46,0,0,1,1.65.43L8.59,10,7.15,8.57A3.46,3.46,0,0,1,5.5,9,3.5,3.5,0,1,1,9,5.5a3.46,3.46,0,0,1-.43,1.65L10,8.59l3.88-3.88a2,2,0,0,1,2.83,0L11.41,10ZM5.5,7A1.5,1.5,0,1,0,4,5.5,1.5,1.5,0,0,0,5.5,7ZM7,14.5A1.5,1.5,0,1,0,5.5,16,1.5,1.5,0,0,0,7,14.5Z"/></svg>