<?xml version="1.0" encoding="iso-8859-1"?>
<!-- Generator: Adobe Illustrator 18.1.1, SVG Export Plug-In . SVG Version: 6.00 Build 0)  -->
<svg version="1.1" xmlns="http://www.w3.org/2000/svg" xmlns:xlink="http://www.w3.org/1999/xlink" x="0px" y="0px"
	 viewBox="0 0 24 24" style="enable-background:new 0 0 24 24;" xml:space="preserve">
<g id="video">
	<path d="M20,4v2h-2V4H6v2H4V4C2.895,4,2,4.895,2,6v12c0,1.105,0.895,2,2,2v-2h2v2h12v-2h2v2c1.105,0,2-0.895,2-2V6
		C22,4.895,21.105,4,20,4z M6,16H4v-3h2V16z M6,11H4V8h2V11z M10,15V9l4.5,3L10,15z M20,16h-2v-3h2V16z M20,11h-2V8h2V11z"/>
</g>
<g id="Layer_1">
</g>
</svg>
