<?xml version="1.0" encoding="iso-8859-1"?>
<!-- Generator: Adobe Illustrator 18.1.1, SVG Export Plug-In . SVG Version: 6.00 Build 0)  -->
<svg version="1.1" xmlns="http://www.w3.org/2000/svg" xmlns:xlink="http://www.w3.org/1999/xlink" x="0px" y="0px"
	 viewBox="0 0 24 24" style="enable-background:new 0 0 24 24;" xml:space="preserve">
<g id="bell">
	<g>
		<path d="M5.555,16.383c0,1.105,0.895,2,2,2c0.552,0,1.052-0.224,1.414-0.586L6.14,14.969C5.778,15.331,5.555,15.831,5.555,16.383z
			"/>
		<g>
			<g id="Navigation_Icons_1_">
				<path d="M14.85,19.193c-0.108-0.754,0.122-1.689,0.51-2.077l3.885-3.885c2.34-2.34,2.34-6.135,0-8.475s-6.135-2.34-8.475,0
					L6.885,8.64C6.497,9.028,5.562,9.258,4.808,9.15L3.706,8.993L3,9.699L14.301,21l0.706-0.706L14.85,19.193z"/>
			</g>
			<path d="M6.172,15c-0.781,0.781-0.781,2.047,0,2.828c0.781,0.781,2.047,0.781,2.828,0L6.172,15z"/>
		</g>
	</g>
</g>
<g id="Layer_1">
</g>
</svg>
