<?xml version="1.0" encoding="utf-8"?>
<!-- Generator: Adobe Illustrator 20.1.0, SVG Export Plug-In . SVG Version: 6.00 Build 0)  -->
<svg version="1.1" id="Layer_1" xmlns="http://www.w3.org/2000/svg" xmlns:xlink="http://www.w3.org/1999/xlink" x="0px" y="0px"
	 viewBox="0 0 24 24" enable-background="new 0 0 24 24" xml:space="preserve">
<g>
	<path d="M20,4h-8c-1.1,0-2,0.9-2,2v2h2c1.7,0,3,1.3,3,3v2h2v3.5l3.3-2.3c1.1-0.8,1.7-2,1.7-3.3V6C22,4.9,21.1,4,20,4z"/>
	<g>
		<path d="M14,11v5c0,1.1-0.9,2-2,2H7v3.5l-3.3-2.3c-1.1-0.8-1.7-2-1.7-3.3V11c0-1.1,0.9-2,2-2h8C13.1,9,14,9.9,14,11z"/>
	</g>
</g>
</svg>
