<?xml version="1.0" encoding="iso-8859-1"?>
<!-- Generator: Adobe Illustrator 16.0.4, SVG Export Plug-In . SVG Version: 6.00 Build 0)  -->
<!DOCTYPE svg PUBLIC "-//W3C//DTD SVG 1.1//EN" "http://www.w3.org/Graphics/SVG/1.1/DTD/svg11.dtd">
<svg version="1.1" xmlns="http://www.w3.org/2000/svg" xmlns:xlink="http://www.w3.org/1999/xlink" x="0px" y="0px" width="24px"
	 height="24px" viewBox="0 0 24 24" style="enable-background:new 0 0 24 24;" xml:space="preserve">
<g id="Structural_Icons">
	<g id="minus">
	</g>
	<g id="minus-small">
	</g>
	<g id="plus_1_">
	</g>
	<g id="plus-small">
	</g>
	<g id="ellipsis">
	</g>
	<g id="checkmark">
	</g>
	<g id="menu">
	</g>
	<g id="cross">
	</g>
	<g id="arrow">
	</g>
</g>
<g id="Form_Icons">
	<g id="attachment">
	</g>
</g>
<g id="Status_Icons">
	<g id="bell">
		<path style="fill-rule:evenodd;clip-rule:evenodd;fill:#58595B;" d="M5.858,18.141c0.613,0.613,1.598,0.625,2.197,0.024
			c0.222-0.222,0.188-0.919,0.188-0.919l-1.476-1.471c0,0-0.67-0.096-0.935,0.169C5.234,16.544,5.245,17.527,5.858,18.141z
			 M19.102,4.972c-2.222-2.221-6.178-2.708-8.595-0.29C9.022,6.165,5.973,9.216,5.973,9.216S3.453,8.968,3.051,9.37
			C2.648,9.773,3.629,11.56,3.629,11.56l8.885,8.885l2.121,0.51l0.154-2.785l4.603-4.603C21.841,11.117,21.125,7,19.102,4.972z"/>
	</g>
</g>
<g id="Action_Icons">
</g>
<g id="Navigation_Icons">
</g>
<g id="PLAYGROUND">
</g>
</svg>
