<?xml version="1.0" encoding="iso-8859-1"?>
<!-- Generator: Adobe Illustrator 18.1.0, SVG Export Plug-In . SVG Version: 6.00 Build 0)  -->
<svg version="1.1" xmlns="http://www.w3.org/2000/svg" xmlns:xlink="http://www.w3.org/1999/xlink" x="0px" y="0px"
	 viewBox="0 0 24 24" enable-background="new 0 0 24 24" xml:space="preserve">
<g id="Structural_Icons">
	<g id="minus">
	</g>
	<g id="minus-small">
	</g>
	<g id="plus_1_">
	</g>
	<g id="plus-small">
	</g>
	<g id="ellipsis">
	</g>
	<g id="checkmark">
	</g>
	<g id="menu">
	</g>
	<g id="cross">
	</g>
	<g id="arrow">
	</g>
</g>
<g id="Form_Icons">
	<g id="attachment">
	</g>
</g>
<g id="Status_Icons">
	<g id="bell">
	</g>
	<path fill="#58595B" d="M12,4c-4.419,0-8,3.583-8,8c0,4.418,3.581,8,8,8c4.418,0,8-3.582,8-8C20,7.583,16.418,4,12,4z M13,17h-2v-2
		h2V17z M15.32,10.626c-0.263,0.408-0.675,0.792-1.247,1.155c-0.479,0.312-0.781,0.542-0.906,0.688
		c-0.123,0.144-0.18,0.315-0.18,0.511V13h-2.123v-0.261c0-0.447,0.093-0.83,0.276-1.141c0.185-0.311,0.512-0.611,0.981-0.906
		c0.373-0.234,0.639-0.446,0.805-0.634c0.162-0.188,0.245-0.405,0.245-0.647c0-0.193-0.086-0.348-0.266-0.459
		c-0.175-0.113-0.401-0.17-0.68-0.17c-0.695,0-1.508,0.246-2.438,0.738L8.832,7.646c1.145-0.653,2.34-0.979,3.587-0.979
		c1.023,0,1.834,0.224,2.417,0.674c0.583,0.451,0.872,1.065,0.872,1.842C15.708,9.739,15.578,10.222,15.32,10.626z"/>
</g>
<g id="Action_Icons">
</g>
<g id="Navigation_Icons">
</g>
<g id="PLAYGROUND">
</g>
</svg>
