<?xml version="1.0" encoding="iso-8859-1"?>
<!-- Generator: Adobe Illustrator 19.2.1, SVG Export Plug-In . SVG Version: 6.00 Build 0)  -->
<svg version="1.1" xmlns="http://www.w3.org/2000/svg" xmlns:xlink="http://www.w3.org/1999/xlink" x="0px" y="0px"
	 viewBox="0 0 24 24" style="enable-background:new 0 0 24 24;" xml:space="preserve">
<g id="coupon">
	<path d="M13,16v2h-2v-2H13z M16,13h2v-2h-2V13z M18,21h-2v2h2V21z M21,16v2h2v-2H21z M20,13c0.552,0,1,0.448,1,1h2
		c0-1.657-1.343-3-3-3V13z M21,20c0,0.552-0.448,1-1,1v2c1.657,0,3-1.343,3-3H21z M14,21c-0.552,0-1-0.448-1-1h-2
		c0,1.657,1.343,3,3,3V21z M17.21,15.79c-0.781,0.781-2.047,0.782-2.828,0.002c-0.001-0.001-0.001-0.001-0.002-0.002L10,11.41
		l-1.43,1.44C8.849,13.356,8.997,13.923,9,14.5C9,16.433,7.433,18,5.5,18S2,16.433,2,14.5S3.567,11,5.5,11
		c0.577,0.003,1.144,0.151,1.65,0.43L8.59,10L7.15,8.57C6.644,8.849,6.077,8.997,5.5,9C3.567,9,2,7.433,2,5.5S3.567,2,5.5,2
		S9,3.567,9,5.5C8.997,6.077,8.849,6.644,8.57,7.15L10,8.59l3.88-3.88c0.781-0.781,2.047-0.782,2.828-0.002
		c0.001,0.001,0.001,0.001,0.002,0.002L11.41,10L17.21,15.79z M5.5,7C6.328,7,7,6.328,7,5.5S6.328,4,5.5,4S4,4.672,4,5.5
		S4.672,7,5.5,7z M7,14.5C7,13.672,6.328,13,5.5,13S4,13.672,4,14.5S4.672,16,5.5,16S7,15.328,7,14.5L7,14.5z"/>
</g>
<g id="Layer_1">
</g>
</svg>
