<?xml version="1.0" encoding="iso-8859-1"?>
<!-- Generator: Adobe Illustrator 18.1.1, SVG Export Plug-In . SVG Version: 6.00 Build 0)  -->
<svg version="1.1" xmlns="http://www.w3.org/2000/svg" xmlns:xlink="http://www.w3.org/1999/xlink" x="0px" y="0px"
	 viewBox="0 0 24 24" style="enable-background:new 0 0 24 24;" xml:space="preserve">
<g id="sync">
	<path d="M23.5,13.5l-3.086,3.086L19,18l-4.5-4.5l1.414-1.414L18,14.172V12c0-3.308-2.692-6-6-6V4c4.418,0,8,3.582,8,8v2.172
		l2.086-2.086L23.5,13.5z M6,12V9.828l2.086,2.086L9.5,10.5L5,6L3.586,7.414L0.5,10.5l1.414,1.414L4,9.828V12c0,4.418,3.582,8,8,8
		v-2C8.692,18,6,15.308,6,12z"/>
</g>
<g id="Layer_1">
</g>
</svg>
