<svg xmlns="http://www.w3.org/2000/svg" viewBox="0 0 24 24"><title>gridicons-heading-h2</title><g id="Artwork"><g id="heading"><path d="M11,17H9V13H5v4H3V7H5v4H9V7h2Z"/></g><path d="M13,15.7c.75-.59,1.55-1.14,2.16-1.65s1.15-1,1.59-1.43a7.12,7.12,0,0,0,1-1.25,2.13,2.13,0,0,0,.36-1.11,1.36,1.36,0,0,0-.45-1.1,1.91,1.91,0,0,0-1.27-.38,2.26,2.26,0,0,0-1.15.3,5.81,5.81,0,0,0-1,.7L13,8.56a8.42,8.42,0,0,1,.82-.68,4.41,4.41,0,0,1,.86-.49,4.89,4.89,0,0,1,1-.29A5.73,5.73,0,0,1,16.75,7a4.76,4.76,0,0,1,1.5.22,3.5,3.5,0,0,1,1.17.63,2.91,2.91,0,0,1,.76,1,3,3,0,0,1,.27,1.28,2.84,2.84,0,0,1-.31,1.26,6.42,6.42,0,0,1-.85,1.28,13.92,13.92,0,0,1-1.23,1.28c-.46.43-.55.64-1.06,1.05h4v2H13Z"/></g></svg>