<?xml version="1.0" encoding="iso-8859-1"?>
<!-- Generator: Adobe Illustrator 16.0.4, SVG Export Plug-In . SVG Version: 6.00 Build 0)  -->
<!DOCTYPE svg PUBLIC "-//W3C//DTD SVG 1.1//EN" "http://www.w3.org/Graphics/SVG/1.1/DTD/svg11.dtd">
<svg version="1.1" xmlns="http://www.w3.org/2000/svg" xmlns:xlink="http://www.w3.org/1999/xlink" x="0px" y="0px" width="24px"
	 height="24px" viewBox="0 0 24 24" style="enable-background:new 0 0 24 24;" xml:space="preserve">
<g id="Structural_Icons">
	<g id="minus">
	</g>
	<g id="minus-small">
	</g>
	<g id="plus_1_">
	</g>
	<g id="plus-small">
	</g>
	<g id="ellipsis">
	</g>
	<g id="checkmark">
	</g>
	<g id="menu">
	</g>
	<g id="cross">
	</g>
	<g id="arrow">
	</g>
</g>
<g id="Form_Icons">
	<g id="attachment">
	</g>
</g>
<g id="Status_Icons">
	<g id="bell">
	</g>
</g>
<g id="Action_Icons">
	<path style="fill:none;stroke:#58595B;stroke-width:2;stroke-linejoin:bevel;stroke-miterlimit:10;" d="M7.508,7.017
		c-1.104,0-1.996,0.895-1.996,1.996c0,0.018,0.004,0.033,0.004,0.051c-1.693,0.241-2.998,1.684-2.998,3.443
		C2.518,14.437,4.08,16,6.01,16c0.303,0,11.336,0,11.979,0c1.93,0,3.494-1.563,3.494-3.493s-1.564-3.494-3.494-3.494
		c-0.496,0-0.963,0.113-1.389,0.301c-0.01,0.004-0.178,0.006-0.174,0.041c0.031,0.281,0.125,1.53,0.125,1.625
		c0-3.656-1.672-4.961-3.553-4.961c-1.744,0-3.445,1.289-3.445,2.951C9.553,7.808,8.609,7.017,7.508,7.017z"/>
</g>
<g id="Navigation_Icons">
</g>
<g id="PLAYGROUND">
</g>
</svg>
