<?xml version="1.0" encoding="iso-8859-1"?>
<!-- Generator: Adobe Illustrator 18.1.0, SVG Export Plug-In . SVG Version: 6.00 Build 0)  -->
<svg version="1.1" xmlns="http://www.w3.org/2000/svg" xmlns:xlink="http://www.w3.org/1999/xlink" x="0px" y="0px"
	 viewBox="0 0 24 24" enable-background="new 0 0 24 24" xml:space="preserve">
<g id="Structural_Icons">
	<g id="minus">
	</g>
	<g id="minus-small">
	</g>
	<g id="plus_1_">
	</g>
	<g id="plus-small">
	</g>
	<g id="ellipsis">
	</g>
	<g id="checkmark">
	</g>
	<g id="menu">
	</g>
	<g id="cross">
	</g>
	<g id="arrow">
	</g>
</g>
<g id="Form_Icons">
	<g id="attachment">
	</g>
	<path fill="#333333" d="M6,12c0,0.553,0.447,1,1,1h10c0.553,0,1-0.447,1-1s-0.447-1-1-1H7C6.447,11,6,11.447,6,12z M17,7h-2
		c-0.553,0-1,0.447-1,1c0,0.553,0.447,1,1,1h2c1.657,0,3,1.343,3,3s-1.343,3-3,3h-2c-0.553,0-1,0.447-1,1s0.447,1,1,1h2
		c2.761,0,5-2.239,5-5C22,9.239,19.761,7,17,7z M9,15H7c-1.657,0-3-1.343-3-3s1.343-3,3-3h2c0.553,0,1-0.447,1-1
		c0-0.553-0.447-1-1-1H7c-2.761,0-5,2.239-5,5c0,2.761,2.239,5,5,5h2c0.553,0,1-0.447,1-1S9.553,15,9,15z"/>
</g>
<g id="Status_Icons">
	<g id="bell">
	</g>
</g>
<g id="Action_Icons">
</g>
<g id="Navigation_Icons">
</g>
<g id="PLAYGROUND">
</g>
</svg>
