<?xml version="1.0" encoding="utf-8"?>
<!-- Generator: Adobe Illustrator 19.1.0, SVG Export Plug-In . SVG Version: 6.00 Build 0)  -->
<svg version="1.1" xmlns="http://www.w3.org/2000/svg" xmlns:xlink="http://www.w3.org/1999/xlink" x="0px" y="0px"
	 viewBox="0 0 24 24" enable-background="new 0 0 24 24" xml:space="preserve">
<g id="Adv._Guides">
</g>
<g id="Guides">
</g>
<g id="Artwork">
	<g id="Layer_1_1_">
	</g>
	<g>
		<path d="M12,2C6.5,2,2,6.5,2,12s4.5,10,10,10s10-4.5,10-10S17.5,2,12,2z M12,20c-4.4,0-8-3.6-8-8s3.6-8,8-8s8,3.6,8,8
			S16.4,20,12,20z"/>
		<path d="M13.5,6C11,6,9,8,9,10.5V15h0l0,0.2l-2.5-2.5l-1.4,1.4L10,19l4.9-4.9l-1.4-1.4L11,15.2V13l0,0v-2.5C11,9.1,12.1,8,13.5,8
			S16,9.1,16,10.5V15h2v-4.5C18,8,16,6,13.5,6z"/>
	</g>
</g>
</svg>
