<?xml version="1.0" encoding="iso-8859-1"?>
<!-- Generator: Adobe Illustrator 19.1.0, SVG Export Plug-In . SVG Version: 6.00 Build 0)  -->
<svg version="1.1" xmlns="http://www.w3.org/2000/svg" xmlns:xlink="http://www.w3.org/1999/xlink" x="0px" y="0px"
	 viewBox="0 0 24 24" style="enable-background:new 0 0 24 24;" xml:space="preserve">
<g id="mention">
	<rect x="0" style="fill:none;" width="24" height="24"/>
	<path d="M12,2C6.477,2,2,6.477,2,12c0,5.523,4.477,10,10,10v-2c-4.411,0-8-3.589-8-8c0-4.411,3.589-8,8-8s8,3.589,8,8v0.5
		c0,0.827-0.673,1.5-1.5,1.5S17,13.327,17,12.5V12c0-2.761-2.239-5-5-5s-5,2.239-5,5s2.239,5,5,5c1.651,0,3.102-0.81,4.013-2.043
		C16.648,15.6,17.527,16,18.5,16c1.93,0,3.5-1.57,3.5-3.5V12C22,6.477,17.523,2,12,2z M12,15c-1.654,0-3-1.346-3-3
		c0-1.654,1.346-3,3-3s3,1.346,3,3C15,13.654,13.654,15,12,15z"/>
</g>
<g id="Layer_1">
</g>
</svg>
