<?xml version="1.0" encoding="iso-8859-1"?>
<!-- Generator: Adobe Illustrator 19.2.1, SVG Export Plug-In . SVG Version: 6.00 Build 0)  -->
<svg version="1.1" xmlns="http://www.w3.org/2000/svg" xmlns:xlink="http://www.w3.org/1999/xlink" x="0px" y="0px"
	 viewBox="0 0 24 24" style="enable-background:new 0 0 24 24;" xml:space="preserve">
<g id="refund">
	<path d="M13.91,2.91L11.83,5H14c4.418,0,8,3.582,8,8h-2c0-3.314-2.686-6-6-6h-2.17l2.09,2.09L12.5,10.5L8,6l1.41-1.41L12.5,1.5
		L13.91,2.91z M2,12v10h16V12H2z M4,18.56v-3.11c0.601-0.349,1.101-0.849,1.45-1.45h9.1c0.349,0.601,0.849,1.101,1.45,1.45v3.11
		c-0.593,0.349-1.085,0.845-1.43,1.44H5.45C5.1,19.403,4.6,18.906,4,18.56z M10,19c1.105,0,2-0.895,2-2s-0.895-2-2-2s-2,0.895-2,2
		S8.895,19,10,19z"/>
</g>
<g id="Layer_1">
</g>
</svg>
