<?xml version="1.0" encoding="iso-8859-1"?>
<!-- Generator: Adobe Illustrator 18.1.1, SVG Export Plug-In . SVG Version: 6.00 Build 0)  -->
<svg version="1.1" xmlns="http://www.w3.org/2000/svg" xmlns:xlink="http://www.w3.org/1999/xlink" x="0px" y="0px"
	 viewBox="0 0 24 24" style="enable-background:new 0 0 24 24;" xml:space="preserve">
<g id="image">
	<g>
		<path style="fill:none;" d="M20,20H4c-1.105,0-2-0.895-2-2V6c0-1.105,0.895-2,2-2h16c1.105,0,2,0.895,2,2v12
			C22,19.105,21.105,20,20,20z"/>
		<circle cx="14.5" cy="9.5" r="1.5"/>
		<path d="M20,4H4C2.895,4,2,4.895,2,6v12c0,1.105,0.895,2,2,2h16c1.105,0,2-0.895,2-2V6C22,4.895,21.105,4,20,4z M20,15.427
			l-1.482-1.728c-0.798-0.931-2.239-0.931-3.037,0l-1.587,1.851L8,9l-4,4.444V6h16V15.427z"/>
	</g>
</g>
<g id="Layer_1">
</g>
</svg>
