<?xml version="1.0" encoding="utf-8"?>
<!-- Generator: Adobe Illustrator 19.1.0, SVG Export Plug-In . SVG Version: 6.00 Build 0)  -->
<svg version="1.1" xmlns="http://www.w3.org/2000/svg" xmlns:xlink="http://www.w3.org/1999/xlink" x="0px" y="0px"
	 viewBox="0 0 24 24" enable-background="new 0 0 24 24" xml:space="preserve">
<g id="Adv._Guides">
</g>
<g id="Guides">
</g>
<g id="Artwork">
	<g id="Layer_1_1_">
	</g>
	<g id="Layer_1_2_">
	</g>
	<g>
		<path d="M17.7,6.3c3.1,3.1,3.1,8.2,0,11.3s-8.2,3.1-11.3,0s-3.1-8.2,0-11.3S14.5,3.2,17.7,6.3 M19.1,4.9C15.2,1,8.8,1,4.9,4.9
			S1,15.2,4.9,19.1s10.2,3.9,14.1,0S23,8.8,19.1,4.9L19.1,4.9z M16.2,14.8L13.4,12l2.8-2.8l-1.4-1.4L12,10.6L9.2,7.8L7.8,9.2
			l2.8,2.8l-2.8,2.8l1.4,1.4l2.8-2.8l2.8,2.8L16.2,14.8z"/>
	</g>
</g>
</svg>
