<?xml version="1.0" encoding="iso-8859-1"?>
<!-- Generator: Adobe Illustrator 18.1.1, SVG Export Plug-In . SVG Version: 6.00 Build 0)  -->
<svg version="1.1" xmlns="http://www.w3.org/2000/svg" xmlns:xlink="http://www.w3.org/1999/xlink" x="0px" y="0px"
	 viewBox="0 0 24 24" style="enable-background:new 0 0 24 24;" xml:space="preserve">
<g id="link-break">
	<g>
		<g>
			<path d="M4.359,16.64L6,15c-1.103,0-2-0.897-2-2v-2c0-1.103,0.897-2,2-2h1h3.977C10.065,8,8.631,7,7,7H6c-2.209,0-4,1.791-4,4v2
				C2,14.623,2.971,16.013,4.359,16.64z"/>
			<path d="M7,17c1.63,0,3.065-1,3.977-2H9L7,17z"/>
		</g>
		<g>
			<polygon points="10,11 7,11 7,13 8,13 			"/>
			<polygon points="11,13 17,13 17,11 13,11 			"/>
		</g>
		<path d="M18,7h-1l-2,2h2h1c1.103,0,2,0.897,2,2v2c0,1.103-0.897,2-2,2h-1h-3.977c0.913,1.208,2.347,2,3.977,2h1
			c2.209,0,4-1.791,4-4v-2C22,8.791,20.209,7,18,7z"/>
	</g>
	<rect x="11.689" y="0.729" transform="matrix(0.7071 0.7071 -0.7071 0.7071 12.7501 -5.2811)" width="2.122" height="24.042"/>
</g>
<g id="Layer_1">
</g>
</svg>
