<?xml version="1.0" encoding="iso-8859-1"?>
<!-- Generator: Adobe Illustrator 19.1.0, SVG Export Plug-In . SVG Version: 6.00 Build 0)  -->
<svg version="1.1" xmlns="http://www.w3.org/2000/svg" xmlns:xlink="http://www.w3.org/1999/xlink" x="0px" y="0px"
	 viewBox="0 0 24 24" style="enable-background:new 0 0 24 24;" xml:space="preserve">
<g id="briefcase">
	<g id="business-and-services_1_">
		<g>
			<path d="M21,6h-4V3c0-0.5-0.5-1-1-1H8C7.5,2,7,2.5,7,3v3H3C2.4,6,2,6.4,2,7v5h20V7C22,6.4,21.6,6,21,6z M15,6H9V4h6V6z"/>
			<path d="M14,15h-4v-2H2v8c0,0.6,0.4,1,1,1h18c0.6,0,1-0.4,1-1v-8h-8V15z"/>
		</g>
	</g>
	<g id="writing-and-books">
	</g>
</g>
<g id="Layer_1">
</g>
</svg>
