<?xml version="1.0" encoding="iso-8859-1"?>
<!-- Generator: Adobe Illustrator 18.1.1, SVG Export Plug-In . SVG Version: 6.00 Build 0)  -->
<svg version="1.1" xmlns="http://www.w3.org/2000/svg" xmlns:xlink="http://www.w3.org/1999/xlink" x="0px" y="0px"
	 viewBox="0 0 24 24" style="enable-background:new 0 0 24 24;" xml:space="preserve">
<g id="tag">
	<path d="M20,2h-7.083c-0.531,0-1.039,0.211-1.414,0.586l-8.91,8.912c-0.781,0.781-0.781,2.047,0,2.828l7.087,7.087
		c0.781,0.781,2.047,0.781,2.828,0l8.906-8.906C21.789,12.133,22,11.624,22,11.093V4C22,2.9,21.1,2,20,2z M17.007,9
		c-1.105,0-2-0.895-2-2c0-1.105,0.895-2,2-2c1.105,0,2,0.895,2,2C19.007,8.105,18.112,9,17.007,9z"/>
</g>
<g id="Layer_1">
</g>
</svg>
