<?xml version="1.0" encoding="utf-8"?>
<!-- Generator: Adobe Illustrator 19.2.1, SVG Export Plug-In . SVG Version: 6.00 Build 0)  -->
<svg version="1.1" id="Layer_1" xmlns="http://www.w3.org/2000/svg" xmlns:xlink="http://www.w3.org/1999/xlink" x="0px" y="0px"
	 viewBox="0 0 24 24" style="enable-background:new 0 0 24 24;" xml:space="preserve">
<g id="Adv._Guides">
</g>
<g id="Guides">
</g>
<g id="Artwork">
	<g>
		<polygon points="19,16 19,12 17,12 17,16 13,16 13,18 17,18 17,22 19,22 19,18 23,18 23,16 		"/>
		<path d="M15,10h4V2H1v14c0,1.1,0.9,2,2,2h8v-4h4V10z M7,13H3v-1h4V13z M10,11H3v-1h7V11z M10,9H3V8h7V9z M3,6V4h14v2H3z"/>
	</g>
</g>
</svg>
