<?xml version="1.0" encoding="utf-8"?>
<!-- Generator: Adobe Illustrator 19.1.0, SVG Export Plug-In . SVG Version: 6.00 Build 0)  -->
<svg version="1.1" xmlns="http://www.w3.org/2000/svg" xmlns:xlink="http://www.w3.org/1999/xlink" x="0px" y="0px"
	 viewBox="0 0 24 24" enable-background="new 0 0 24 24" xml:space="preserve">
<g id="Adv._Guides">
</g>
<g id="Guides">
</g>
<g id="Artwork">
	<g id="Layer_1_1_">
	</g>
	<g id="Layer_1_2_">
	</g>
	<g>
		<path d="M9,2L6.8,4.2C6.9,4.4,7,4.7,7,5c0,1.1-0.9,2-2,2C4.7,7,4.4,6.9,4.2,6.8L2,9l13,13l2.2-2.2C17.1,19.6,17,19.3,17,19
			c0-1.1,0.9-2,2-2c0.3,0,0.6,0.1,0.8,0.2L22,15L9,2z M14,18l-8-8l4-4l8,8L14,18z"/>
	</g>
</g>
</svg>
