<?xml version="1.0" encoding="iso-8859-1"?>
<!-- Generator: Adobe Illustrator 18.1.1, SVG Export Plug-In . SVG Version: 6.00 Build 0)  -->
<svg version="1.1" xmlns="http://www.w3.org/2000/svg" xmlns:xlink="http://www.w3.org/1999/xlink" x="0px" y="0px"
	 viewBox="0 0 24 24" style="enable-background:new 0 0 24 24;" xml:space="preserve">
<g id="link-break">
	<path d="M10,11l-2,2H7v-2H10z M19.641,7.36L22,5l-1.5-1.5l-17,17L5,22l9-9h3v-2h-1l2-2c1.103,0,2,0.897,2,2v2c0,1.103-0.897,2-2,2
		h-1h-3.977c0.913,1.208,2.347,2,3.977,2h1c2.209,0,4-1.791,4-4v-2C22,9.377,21.029,7.987,19.641,7.36z M4.36,16.64L6,15
		c-1.103,0-2-0.897-2-2v-2c0-1.103,0.897-2,2-2h1h3.977C10.065,7.792,8.631,7,7,7H6c-2.209,0-4,1.791-4,4v2
		C2,14.623,2.971,16.013,4.36,16.64z"/>
</g>
<g id="Layer_1">
</g>
</svg>
