<?xml version="1.0" encoding="iso-8859-1"?>
<!-- Generator: Adobe Illustrator 18.1.1, SVG Export Plug-In . SVG Version: 6.00 Build 0)  -->
<svg version="1.1" xmlns="http://www.w3.org/2000/svg" xmlns:xlink="http://www.w3.org/1999/xlink" x="0px" y="0px"
	 viewBox="0 0 24 24" style="enable-background:new 0 0 24 24;" xml:space="preserve">
<g id="add-outline">
	<g>
		<path d="M12,4c4.411,0,8,3.589,8,8s-3.589,8-8,8s-8-3.589-8-8S7.589,4,12,4 M12,2C6.477,2,2,6.477,2,12s4.477,10,10,10
			s10-4.477,10-10S17.523,2,12,2L12,2z"/>
		<polygon points="17,11 13,11 13,7 11,7 11,11 7,11 7,13 11,13 11,17 13,17 13,13 17,13 		"/>
	</g>
</g>
<g id="Layer_1">
</g>
</svg>
