<?xml version="1.0" encoding="iso-8859-1"?>
<!-- Generator: Adobe Illustrator 19.1.0, SVG Export Plug-In . SVG Version: 6.00 Build 0)  -->
<svg version="1.1" xmlns="http://www.w3.org/2000/svg" xmlns:xlink="http://www.w3.org/1999/xlink" x="0px" y="0px"
	 viewBox="0 0 24 24" style="enable-background:new 0 0 24 24;" xml:space="preserve">
<g id="image-multiple">
	<rect x="0" style="fill:none;" width="24" height="24"/>
	<path d="M15,7.5C15,6.672,15.672,6,16.5,6C17.328,6,18,6.672,18,7.5S17.328,9,16.5,9C15.672,9,15,8.328,15,7.5z M4,20h14v0
		c0,1.105-0.895,2-2,2H4c-1.1,0-2-0.9-2-2V8c0-1.105,0.895-2,2-2h0V20z M22,4v12c0,1.105-0.895,2-2,2H8c-1.105,0-2-0.895-2-2V4
		c0-1.105,0.895-2,2-2h12C21.105,2,22,2.895,22,4z M8,4v6.333L11,7l4.855,5.395l0.656-0.731c0.795-0.885,2.182-0.885,2.976,0
		L20,12.234V4H8z"/>
</g>
<g id="Layer_1">
</g>
</svg>
