<?xml version="1.0" encoding="iso-8859-1"?>
<!-- Generator: Adobe Illustrator 21.1.0, SVG Export Plug-In . SVG Version: 6.00 Build 0)  -->
<svg version="1.1" xmlns="http://www.w3.org/2000/svg" xmlns:xlink="http://www.w3.org/1999/xlink" x="0px" y="0px"
	 viewBox="0 0 24 24" style="enable-background:new 0 0 24 24;" xml:space="preserve">
<g id="heading-h5">
	<path d="M14.09,14.19c0.352,0.269,0.73,0.5,1.13,0.69c0.419,0.196,0.877,0.296,1.34,0.29c0.509,0.014,1.011-0.125,1.44-0.4
		c0.378-0.253,0.594-0.686,0.57-1.14c0.019-0.45-0.197-0.877-0.57-1.13c-0.406-0.274-0.89-0.411-1.38-0.39h-0.47
		c-0.135,0.014-0.269,0.041-0.4,0.08l-0.41,0.15l-0.48,0.23L13.84,12l0.28-5h6.4v1.92h-4.31L16,10.76
		c0.222-0.077,0.449-0.138,0.68-0.18c0.235-0.037,0.472-0.054,0.71-0.05c0.463-0.004,0.924,0.057,1.37,0.18
		c0.411,0.115,0.798,0.305,1.14,0.56c0.33,0.248,0.597,0.57,0.78,0.94c0.212,0.422,0.322,0.888,0.32,1.36
		c0.007,0.497-0.11,0.989-0.34,1.43c-0.224,0.417-0.534,0.782-0.91,1.07c-0.393,0.3-0.837,0.527-1.31,0.67
		c-0.497,0.164-1.016,0.252-1.54,0.26c-0.788,0.023-1.573-0.109-2.31-0.39c-0.584-0.238-1.122-0.577-1.59-1L14.09,14.19z M11,17H9
		v-4H5v4H3V7h2v4h4V7h2V17z"/>
</g>
<g id="Layer_1">
</g>
</svg>
