<?xml version="1.0" encoding="utf-8"?>
<!-- Generator: Adobe Illustrator 18.1.1, SVG Export Plug-In . SVG Version: 6.00 Build 0)  -->
<svg version="1.1" id="Layer_1" xmlns="http://www.w3.org/2000/svg" xmlns:xlink="http://www.w3.org/1999/xlink" x="0px" y="0px"
	 viewBox="0 0 595.3 841.9" enable-background="new 0 0 595.3 841.9" xml:space="preserve">
<g id="Adv._Guides">
</g>
<g id="Guides">
</g>
<g id="Artwork">
	<path fill="none" d="M0,123.3h595.3v595.3H0V123.3z"/>
	<path fill="none" d="M-421.7,143.1"/>
	<path fill="none" d="M-421.7,669"/>
	<g>
		<path d="M99.2,272.1v-99.2H49.6v173.6h173.6v-49.6h-79.4l0,0c34.7-44.6,91.8-74.4,153.8-74.4c109.1,0,198.4,89.3,198.4,198.4
			s-89.3,198.4-198.4,198.4S99.2,530.1,99.2,420.9c0-7.4,0-17.4,2.5-24.8H52.1c-2.5,7.4-2.5,17.4-2.5,24.8
			c0,136.4,111.6,248,248,248s248-111.6,248-248s-111.6-248-248-248C215.8,172.9,143.9,212.6,99.2,272.1L99.2,272.1z"/>
		<polygon points="272.8,296.9 272.8,428.4 352.2,535 391.9,505.3 322.4,413.5 322.4,296.9 		"/>
		<path d="M391.9,505.3L391.9,505.3L391.9,505.3z"/>
	</g>
</g>
</svg>
