<?xml version="1.0" encoding="iso-8859-1"?>
<!-- Generator: Adobe Illustrator 21.1.0, SVG Export Plug-In . SVG Version: 6.00 Build 0)  -->
<svg version="1.1" xmlns="http://www.w3.org/2000/svg" xmlns:xlink="http://www.w3.org/1999/xlink" x="0px" y="0px"
	 viewBox="0 0 24 24" style="enable-background:new 0 0 24 24;" xml:space="preserve">
<g id="heading-h2">
	<path d="M9,7h2v10H9v-4H5v4H3V7h2v4h4V7z M17,15c0.51-0.41,0.6-0.62,1.06-1.05c0.437-0.4,0.848-0.828,1.23-1.28
		c0.334-0.391,0.619-0.821,0.85-1.28c0.199-0.39,0.305-0.822,0.31-1.26c0.005-0.441-0.087-0.878-0.27-1.28
		c-0.177-0.385-0.437-0.726-0.76-1c-0.346-0.283-0.743-0.497-1.17-0.63c-0.485-0.153-0.991-0.227-1.5-0.22
		c-0.359,0-0.717,0.033-1.07,0.1c-0.343,0.061-0.678,0.158-1,0.29c-0.304,0.131-0.593,0.295-0.86,0.49
		C13.533,8.09,13.259,8.317,13,8.56l1.24,1.22c0.308-0.268,0.643-0.502,1-0.7c0.35-0.201,0.747-0.304,1.15-0.3
		c0.455-0.029,0.906,0.106,1.27,0.38c0.311,0.278,0.477,0.684,0.45,1.1c-0.014,0.396-0.139,0.781-0.36,1.11
		c-0.285,0.453-0.621,0.872-1,1.25c-0.44,0.43-0.98,0.92-1.59,1.43c-0.61,0.51-1.41,1.06-2.16,1.65V17h8v-2H17z"/>
</g>
<g id="Layer_1">
</g>
</svg>
