<?xml version="1.0" encoding="iso-8859-1"?>
<!-- Generator: Adobe Illustrator 18.1.1, SVG Export Plug-In . SVG Version: 6.00 Build 0)  -->
<svg version="1.1" xmlns="http://www.w3.org/2000/svg" xmlns:xlink="http://www.w3.org/1999/xlink" x="0px" y="0px"
	 viewBox="0 0 24 24" style="enable-background:new 0 0 24 24;" xml:space="preserve">
<g id="star-outline">
	<path d="M12,6.308l1.176,3.167l0.347,0.936l0.997,0.041l3.374,0.139l-2.647,2.092l-0.784,0.62l0.27,0.962l0.911,3.249l-2.814-1.871
		L12,15.09l-0.83,0.552l-2.814,1.871l0.911-3.249l0.27-0.962l-0.784-0.62L6.105,10.59l3.374-0.139l0.997-0.041l0.347-0.936L12,6.308
		 M12,2L9.418,8.953L2,9.257l5.822,4.602L5.82,21L12,16.891L18.18,21l-2.002-7.141L22,9.257l-7.418-0.305L12,2L12,2z"/>
</g>
<g id="Layer_1">
</g>
</svg>
