<?xml version="1.0" encoding="iso-8859-1"?>
<!-- Generator: Adobe Illustrator 19.0.0, SVG Export Plug-In . SVG Version: 6.00 Build 0)  -->
<svg version="1.1" xmlns="http://www.w3.org/2000/svg" xmlns:xlink="http://www.w3.org/1999/xlink" x="0px" y="0px"
	 viewBox="0 0 24 24" style="enable-background:new 0 0 24 24;" xml:space="preserve">
<g id="layout-blocks">
	<path d="M21,7h-2V3c0-1.105-0.895-2-2-2H7C5.895,1,5,1.895,5,3v2H3C1.895,5,1,5.895,1,7v4c0,1.105,0.895,2,2,2h2v8
		c0,1.105,0.895,2,2,2h10c1.105,0,2-0.895,2-2v-2h2c1.105,0,2-0.895,2-2V9C23,7.895,22.105,7,21,7z M17,21H7v-8h2
		c1.105,0,2-0.895,2-2V7c0-1.105-0.895-2-2-2H7V3h10v4h-2c-1.105,0-2,0.895-2,2v8c0,1.105,0.895,2,2,2h2V21z M21,17h-6V9h6V17z"/>
</g>
<g id="Layer_1">
</g>
</svg>
