<?xml version="1.0" encoding="iso-8859-1"?>
<!-- Generator: Adobe Illustrator 18.1.0, SVG Export Plug-In . SVG Version: 6.00 Build 0)  -->
<svg version="1.1" xmlns="http://www.w3.org/2000/svg" xmlns:xlink="http://www.w3.org/1999/xlink" x="0px" y="0px"
	 viewBox="0 0 24 24" enable-background="new 0 0 24 24" xml:space="preserve">
<g id="Structural_Icons">
	<g id="minus">
	</g>
	<g id="minus-small">
	</g>
	<g id="plus_1_">
	</g>
	<g id="plus-small">
	</g>
	<g id="ellipsis">
	</g>
	<g id="checkmark">
	</g>
	<g id="menu">
	</g>
	<g id="cross">
	</g>
	<g id="arrow">
	</g>
</g>
<g id="Form_Icons">
	<g id="attachment">
	</g>
</g>
<g id="Status_Icons">
	<g id="bell">
	</g>
</g>
<g id="Action_Icons">
	<path fill="#58595B" d="M17.988,17H6.01c-2.477,0-4.492-2.016-4.492-4.493c0-1.953,1.29-3.666,3.102-4.258
		c0.347-1.298,1.51-2.232,2.888-2.232c0.731,0,1.394,0.237,1.914,0.64c0.817-0.985,2.129-1.638,3.576-1.638
		c1.964,0,3.447,1.131,4.128,3.081c0.283-0.058,0.572-0.087,0.862-0.087c2.479,0,4.494,2.016,4.494,4.494
		C22.482,14.984,20.467,17,17.988,17z M7.508,8.017c-0.549,0-0.996,0.447-0.996,0.996l-0.855,1.041
		c-1.219,0.174-2.139,1.228-2.139,2.453C3.518,13.882,4.636,15,6.01,15h11.979c1.375,0,2.494-1.118,2.494-2.493
		c0-1.532-1.427-2.77-2.967-2.444c0.024,0.297,0.035,0.602,0.035,0.917h-2c-0.006-0.129-0.078-1.097-0.112-1.451
		c-0.274-1.643-1.098-2.51-2.44-2.51c-1.28,0-2.445,0.93-2.445,1.951h-2C8.553,8.344,8.027,8.017,7.508,8.017z"/>
</g>
<g id="Navigation_Icons">
</g>
<g id="PLAYGROUND">
</g>
</svg>
