<?xml version="1.0" encoding="iso-8859-1"?>
<!-- Generator: Adobe Illustrator 19.1.0, SVG Export Plug-In . SVG Version: 6.00 Build 0)  -->
<svg version="1.1" xmlns="http://www.w3.org/2000/svg" xmlns:xlink="http://www.w3.org/1999/xlink" x="0px" y="0px"
	 viewBox="0 0 24 24" style="enable-background:new 0 0 24 24;" xml:space="preserve">
<g id="cog">
	<path d="M20,12c0-0.568-0.061-1.122-0.174-1.656l1.834-1.612l-2-3.464l-2.322,0.786c-0.819-0.736-1.787-1.308-2.859-1.657L14,2h-4
		L9.521,4.396c-1.072,0.349-2.04,0.921-2.859,1.657L4.34,5.268l-2,3.464l1.834,1.612C4.061,10.878,4,11.432,4,12
		s0.061,1.122,0.174,1.656L2.34,15.268l2,3.464l2.322-0.786c0.819,0.736,1.787,1.308,2.859,1.657L10,22h4l0.479-2.396
		c1.072-0.349,2.039-0.921,2.859-1.657l2.322,0.786l2-3.464l-1.834-1.612C19.939,13.122,20,12.568,20,12z M12,16
		c-2.209,0-4-1.791-4-4c0-2.209,1.791-4,4-4c2.209,0,4,1.791,4,4C16,14.209,14.209,16,12,16z"/>
</g>
<g id="Layer_1">
</g>
</svg>
