<?xml version="1.0" encoding="utf-8"?>
<!-- Generator: Adobe Illustrator 19.1.0, SVG Export Plug-In . SVG Version: 6.00 Build 0)  -->
<svg version="1.1" id="Layer_1" xmlns="http://www.w3.org/2000/svg" xmlns:xlink="http://www.w3.org/1999/xlink" x="0px" y="0px"
	 viewBox="0 0 24 24" style="enable-background:new 0 0 24 24;" xml:space="preserve">
<path d="M12,2C6.5,2,2,6.5,2,12c0,0.9,0.1,1.8,0.4,2.7l0.2,0c0.4,0,0.9-0.1,1.3-0.1c-0.3-0.8-0.4-1.7-0.4-2.5c0-1.2,0.3-2.4,0.7-3.5
	l2.1,5.8c0.8-0.1,1.7-0.1,2.5-0.1L6.8,8c0.5,0,1-0.1,1-0.1c0.5-0.1,0.4-0.7-0.1-0.7c0,0-1.4,0.1-2.3,0.1c-0.2,0-0.3,0-0.5,0
	C6.4,5,9,3.5,12,3.5c2.2,0,4.2,0.8,5.7,2.2c0,0-0.1,0-0.1,0c-0.8,0-1.4,0.7-1.4,1.5c0,0.7,0.4,1.3,0.8,2c0.3,0.6,0.7,1.3,0.7,2.3
	c0,0.7-0.3,1.6-0.6,2.7c0.3,0,0.6,0,0.9,0.1l0.9-2.5c0.5-1.2,0.6-2.2,0.6-3c0-0.3,0-0.6-0.1-0.9c0.7,1.2,1,2.6,1,4.1
	c0,0.9-0.1,1.7-0.4,2.5c0.4,0,0.9,0.1,1.3,0.1l0.2,0c0.2-0.9,0.4-1.8,0.4-2.7C22,6.5,17.5,2,12,2z M14.1,7.2c0,0-1.4,0.1-2.3,0.1
	c-0.8,0-2.2-0.1-2.2-0.1c-0.5,0-0.5,0.7-0.1,0.7c0,0,0.4,0.1,0.9,0.1l1.3,3.6l-0.8,2.5c0.3,0,0.5,0,0.8,0l0.5-1.4l0.5,1.4
	c0.9,0,1.7,0,2.6,0.1L13.2,8c0.5,0,1-0.1,1-0.1C14.6,7.9,14.5,7.2,14.1,7.2z M2.7,15.7C2.8,16,3,16.3,3.1,16.6
	c3-0.3,5.9-0.5,8.9-0.5c3,0,5.9,0.2,8.8,0.5c0.2-0.3,0.3-0.6,0.4-0.9c-3.1-0.3-6.1-0.5-9.3-0.5C8.9,15.1,5.8,15.3,2.7,15.7z
	 M12,20.5c-2.7,0-5-1.2-6.6-3.1c-0.6,0-1.2,0.1-1.7,0.2C5.5,20.2,8.5,22,12,22c3.5,0,6.6-1.8,8.3-4.5c-0.6-0.1-1.2-0.1-1.7-0.2
	C17,19.3,14.7,20.5,12,20.5z"/>
</svg>
