<?xml version="1.0" encoding="iso-8859-1"?>
<!-- Generator: Adobe Illustrator 19.0.0, SVG Export Plug-In . SVG Version: 6.00 Build 0)  -->
<svg version="1.1" xmlns="http://www.w3.org/2000/svg" xmlns:xlink="http://www.w3.org/1999/xlink" x="0px" y="0px"
	 viewBox="0 0 24 24" style="enable-background:new 0 0 24 24;" xml:space="preserve">
<g id="themes">
	<path d="M4,6L4,6C2.895,6,2,6.895,2,8v12c0,1.1,0.9,2,2,2h12c1.105,0,2-0.895,2-2v0H4V6z M20,2H8C6.895,2,6,2.895,6,4v12
		c0,1.105,0.895,2,2,2h12c1.105,0,2-0.895,2-2V4C22,2.895,21.105,2,20,2z M15,16H8V9h7V16z M20,16h-3V9h3V16z M20,7H8V4h12V7z"/>
</g>
<g id="Layer_1">
</g>
</svg>
