<?xml version="1.0" encoding="iso-8859-1"?>
<!-- Generator: Adobe Illustrator 19.1.0, SVG Export Plug-In . SVG Version: 6.00 Build 0)  -->
<svg version="1.1" xmlns="http://www.w3.org/2000/svg" xmlns:xlink="http://www.w3.org/1999/xlink" x="0px" y="0px"
	 viewBox="0 0 24 24" style="enable-background:new 0 0 24 24;" xml:space="preserve">
<g id="scheduled">
	<path d="M10.498,18.001l-3.705-3.705l1.415-1.415l2.294,2.294l5.293-5.293l1.415,1.415L10.498,18.001z M21,6v13
		c0,1.104-0.896,2-2,2H5c-1.104,0-2-0.896-2-2V6c0-1.104,0.896-2,2-2h1V2h2v2h8V2h2v2h1C20.104,4,21,4.896,21,6z M19,8H5v11h14V8z"
		/>
</g>
<g id="Layer_1">
</g>
</svg>
