<?xml version="1.0" encoding="iso-8859-1"?>
<!-- Generator: Adobe Illustrator 19.1.0, SVG Export Plug-In . SVG Version: 6.00 Build 0)  -->
<svg version="1.1" xmlns="http://www.w3.org/2000/svg" xmlns:xlink="http://www.w3.org/1999/xlink" x="0px" y="0px"
	 viewBox="0 0 24 24" style="enable-background:new 0 0 24 24;" xml:space="preserve">
<g id="add-image">
	<path d="M23,4v2h-3v3h-2V6h-3V4h3V1h2v3H23z M14.5,11c0.828,0,1.5-0.672,1.5-1.5S15.328,8,14.5,8S13,8.672,13,9.5
		S13.672,11,14.5,11z M18,14.234l-0.513-0.57c-0.794-0.885-2.181-0.885-2.976,0l-0.656,0.731L9,9l-3,3.333V6h7V4H6
		C4.895,4,4,4.895,4,6v12c0,1.105,0.895,2,2,2h12c1.105,0,2-0.895,2-2v-7h-2V14.234z"/>
</g>
<g id="Layer_1">
</g>
</svg>
