<?xml version="1.0" encoding="iso-8859-1"?>
<!-- Generator: Adobe Illustrator 19.1.0, SVG Export Plug-In . SVG Version: 6.00 Build 0)  -->
<svg version="1.1" xmlns="http://www.w3.org/2000/svg" xmlns:xlink="http://www.w3.org/1999/xlink" x="0px" y="0px"
	 viewBox="0 0 24 24" style="enable-background:new 0 0 24 24;" xml:space="preserve">
<g id="user-circle">
	<rect x="0" style="fill:none;" width="24" height="24"/>
	<path d="M12,2C6.477,2,2,6.477,2,12c0,5.523,4.477,10,10,10s10-4.477,10-10C22,6.477,17.523,2,12,2z M12,20.5
		c-4.694,0-8.5-3.806-8.5-8.5c0-4.694,3.806-8.5,8.5-8.5s8.5,3.806,8.5,8.5C20.5,16.694,16.694,20.5,12,20.5z M12,12.5
		c-3.038,0-5.5,1.728-5.5,3.5s2.462,3.5,5.5,3.5s5.5-1.728,5.5-3.5S15.038,12.5,12,12.5z M12,12c1.657,0,3-1.343,3-3
		c0-1.657-1.343-3-3-3S9,7.343,9,9C9,10.657,10.343,12,12,12z"/>
</g>
<g id="Layer_1">
</g>
</svg>
