<?xml version="1.0" encoding="utf-8"?>
<!-- Generator: Adobe Illustrator 18.1.1, SVG Export Plug-In . SVG Version: 6.00 Build 0)  -->
<svg version="1.1" id="Layer_1" xmlns="http://www.w3.org/2000/svg" xmlns:xlink="http://www.w3.org/1999/xlink" x="0px" y="0px"
	 viewBox="0 0 595.3 841.9" enable-background="new 0 0 595.3 841.9" xml:space="preserve">
<g id="Adv._Guides">
</g>
<g id="Guides">
</g>
<g id="Artwork">
	<path fill="none" d="M0,123.3h595.3v595.3H0V123.3z"/>
	<g>
		<polygon points="265.4,487.9 148.8,607 81.9,540 49.6,569.8 148.8,669 297.6,520.2 		"/>
		<path d="M297.6,172.9c-136.4,0-248,111.6-248,248c0,34.7,7.4,69.4,19.8,99.2H124c-14.9-29.8-24.8-62-24.8-99.2
			c0-109.1,89.3-198.4,198.4-198.4s198.4,89.3,198.4,198.4s-89.3,198.4-198.4,198.4c-14.9,0-29.8-2.5-44.6-5l-39.7,39.7
			c27.3,9.9,54.6,14.9,84.3,14.9c136.4,0,248-111.6,248-248S434.1,172.9,297.6,172.9z"/>
		<polygon points="272.8,296.9 272.8,428.4 352.2,535 391.9,505.3 322.4,413.5 322.4,296.9 		"/>
	</g>
</g>
</svg>
