<svg xmlns="http://www.w3.org/2000/svg" viewBox="0 0 24 24"><title>gridicons-heading-h3</title><g id="Artwork"><g id="heading"><path d="M12,17H10V13H6v4H4V7H6v4h4V7h2Z"/></g><path d="M14.94,14.89a3.44,3.44,0,0,0,.84.46,2.46,2.46,0,0,0,.89.18,2.24,2.24,0,0,0,.92-.16.51.51,0,0,0,.36-.48.66.66,0,0,0-.09-.34.71.71,0,0,0-.33-.26,2.45,2.45,0,0,0-.65-.16,8.37,8.37,0,0,0-1-.05V12.81a3.58,3.58,0,0,0,1.45-.21A.63.63,0,0,0,17.7,12a.51.51,0,0,0-.25-.46,1.36,1.36,0,0,0-.71-.15,2.07,2.07,0,0,0-.77.14,3.73,3.73,0,0,0-.74.42l-1-1.11a5,5,0,0,1,1.24-.64,4.2,4.2,0,0,1,1.4-.23,5.22,5.22,0,0,1,1.2.13,3.07,3.07,0,0,1,.92.37,1.75,1.75,0,0,1,.59.6,1.57,1.57,0,0,1,.21.81,1.18,1.18,0,0,1-.36.85,2.72,2.72,0,0,1-1,.61v0a2.85,2.85,0,0,1,1.17.58A1.3,1.3,0,0,1,20,15a1.43,1.43,0,0,1-.26.85,2.18,2.18,0,0,1-.69.62,3.42,3.42,0,0,1-1,.38,5.32,5.32,0,0,1-1.18.13,5.12,5.12,0,0,1-1.7-.25A3.16,3.16,0,0,1,14,16Z"/></g></svg>