<?xml version="1.0" encoding="iso-8859-1"?>
<!-- Generator: Adobe Illustrator 18.1.1, SVG Export Plug-In . SVG Version: 6.00 Build 0)  -->
<svg version="1.1" xmlns="http://www.w3.org/2000/svg" xmlns:xlink="http://www.w3.org/1999/xlink" x="0px" y="0px"
	 viewBox="0 0 24 24" style="enable-background:new 0 0 24 24;" xml:space="preserve">
<g id="not-visible">
	<g>
		<path d="M5.148,15.852l1.453-1.453C5.316,13.621,4.298,12.707,3.621,12c1.04-1.085,2.862-2.657,5.254-3.469
			C8.335,9.213,8,10.063,8,11c0,0.586,0.133,1.139,0.36,1.64l6.318-6.318C13.839,6.121,12.947,6,12,6C5.187,6,1,12,1,12
			S2.497,14.13,5.148,15.852z"/>
		<path d="M18.853,8.147L22,5l-1.5-1.5l-17,17l0,0l0,0L5,22l4.323-4.323C10.164,17.876,11.054,18,12,18c6.812,0,11-6,11-6
			S21.501,9.869,18.853,8.147z M12,16c-0.323,0-0.637-0.022-0.946-0.053L12,15c2.209,0,4-1.791,4-4l1.401-1.401
			c1.289,0.78,2.305,1.699,2.983,2.407C18.942,13.522,15.978,16,12,16z"/>
	</g>
</g>
<g id="Layer_1">
</g>
</svg>
