<?xml version="1.0" encoding="iso-8859-1"?>
<!-- Generator: Adobe Illustrator 18.1.0, SVG Export Plug-In . SVG Version: 6.00 Build 0)  -->
<svg version="1.1" xmlns="http://www.w3.org/2000/svg" xmlns:xlink="http://www.w3.org/1999/xlink" x="0px" y="0px"
	 viewBox="0 0 24 24" enable-background="new 0 0 24 24" xml:space="preserve">
<g id="Structural_Icons">
	<g id="minus">
	</g>
	<g id="minus-small">
	</g>
	<g id="plus_1_">
	</g>
	<g id="plus-small">
	</g>
	<g id="ellipsis">
	</g>
	<g id="checkmark">
	</g>
	<g id="menu">
	</g>
	<g id="cross">
	</g>
	<g id="arrow">
	</g>
</g>
<g id="Form_Icons">
	<g id="attachment">
	</g>
	<path fill="#333333" d="M17.375,13.376c-0.418-0.574-1.092-0.984-2.022-1.231v-0.102c0.705-0.171,1.272-0.554,1.703-1.149
		c0.43-0.595,0.646-1.312,0.646-2.153c0-1.278-0.494-2.22-1.482-2.825c-0.988-0.604-2.5-0.907-4.538-0.907H6V20h6.288
		c1.764,0,3.155-0.392,4.179-1.174C17.488,18.043,18,16.972,18,15.611C18,14.695,17.791,13.95,17.375,13.376z M10,8h1.627
		c1.421,0,2.129,0.47,2.129,1.409c0,0.527-0.177,0.924-0.532,1.191c-0.355,0.267-0.857,0.4-1.505,0.4H10V8z M12.192,17H10v-3h2.114
		c0.613,0,1.08,0.127,1.402,0.381C13.838,14.635,14,15,14,15.475C14,16.492,13.397,17,12.192,17z"/>
</g>
<g id="Status_Icons">
	<g id="bell">
	</g>
</g>
<g id="Action_Icons">
</g>
<g id="Navigation_Icons">
</g>
<g id="PLAYGROUND">
</g>
</svg>
