<?xml version="1.0" encoding="iso-8859-1"?>
<!-- Generator: Adobe Illustrator 18.1.1, SVG Export Plug-In . SVG Version: 6.00 Build 0)  -->
<svg version="1.1" xmlns="http://www.w3.org/2000/svg" xmlns:xlink="http://www.w3.org/1999/xlink" x="0px" y="0px"
	 viewBox="0 0 24 24" style="enable-background:new 0 0 24 24;" xml:space="preserve">
<g id="redo">
	<g>
		<path d="M18,6v3.561c-0.047-0.046-0.099-0.098-0.145-0.143c-0.998-0.982-1.874-1.846-3.136-3.152
			c-1.826-1.891-3.991-2.637-6.101-2.099C6.615,4.679,5.016,6.293,4.443,8.379c-0.606,2.214,0.067,4.506,1.85,6.288l5,5l1.414-1.414
			l-5-5C5.982,11.528,6.131,9.79,6.372,8.907c0.377-1.373,1.453-2.474,2.742-2.803c1.383-0.352,2.86,0.197,4.166,1.55
			c1.276,1.322,2.162,2.194,3.172,3.189c0.051,0.05,0.108,0.106,0.159,0.157H13v2h7V6H18z"/>
	</g>
</g>
<g id="Layer_1">
</g>
</svg>
