<?xml version="1.0" encoding="iso-8859-1"?>
<!-- Generator: Adobe Illustrator 18.1.1, SVG Export Plug-In . SVG Version: 6.00 Build 0)  -->
<svg version="1.1" xmlns="http://www.w3.org/2000/svg" xmlns:xlink="http://www.w3.org/1999/xlink" x="0px" y="0px"
	 viewBox="0 0 24 24" style="enable-background:new 0 0 24 24;" xml:space="preserve">
<g id="link-break">
	<path d="M4.359,16.64C2.971,16.013,2,14.623,2,13v-2c0-2.209,1.791-4,4-4h1c1.631,0,3.065,1,3.977,2H7H6c-1.103,0-2,0.897-2,2v2
		c0,1.103,0.897,2,2,2L4.359,16.64z M7,13h1l2-2H7V13z M19.641,7.36L22,5l-1.5-1.5L17,7l-2,2l-2,2l-2,2l-2,2l-2,2l-3.5,3.5L5,22l9-9
		h3v-2h-1l2-2c1.103,0,2,0.897,2,2v2c0,1.103-0.897,2-2,2h-1h-3.977c0.913,1.208,2.347,2,3.977,2h1c2.209,0,4-1.791,4-4v-2
		C22,9.377,21.029,7.987,19.641,7.36z"/>
</g>
<g id="Layer_1">
</g>
</svg>
