<?xml version="1.0" encoding="iso-8859-1"?>
<!-- Generator: Adobe Illustrator 19.1.0, SVG Export Plug-In . SVG Version: 6.00 Build 0)  -->
<svg version="1.1" xmlns="http://www.w3.org/2000/svg" xmlns:xlink="http://www.w3.org/1999/xlink" x="0px" y="0px"
	 viewBox="0 0 24 24" style="enable-background:new 0 0 24 24;" xml:space="preserve">
<g id="image">
	<rect x="0" style="fill:none;" width="24" height="24"/>
	<path d="M13,9.5C13,8.672,13.672,8,14.5,8S16,8.672,16,9.5S15.328,11,14.5,11S13,10.328,13,9.5z M22,6v12c0,1.105-0.895,2-2,2H4
		c-1.105,0-2-0.895-2-2V6c0-1.105,0.895-2,2-2h16C21.105,4,22,4.895,22,6z M20,6H4v7.444L8,9l5.895,6.55l1.587-1.851
		c0.798-0.931,2.239-0.931,3.037,0L20,15.427V6z"/>
</g>
<g id="Layer_1">
</g>
</svg>
