<?xml version="1.0" encoding="iso-8859-1"?>
<!-- Generator: Adobe Illustrator 19.1.0, SVG Export Plug-In . SVG Version: 6.00 Build 0)  -->
<svg version="1.1" xmlns="http://www.w3.org/2000/svg" xmlns:xlink="http://www.w3.org/1999/xlink" x="0px" y="0px"
	 viewBox="0 0 24 24" style="enable-background:new 0 0 24 24;" xml:space="preserve">
<g id="custom-post-type">
	<rect x="0" style="fill:none;" width="24" height="24"/>
	<path d="M19,3H5C3.895,3,3,3.895,3,5v14c0,1.105,0.895,2,2,2h14c1.105,0,2-0.895,2-2V5C21,3.895,20.105,3,19,3z M6,6h5v5H6V6z
		 M10.5,19C9.119,19,8,17.881,8,16.5S9.119,14,10.5,14c1.381,0,2.5,1.119,2.5,2.5S11.881,19,10.5,19z M13.5,13l3-5l3,5H13.5z"/>
</g>
<g id="Layer_1">
</g>
</svg>
