<?xml version="1.0" encoding="utf-8"?>
<!-- Generator: Adobe Illustrator 19.2.1, SVG Export Plug-In . SVG Version: 6.00 Build 0)  -->
<svg version="1.1" xmlns="http://www.w3.org/2000/svg" xmlns:xlink="http://www.w3.org/1999/xlink" x="0px" y="0px"
	 viewBox="0 0 24 24" enable-background="new 0 0 24 24" xml:space="preserve">
<g id="Adv._Guides">
</g>
<g id="Guides">
</g>
<g id="Artwork">
	<g>
		<polygon points="20,16 20,13 18,13 18,16 15,16 15,18 18,18 18,21 20,21 20,18 23,18 23,16 		"/>
		<path d="M16,11h4V2H2v14c0,1.1,0.9,2,2,2h9v-4h3V11z M8,13H4v-1h4V13z M11,11H4v-1h7V11z M11,9H4V8h7V9z M4,6V4h14v2H4z"/>
	</g>
</g>
</svg>
