<?xml version="1.0" encoding="iso-8859-1"?>
<!-- Generator: Adobe Illustrator 18.1.1, SVG Export Plug-In . SVG Version: 6.00 Build 0)  -->
<svg version="1.1" xmlns="http://www.w3.org/2000/svg" xmlns:xlink="http://www.w3.org/1999/xlink" x="0px" y="0px"
	 viewBox="0 0 24 24" style="enable-background:new 0 0 24 24;" xml:space="preserve">
<g id="list-checkmark">
	<path d="M9.5,15.5L5,20l-2.5-2.5l1.061-1.061L5,17.879l3.439-3.439L9.5,15.5z M10,5v2h11V5H10z M10,19h11v-2H10V19z M10,13h11v-2
		H10V13z M5,15 M8.439,8.439L5,11.879l-1.439-1.439L2.5,11.5L5,14l4.5-4.5L8.439,8.439z M8.439,2.439L5,5.879L3.561,4.439L2.5,5.5
		L5,8l4.5-4.5L8.439,2.439z"/>
</g>
<g id="Layer_1">
</g>
</svg>
