<?xml version="1.0" encoding="utf-8"?>
<!-- Generator: Adobe Illustrator 19.1.0, SVG Export Plug-In . SVG Version: 6.00 Build 0)  -->
<!DOCTYPE svg PUBLIC "-//W3C//DTD SVG 1.1//EN" "http://www.w3.org/Graphics/SVG/1.1/DTD/svg11.dtd">
<svg version="1.1" xmlns="http://www.w3.org/2000/svg" xmlns:xlink="http://www.w3.org/1999/xlink" x="0px" y="0px"
	 viewBox="0 0 24 24" enable-background="new 0 0 24 24" xml:space="preserve">
<g id="Adv._Guides">
</g>
<g id="Guides">
</g>
<g id="speaker">
	<g>
		<defs>
			<path id="SVGID_1_" d="M14,5c1-1,2-1,2-1v16c0,0-1,0-2-1V5z M16,20c1.1,0,2-0.9,2-2h-2V20z M16,6h2c0-1.1-0.9-2-2-2V6z M16,6h2
				v12h-2V6z M2,10c0-1.1,0.9-2,2-2h7l3-3v14c0,0-3-3-3-3H4c-1.1,0-2-0.9-2-2V10z M9,19v-3H5v3c0,1.1,0.9,2,2,2S9,20.1,9,19z M20,14
				c1.1,0,2-0.9,2-2s-0.9-2-2-2v2V14z"/>
		</defs>
		<clipPath id="SVGID_2_">
			<use xlink:href="#SVGID_1_"  overflow="visible"/>
		</clipPath>
		<rect x="-3" y="-1" clip-path="url(#SVGID_2_)" width="30" height="27"/>
	</g>
</g>
</svg>
