<?xml version="1.0" encoding="iso-8859-1"?>
<!-- Generator: Adobe Illustrator 16.0.4, SVG Export Plug-In . SVG Version: 6.00 Build 0)  -->
<!DOCTYPE svg PUBLIC "-//W3C//DTD SVG 1.1//EN" "http://www.w3.org/Graphics/SVG/1.1/DTD/svg11.dtd">
<svg version="1.1" xmlns="http://www.w3.org/2000/svg" xmlns:xlink="http://www.w3.org/1999/xlink" x="0px" y="0px" width="24px"
	 height="24px" viewBox="0 0 24 24" style="enable-background:new 0 0 24 24;" xml:space="preserve">
<g id="arrow">
</g>
<g id="cross">
</g>
<g id="menu">
</g>
<g id="ellipsis">
</g>
<g id="checkmark">
</g>
<g id="plus">
</g>
<g id="plus_x2013_small">
</g>
<g id="minus">
</g>
<g id="minus-small">
</g>
<g id="label">
	<path style="fill:#808080;" d="M5,12c0-2.209,1.791-4,4-4h2V6H9c-3.313,0-6,2.687-6,6s2.687,6,6,6h2v-2H9C6.791,16,5,14.209,5,12z
		 M15,6h-2v2h2c2.209,0,4,1.791,4,4s-1.791,4-4,4h-2v2h2c3.313,0,6-2.687,6-6S18.313,6,15,6z M8,12c0,0.553,0.447,1,1,1h6
		c0.553,0,1-0.447,1-1s-0.447-1-1-1H9C8.447,11,8,11.447,8,12z"/>
</g>
<g id="Layer_11">
</g>
<g id="attachment">
</g>
<g id="Layer_13">
</g>
</svg>
