<?xml version="1.0" encoding="utf-8"?>
<!-- Generator: Adobe Illustrator 19.1.0, SVG Export Plug-In . SVG Version: 6.00 Build 0)  -->
<svg version="1.1" xmlns="http://www.w3.org/2000/svg" xmlns:xlink="http://www.w3.org/1999/xlink" x="0px" y="0px"
	 viewBox="0 0 24 24" enable-background="new 0 0 24 24" xml:space="preserve">
<g id="Adv._Guides">
</g>
<g id="Guides">
</g>
<g id="Artwork">
	<path d="M9,16h6v2H9V16z M22,17h-3v3c0,1.1-0.9,2-2,2H7c-1.1,0-2-0.9-2-2v-3H2V9c0-1.1,0.9-2,2-2h1V5c0-1.1,0.9-2,2-2h10
		c1.1,0,2,0.9,2,2v2h1c1.1,0,2,0.9,2,2V17z M7,7h10V5H7V7z M17,14H7v6h10V14z M20,10.5C20,9.7,19.3,9,18.5,9S17,9.7,17,10.5
		s0.7,1.5,1.5,1.5S20,11.3,20,10.5z"/>
</g>
</svg>
