<?xml version="1.0" encoding="iso-8859-1"?>
<!DOCTYPE svg PUBLIC "-//W3C//DTD SVG 1.1//EN" "http://www.w3.org/Graphics/SVG/1.1/DTD/svg11.dtd">
<svg version="1.1" xmlns="http://www.w3.org/2000/svg" xmlns:xlink="http://www.w3.org/1999/xlink" x="0px" y="0px" width="24px"
	 height="24px" viewBox="0 0 24 24" style="enable-background:new 0 0 24 24;" xml:space="preserve">

<g id="arrow">
	<polygon points="20,11 6.414,11 12.707,4.707 11.293,3.293 2.586,12 11.293,20.707 12.707,19.293 6.414,13 
		20,13 	"/>
</g>

<g id="attachment">
	<path d="M14,1c-2.762,0-5,2.238-5,5v10c0,1.657,1.343,3,3,3s3-1.343,3-3V6h-2v10c0,0.553-0.447,1-1,1
		s-1-0.447-1-1V6c0-1.657,1.343-3,3-3s3,1.343,3,3v10c0,2.762-2.238,5-5,5s-5-2.238-5-5v-5H5v5c0,3.866,3.134,7,7,7s7-3.134,7-7V6
		C19,3.238,16.762,1,14,1z"/>
</g>

<g id="backspace">
	<path d="M19,7H8l-5,5l5,5h11c1.104,0,2-0.896,2-2V9C21,7.896,20.104,7,19,7z M18.354,13.646l-0.707,0.707
		L16,12.707l-1.646,1.646l-0.707-0.707L15.293,12l-1.646-1.646l0.707-0.707L16,11.293l1.646-1.646l0.707,0.707L16.707,12
		L18.354,13.646z"/>
</g>

</svg>