<svg viewBox="0 0 24 24" xmlns="http://www.w3.org/2000/svg"><symbol viewBox="0 0 24 24" id="gridicon-arrow"><title>arrow</title> <g id="svgstorec3fb7e4be44a33ae742543b2fa59f0a7Structural_Icons">         <g id="svgstorec3fb7e4be44a33ae742543b2fa59f0a7arrow"> <polyline style="fill:none;stroke:#58595B;stroke-width:2;stroke-miterlimit:10;" points="12,4 4,12 12,20 		"/> <line style="fill:none;stroke:#58595B;stroke-width:2;stroke-miterlimit:10;" x1="20" y1="12" x2="4" y2="12"/> </g> </g> <g id="svgstorec3fb7e4be44a33ae742543b2fa59f0a7Form_Icons">  </g> <g id="svgstorec3fb7e4be44a33ae742543b2fa59f0a7Status_Icons">  </g>    </symbol><symbol viewBox="0 0 24 24" id="gridicon-attachment"><title>attachment</title> <g id="svgstored93a913f4f713c2dd5080a2535529033Structural_Icons">          </g> <g id="svgstored93a913f4f713c2dd5080a2535529033Form_Icons"> <g id="svgstored93a913f4f713c2dd5080a2535529033attachment"> <path style="fill:#58595B;" d="M14,1c-2.762,0-5,2.238-5,5v10c0,1.657,1.343,3,3,3s2.99-1.343,2.99-3V6H13v10c0,0.553-0.447,1-1,1
			s-1-0.447-1-1V6c0-1.657,1.343-3,3-3s3,1.343,3,3v10.125C17,18.887,14.762,21,12,21s-5-2.238-5-5v-5H5v5c0,3.866,3.134,7,7,7
			s6.99-3.134,6.99-7V6C18.99,3.238,16.762,1,14,1z"/> </g> </g> <g id="svgstored93a913f4f713c2dd5080a2535529033Status_Icons">  </g>    </symbol><symbol viewBox="0 0 24 24" id="gridicon-backspace"><title>backspace</title> <g id="svgstore7af7b9f9ab6f8827c0a7723a51034a46Structural_Icons">          </g> <g id="svgstore7af7b9f9ab6f8827c0a7723a51034a46Form_Icons">  <path style="fill:#58595B;" d="M19,7H8l-5,5l5,5h11c1.104,0,2-0.896,2-2V9C21,7.896,20.104,7,19,7z M18.354,13.646l-0.707,0.707
		L16,12.707l-1.646,1.646l-0.707-0.707L15.293,12l-1.646-1.646l0.707-0.707L16,11.293l1.646-1.646l0.707,0.707L16.707,12
		L18.354,13.646z"/> </g> <g id="svgstore7af7b9f9ab6f8827c0a7723a51034a46Status_Icons">  </g>    </symbol><symbol viewBox="0 0 24 24" id="gridicon-bell-dot"><title>bell-dot</title> <g id="svgstore03191c9d2901847c8204e2cdf4823633Structural_Icons">          </g> <g id="svgstore03191c9d2901847c8204e2cdf4823633Form_Icons">  </g> <g id="svgstore03191c9d2901847c8204e2cdf4823633Status_Icons"> <g id="svgstore03191c9d2901847c8204e2cdf4823633bell"> <circle style="fill-rule:evenodd;clip-rule:evenodd;fill:#58595B;" cx="10.844" cy="5.531" r="2.844"/> </g> </g>    </symbol><symbol viewBox="0 0 24 24" id="gridicon-bell"><title>bell</title> <g id="svgstore75b39404a8654cdba8e0236479aacb3aStructural_Icons">          </g> <g id="svgstore75b39404a8654cdba8e0236479aacb3aForm_Icons">  </g> <g id="svgstore75b39404a8654cdba8e0236479aacb3aStatus_Icons"> <g id="svgstore75b39404a8654cdba8e0236479aacb3abell"> <path style="fill-rule:evenodd;clip-rule:evenodd;fill:#58595B;" d="M5.858,18.141c0.613,0.613,1.598,0.625,2.197,0.024
			c0.222-0.222,0.188-0.919,0.188-0.919l-1.476-1.471c0,0-0.67-0.096-0.935,0.169C5.234,16.544,5.245,17.527,5.858,18.141z
			 M19.102,4.972c-2.222-2.221-6.178-2.708-8.595-0.29C9.022,6.165,5.973,9.216,5.973,9.216S3.453,8.968,3.051,9.37
			C2.648,9.773,3.629,11.56,3.629,11.56l8.885,8.885l2.121,0.51l0.154-2.785l4.603-4.603C21.841,11.117,21.125,7,19.102,4.972z"/> </g> </g>    </symbol><symbol viewBox="0 0 24 24" id="gridicon-block"><title>block</title> <g id="svgstore65777173b96868e65941ab3967ea68d5Structural_Icons">          </g> <g id="svgstore65777173b96868e65941ab3967ea68d5Form_Icons">  </g> <g id="svgstore65777173b96868e65941ab3967ea68d5Status_Icons">  <path style="fill:#58595B;" d="M12,4c-4.419,0-8,3.582-8,8s3.581,8,8,8c4.418,0,8-3.582,8-8S16.418,4,12,4z M6,12
		c0-3.313,2.686-6,6-6c1.295,0,2.491,0.415,3.473,1.113l-8.359,8.359C6.415,14.492,6,13.296,6,12z M12,18
		c-1.295,0-2.492-0.415-3.473-1.113l8.359-8.359C17.585,9.509,18,10.705,18,12C18,15.313,15.313,18,12,18z"/> </g>    </symbol><symbol viewBox="0 0 24 24" id="gridicon-bold"><title>bold</title> <g id="svgstorec020fadb1334f1fd1c8c760f360c71cfStructural_Icons">          </g> <g id="svgstorec020fadb1334f1fd1c8c760f360c71cfForm_Icons">  <g> <path style="fill:#58595B;" d="M8,6h3.423c1.561,0,2.692,0.222,3.398,0.666c0.704,0.443,1.056,1.149,1.056,2.117
			c0,0.657-0.153,1.196-0.462,1.617c-0.309,0.422-0.719,0.675-1.23,0.761v0.075c0.697,0.155,1.2,0.446,1.509,0.873
			c0.309,0.426,0.463,0.993,0.463,1.7c0,1.003-0.362,1.785-1.088,2.348C14.345,16.719,13.359,17,12.115,17H8V6z M10.333,10.356
			h1.354c0.633,0,1.09-0.099,1.374-0.294c0.282-0.195,0.425-0.519,0.425-0.97c0-0.422-0.154-0.725-0.463-0.907
			C12.714,8.002,12.226,7.91,11.56,7.91h-1.227V10.356z M10.333,12.206v2.867h1.52c0.642,0,1.115-0.122,1.423-0.369
			c0.305-0.245,0.458-0.621,0.458-1.128c0-0.912-0.652-1.37-1.956-1.37H10.333z"/> </g> </g> <g id="svgstorec020fadb1334f1fd1c8c760f360c71cfStatus_Icons">  </g>    </symbol><symbol viewBox="0 0 24 24" id="gridicon-bookmark"><title>bookmark</title> <g id="svgstore449f8db641b47eb8044454b23bf8f2acStructural_Icons">          </g> <g id="svgstore449f8db641b47eb8044454b23bf8f2acForm_Icons">  </g> <g id="svgstore449f8db641b47eb8044454b23bf8f2acStatus_Icons">  <path style="fill:#58595B;" d="M16,4H8C6.896,4,6,4.896,6,6v14l6-4l6,4V6C18,4.896,17.104,4,16,4z M16,16.263l-2.891-1.927
		L12,13.597l-1.109,0.739L8,16.263V6h8V16.263z"/> </g>    </symbol><symbol viewBox="0 0 24 24" id="gridicon-bookmarked"><title>bookmarked</title> <g id="svgstore516a0fa9c97b2835f8c241ea753081e8Structural_Icons">          </g> <g id="svgstore516a0fa9c97b2835f8c241ea753081e8Form_Icons">  </g> <g id="svgstore516a0fa9c97b2835f8c241ea753081e8Status_Icons">  <path style="fill:#58595B;" d="M16,4H8C6.896,4,6,4.896,6,6v5v2v7l6-4l6,4v-7v-2V6C18,4.896,17.104,4,16,4z"/> </g>    </symbol><symbol viewBox="0 0 24 24" id="gridicon-calendar"><title>calendar</title> <g id="svgstore8d8f43e60d6217fb068af8ccd41dbe8bStructural_Icons">          </g> <g id="svgstore8d8f43e60d6217fb068af8ccd41dbe8bForm_Icons">  <path style="fill:#58595B;" d="M19,4h-1V2h-2v2H8V2H6v2H5C3.896,4,3,4.896,3,6v13c0,1.104,0.896,2,2,2h14c1.104,0,2-0.896,2-2V6
		C21,4.896,20.104,4,19,4z M19,19H5V8h14V19z"/> </g> <g id="svgstore8d8f43e60d6217fb068af8ccd41dbe8bStatus_Icons">  </g>    </symbol><symbol viewBox="0 0 24 24" id="gridicon-camera"><title>camera</title> <g id="svgstorebd6f1c2ced8fd75a0650dc0a7ef4de9eStructural_Icons">          </g> <g id="svgstorebd6f1c2ced8fd75a0650dc0a7ef4de9eForm_Icons">  </g> <g id="svgstorebd6f1c2ced8fd75a0650dc0a7ef4de9eStatus_Icons">  </g> <g id="svgstorebd6f1c2ced8fd75a0650dc0a7ef4de9eAction_Icons"> <path style="fill:#58595B;" d="M18,6h-3l-1-2h-4L9,6H6C4.896,6,4,6.896,4,8v8c0,1.104,0.896,2,2,2h12c1.104,0,2-0.896,2-2V8
		C20,6.896,19.104,6,18,6z M12,16c-2.209,0-4-1.79-4-4s1.791-4,4-4c2.21,0,4,1.79,4,4S14.21,16,12,16z"/> <circle style="opacity:0.5;fill:#58595B;" cx="12" cy="12" r="2"/> </g>   </symbol><symbol viewBox="0 0 24 24" id="gridicon-cell"><title>cell</title> <g id="svgstore68be12189fd8f7dfba204d2202d8c6e9Structural_Icons">          </g> <g id="svgstore68be12189fd8f7dfba204d2202d8c6e9Form_Icons">  </g> <g id="svgstore68be12189fd8f7dfba204d2202d8c6e9Status_Icons">  <path style="fill:#58595B;" d="M16,2H8C6.896,2,6,2.896,6,4v16c0,1.104,0.896,2,2,2h8c1.104,0,2-0.896,2-2V4
		C18,2.896,17.104,2,16,2z M16,18H8V6h8V18z"/> </g>    </symbol><symbol viewBox="0 0 24 24" id="gridicon-checkmark"><title>checkmark</title> <g id="svgstore60bd4e85a17e4abb2b52930e8c151839Structural_Icons">      <g id="svgstore60bd4e85a17e4abb2b52930e8c151839checkmark"> <polyline style="fill:none;stroke:#58595B;stroke-width:2;stroke-miterlimit:10;" points="21,6 9,18 3,12 		"/> </g>    </g> <g id="svgstore60bd4e85a17e4abb2b52930e8c151839Form_Icons">  </g> <g id="svgstore60bd4e85a17e4abb2b52930e8c151839Status_Icons">  </g>    </symbol><symbol viewBox="0 0 24 24" id="gridicon-cloud-download"><title>cloud-download</title> <g id="svgstoref4c6f510937488bf3bb341777c6fbb77Structural_Icons">          </g> <g id="svgstoref4c6f510937488bf3bb341777c6fbb77Form_Icons">  </g> <g id="svgstoref4c6f510937488bf3bb341777c6fbb77Status_Icons">  </g> <g id="svgstoref4c6f510937488bf3bb341777c6fbb77Action_Icons"> <path style="fill:#58595B;" d="M17.988,8.013c-0.289,0-0.576,0.029-0.861,0.088c-0.682-1.951-2.164-3.082-4.129-3.082
		c-1.447,0-2.76,0.652-3.576,1.638c-0.52-0.402-1.184-0.64-1.914-0.64c-1.389,0-2.562,0.951-2.898,2.236
		c-1.809,0.596-3.092,2.306-3.092,4.254C1.518,14.984,3.533,17,6.01,17H10v-4h4v4h3.988c2.479,0,4.494-2.016,4.494-4.493
		C22.482,10.028,20.467,8.013,17.988,8.013z"/> <polyline style="fill:none;stroke:#58595B;stroke-width:2;stroke-miterlimit:10;" points="9,19 12,22 15,19 	"/> <line style="fill:none;stroke:#58595B;stroke-width:2;stroke-miterlimit:10;" x1="12" y1="14" x2="12" y2="22"/> </g>   </symbol><symbol viewBox="0 0 24 24" id="gridicon-cloud-empty"><title>cloud-empty</title> <g id="svgstore8c607f4b7c07927546f346c41caf00b5Structural_Icons">          </g> <g id="svgstore8c607f4b7c07927546f346c41caf00b5Form_Icons">  </g> <g id="svgstore8c607f4b7c07927546f346c41caf00b5Status_Icons">  </g> <g id="svgstore8c607f4b7c07927546f346c41caf00b5Action_Icons"> <path style="fill:none;stroke:#58595B;stroke-width:2;stroke-linejoin:bevel;stroke-miterlimit:10;" d="M7.508,7.017
		c-1.104,0-1.996,0.895-1.996,1.996c0,0.018,0.004,0.033,0.004,0.051c-1.693,0.241-2.998,1.684-2.998,3.443
		C2.518,14.437,4.08,16,6.01,16c0.303,0,11.336,0,11.979,0c1.93,0,3.494-1.563,3.494-3.493s-1.564-3.494-3.494-3.494
		c-0.496,0-0.963,0.113-1.389,0.301c-0.01,0.004-0.178,0.006-0.174,0.041c0.031,0.281,0.125,1.53,0.125,1.625
		c0-3.656-1.672-4.961-3.553-4.961c-1.744,0-3.445,1.289-3.445,2.951C9.553,7.808,8.609,7.017,7.508,7.017z"/> </g>   </symbol><symbol viewBox="0 0 24 24" id="gridicon-cloud-upload"><title>cloud-upload</title> <g id="svgstore8e2fc630d333c27261c5f819850a587aStructural_Icons">          </g> <g id="svgstore8e2fc630d333c27261c5f819850a587aForm_Icons">  </g> <g id="svgstore8e2fc630d333c27261c5f819850a587aStatus_Icons">  </g> <g id="svgstore8e2fc630d333c27261c5f819850a587aAction_Icons"> <path style="fill:#58595B;" d="M17.988,8.013c-0.289,0-0.576,0.029-0.861,0.088c-0.682-1.951-2.164-3.082-4.129-3.082
		c-1.447,0-2.76,0.652-3.576,1.638c-0.52-0.402-1.184-0.64-1.914-0.64c-1.389,0-2.562,0.951-2.898,2.236
		c-1.809,0.596-3.092,2.306-3.092,4.254C1.518,14.984,3.533,17,6.01,17H11v-4v-0.586l-1.293,1.293l-1.414-1.414L12,8.586
		l3.707,3.707l-1.414,1.414L13,12.414V13v4h4.988c2.479,0,4.494-2.016,4.494-4.493C22.482,10.028,20.467,8.013,17.988,8.013z"/> </g>   </symbol><symbol viewBox="0 0 24 24" id="gridicon-cloud"><title>cloud</title> <g id="svgstore6c9b67fe19f81aa6cec2d8fb8b314af4Structural_Icons">          </g> <g id="svgstore6c9b67fe19f81aa6cec2d8fb8b314af4Form_Icons">  </g> <g id="svgstore6c9b67fe19f81aa6cec2d8fb8b314af4Status_Icons">  </g> <g id="svgstore6c9b67fe19f81aa6cec2d8fb8b314af4Action_Icons"> <path style="fill:#58595B;" d="M17.988,8.013c-0.289,0-0.576,0.029-0.861,0.088c-0.682-1.951-2.164-3.082-4.129-3.082
		c-1.447,0-2.76,0.652-3.576,1.638c-0.52-0.402-1.184-0.64-1.914-0.64c-1.389,0-2.562,0.951-2.898,2.236
		c-1.809,0.596-3.092,2.306-3.092,4.254C1.518,14.984,3.533,17,6.01,17h11.979c2.479,0,4.494-2.016,4.494-4.493
		C22.482,10.028,20.467,8.013,17.988,8.013z"/> </g>   </symbol><symbol viewBox="0 0 24 24" id="gridicon-cross"><title>cross</title> <g id="svgstore25a91b7c31a3ac07055509cdbb2e8c17Structural_Icons">        <g id="svgstore25a91b7c31a3ac07055509cdbb2e8c17cross"> <polyline style="fill:none;stroke:#58595B;stroke-width:2;stroke-miterlimit:10;" points="20,4 12,12 20,20 		"/> <polyline style="fill:none;stroke:#58595B;stroke-width:2;stroke-miterlimit:10;" points="4,4 12,12 4,20 		"/> </g>  </g> <g id="svgstore25a91b7c31a3ac07055509cdbb2e8c17Form_Icons">  </g> <g id="svgstore25a91b7c31a3ac07055509cdbb2e8c17Status_Icons">  </g>    </symbol><symbol viewBox="0 0 24 24" id="gridicon-edit"><title>edit</title> <g id="svgstoreafacf4c86c04c1ae0ea218de774221a8Structural_Icons">          </g> <g id="svgstoreafacf4c86c04c1ae0ea218de774221a8Form_Icons">  <path style="fill:#58595B;" d="M4,15v5h5l9-9l-5-5L4,15z M16,3l-2,2l5,5l2-2L16,3z"/> </g> <g id="svgstoreafacf4c86c04c1ae0ea218de774221a8Status_Icons">  </g>    </symbol><symbol viewBox="0 0 24 24" id="gridicon-ellipsis"><title>ellipsis</title> <g id="svgstore22972431a01b0eb40b1dd517985bfdadStructural_Icons">     <g id="svgstore22972431a01b0eb40b1dd517985bfdadellipsis"> <circle style="fill:#58595B;" cx="5" cy="12" r="2"/> <circle style="fill:#58595B;" cx="19" cy="12" r="2"/> <circle style="fill:#58595B;" cx="12" cy="12" r="2"/> </g>     </g> <g id="svgstore22972431a01b0eb40b1dd517985bfdadForm_Icons">  </g> <g id="svgstore22972431a01b0eb40b1dd517985bfdadStatus_Icons">  </g>    </symbol><symbol viewBox="0 0 24 24" id="gridicon-flag"><title>flag</title> <g id="svgstore3bf5bdd417dd48b7f38d807b09f2361fStructural_Icons">          </g> <g id="svgstore3bf5bdd417dd48b7f38d807b09f2361fForm_Icons">  </g> <g id="svgstore3bf5bdd417dd48b7f38d807b09f2361fStatus_Icons">  <polygon style="fill:#58595B;" points="14,7 12,4 5,4 5,20 7,20 7,12 10,12 12,15 20,15 20,7 	"/> </g>    </symbol><symbol viewBox="0 0 24 24" id="gridicon-help"><title>help</title> <g id="svgstore6839f92ef3d7358b2cb8b5bfdb505870Structural_Icons">          </g> <g id="svgstore6839f92ef3d7358b2cb8b5bfdb505870Form_Icons">  </g> <g id="svgstore6839f92ef3d7358b2cb8b5bfdb505870Status_Icons">  <path style="fill:#58595B;" d="M12,4c-4.419,0-8,3.583-8,8c0,4.418,3.581,8,8,8c4.418,0,8-3.582,8-8C20,7.583,16.418,4,12,4z
		 M13,17h-2v-2h2V17z M15.32,10.626c-0.263,0.408-0.675,0.792-1.247,1.155c-0.479,0.312-0.781,0.542-0.906,0.688
		c-0.123,0.144-0.18,0.315-0.18,0.511V13h-2.123v-0.261c0-0.447,0.093-0.83,0.276-1.141c0.185-0.311,0.512-0.611,0.981-0.906
		c0.373-0.234,0.639-0.446,0.805-0.634c0.162-0.188,0.245-0.405,0.245-0.647c0-0.193-0.086-0.348-0.266-0.459
		c-0.175-0.113-0.401-0.17-0.68-0.17c-0.695,0-1.508,0.246-2.438,0.738L8.832,7.646c1.145-0.653,2.34-0.979,3.587-0.979
		c1.023,0,1.834,0.224,2.417,0.674c0.583,0.451,0.872,1.065,0.872,1.842C15.708,9.739,15.578,10.222,15.32,10.626z"/> </g>    </symbol><symbol viewBox="0 0 24 24" id="gridicon-italic"><title>italic</title> <g id="svgstoref4cc4f552fb2c6cf6f2ff5e4cd9cc3d0Structural_Icons">          </g> <g id="svgstoref4cc4f552fb2c6cf6f2ff5e4cd9cc3d0Form_Icons">  <polygon style="fill:#58595B;" points="15.938,8 16.474,6 10.474,6 9.938,8 11.938,8 10.062,15 8.062,15 7.526,17 13.526,17 
		14.062,15 12.062,15 13.938,8 	"/> </g> <g id="svgstoref4cc4f552fb2c6cf6f2ff5e4cd9cc3d0Status_Icons">  </g>    </symbol><symbol viewBox="0 0 24 24" id="gridicon-link"><title>link</title> <g id="svgstore3878fcdee376717d8e453ef8414f7085Structural_Icons">          </g> <g id="svgstore3878fcdee376717d8e453ef8414f7085Form_Icons">  <path style="fill:#58595B;" d="M5,12c0-2.209,1.791-4,4-4h2V6H9c-3.313,0-6,2.687-6,6s2.687,6,6,6h2v-2H9C6.791,16,5,14.209,5,12z
		 M15,6h-2v2h2c2.209,0,4,1.791,4,4s-1.791,4-4,4h-2v2h2c3.313,0,6-2.687,6-6S18.313,6,15,6z M8,12c0,0.553,0.447,1,1,1h6
		c0.553,0,1-0.447,1-1s-0.447-1-1-1H9C8.447,11,8,11.447,8,12z"/> </g> <g id="svgstore3878fcdee376717d8e453ef8414f7085Status_Icons">  </g>    </symbol><symbol viewBox="0 0 24 24" id="gridicon-mail"><title>mail</title> <g id="svgstorea6b5c4d1284e846695b328e389c295d5Structural_Icons">          </g> <g id="svgstorea6b5c4d1284e846695b328e389c295d5Form_Icons">  </g> <g id="svgstorea6b5c4d1284e846695b328e389c295d5Status_Icons">  </g> <g id="svgstorea6b5c4d1284e846695b328e389c295d5Action_Icons"> <path style="fill:#58595B;" d="M4,6v12h16V6H4z M18,10.118l-6,3l-6-3V7.882l6,3l6-3V10.118z"/> </g>   </symbol><symbol viewBox="0 0 24 24" id="gridicon-menu"><title>menu</title> <g id="svgstore3f69b17f4631e785b134d03e764361daStructural_Icons">       <g id="svgstore3f69b17f4631e785b134d03e764361damenu"> <line style="fill:none;stroke:#58595B;stroke-width:2;stroke-miterlimit:10;" x1="21" y1="7" x2="3" y2="7"/> <line style="fill:none;stroke:#58595B;stroke-width:2;stroke-miterlimit:10;" x1="21" y1="17" x2="3" y2="17"/> <line style="fill:none;stroke:#58595B;stroke-width:2;stroke-miterlimit:10;" x1="21" y1="12" x2="3" y2="12"/> </g>   </g> <g id="svgstore3f69b17f4631e785b134d03e764361daForm_Icons">  </g> <g id="svgstore3f69b17f4631e785b134d03e764361daStatus_Icons">  </g>    </symbol><symbol viewBox="0 0 24 24" id="gridicon-microphone"><title>microphone</title> <g id="svgstoreb494275cc058ceb433a0986feab26c43Structural_Icons">          </g> <g id="svgstoreb494275cc058ceb433a0986feab26c43Form_Icons">  </g> <g id="svgstoreb494275cc058ceb433a0986feab26c43Status_Icons">  </g> <g id="svgstoreb494275cc058ceb433a0986feab26c43Action_Icons"> <path style="fill:#58595B;" d="M12,13c1.104,0,2-0.896,2-2V6c0-1.104-0.896-2-2-2s-2,0.896-2,2v5C10,12.104,10.896,13,12,13z
		 M16,11c0,2.209-1.791,4-4,4s-4-1.791-4-4H6c0,2.972,2.164,5.433,5,5.91V20h2v-3.09c2.836-0.478,5-2.938,5-5.91H16z"/> </g>   </symbol><symbol viewBox="0 0 24 24" id="gridicon-minus-small"><title>minus-small</title> <g id="svgstored0a5a3d60e221618d28bcec5e86a0532Structural_Icons">  <g id="svgstored0a5a3d60e221618d28bcec5e86a0532minus-small"> <line style="fill:none;stroke:#58595B;stroke-width:2;stroke-miterlimit:10;" x1="21" y1="12" x2="9" y2="12"/> <line style="fill:none;stroke:#58595B;stroke-width:2;stroke-miterlimit:10;" x1="21" y1="12" x2="9" y2="12"/> </g>        </g> <g id="svgstored0a5a3d60e221618d28bcec5e86a0532Form_Icons">  </g> <g id="svgstored0a5a3d60e221618d28bcec5e86a0532Status_Icons">  </g>    </symbol><symbol viewBox="0 0 24 24" id="gridicon-minus"><title>minus</title> <g id="svgstore493317f24a4ab6dbd5d173a7ed60fcd5Structural_Icons"> <g id="svgstore493317f24a4ab6dbd5d173a7ed60fcd5minus"> <line style="fill:none;stroke:#58595B;stroke-width:2;stroke-miterlimit:10;" x1="21" y1="12" x2="3" y2="12"/> </g>         </g> <g id="svgstore493317f24a4ab6dbd5d173a7ed60fcd5Form_Icons">  </g> <g id="svgstore493317f24a4ab6dbd5d173a7ed60fcd5Status_Icons">  </g>    </symbol><symbol viewBox="0 0 24 24" id="gridicon-note"><title>note</title> <g id="svgstore09539ead3d23b120cadd03cf2feb819dStructural_Icons">          </g> <g id="svgstore09539ead3d23b120cadd03cf2feb819dForm_Icons">  </g> <g id="svgstore09539ead3d23b120cadd03cf2feb819dStatus_Icons">  <path style="fill:#58595B;" d="M12,4c-4.418,0-8,3.582-8,8s3.582,8,8,8s8-3.582,8-8S16.418,4,12,4z M13,17h-2v-2h2V17z M13,13h-2
		l-0.5-6h3L13,13z"/> </g>    </symbol><symbol viewBox="0 0 24 24" id="gridicon-plus-small"><title>plus-small</title> <g id="svgstoref84c6371945f7eed58ed3c907c07ad41Structural_Icons">    <g id="svgstoref84c6371945f7eed58ed3c907c07ad41plus-small"> <line style="fill:none;stroke:#58595B;stroke-width:2;stroke-miterlimit:10;" x1="15" y1="6" x2="15" y2="18"/> <line style="fill:none;stroke:#58595B;stroke-width:2;stroke-miterlimit:10;" x1="21" y1="12" x2="9" y2="12"/> <line style="fill:none;stroke:#58595B;stroke-width:2;stroke-miterlimit:10;" x1="21" y1="12" x2="9" y2="12"/> </g>      </g> <g id="svgstoref84c6371945f7eed58ed3c907c07ad41Form_Icons">  </g> <g id="svgstoref84c6371945f7eed58ed3c907c07ad41Status_Icons">  </g>    </symbol><symbol viewBox="0 0 24 24" id="gridicon-plus"><title>plus</title> <g id="svgstoref1691a98a474b1e2884571fc874b1450Structural_Icons">   <g id="svgstoref1691a98a474b1e2884571fc874b1450plus_1_"> <line style="fill:none;stroke:#58595B;stroke-width:2;stroke-miterlimit:10;" x1="12" y1="3" x2="12" y2="21"/> <line style="fill:none;stroke:#58595B;stroke-width:2;stroke-miterlimit:10;" x1="21" y1="12" x2="3" y2="12"/> </g>       </g> <g id="svgstoref1691a98a474b1e2884571fc874b1450Form_Icons">  </g> <g id="svgstoref1691a98a474b1e2884571fc874b1450Status_Icons">  </g>    </symbol><symbol viewBox="0 0 24 24" id="gridicon-reader"><title>reader</title> <g id="svgstoref4ffbf9842f18db41ecbbe20167300fbStructural_Icons">          </g> <g id="svgstoref4ffbf9842f18db41ecbbe20167300fbForm_Icons">  </g> <g id="svgstoref4ffbf9842f18db41ecbbe20167300fbStatus_Icons">  </g>  <g id="svgstoref4ffbf9842f18db41ecbbe20167300fbNavigation_Icons"> <g style="display:none;"> <path style="display:inline;fill:#CCCCCC;" d="M18.305,18.913h-3.37V20h3.37V18.913z"/> <path style="display:inline;fill:#CCCCCC;" d="M1.261,4v13.913C1.261,19.065,2.195,20,3.348,20h14.261V4H1.261z M16.619,18.261
			h-0.75h-1.435H3.348C3.156,18.261,3,18.104,3,17.913V5.739h12.869v11.152h0.75V18.261z"/> <path style="display:inline;fill:#CCCCCC;" d="M19,8.87v8.72c0,0.37-0.301,0.671-0.671,0.671H18.28
			c-0.37,0-0.672-0.301-0.672-0.671V8.87H19 M20.739,7.13h-4.87V17.59c0,1.331,1.08,2.41,2.411,2.41h0.049
			c1.331,0,2.41-1.079,2.41-2.41V7.13L20.739,7.13z"/> <path style="display:inline;fill:#CCCCCC;" d="M14.131,9.217H4.739V7.478h9.392V9.217z"/> <path style="display:inline;fill:#CCCCCC;" d="M14.131,12.696h-2.783v-1.739h2.783V12.696z"/> <path style="display:inline;fill:#CCCCCC;" d="M14.131,15.826h-2.783v-1.739h2.783V15.826z"/> <path style="display:inline;fill:#CCCCCC;" d="M9.608,15.826H4.739v-4.87h4.869V15.826z"/> <path style="display:inline;fill:#CCCCCC;" d="M18.305,18.913h-3.37V20h3.37V18.913z"/> </g> <g style="display:none;"> <polyline style="display:inline;fill:none;stroke:#CCCCCC;stroke-width:2;stroke-miterlimit:10;" points="19,4 11,12 19,20 		"/> <polyline style="display:inline;fill:none;stroke:#CCCCCC;stroke-width:2;stroke-miterlimit:10;" points="3,4 11,12 3,20 		"/> </g> <path style="fill:#58595B;" d="M18,6V4H2v14c0,1.104,0.896,2,2,2h16c1.104,0,2-0.896,2-2V6H18z M9,16H4v-6h5V16z M16,16h-5v-2h5V16
		z M16,12h-5v-2h5V12z M16,8H4V6h12V8z M20,17c0,0.553-0.447,1-1,1s-1-0.447-1-1V8h2V17z"/> </g>  </symbol><symbol viewBox="0 0 24 24" id="gridicon-redo"><title>redo</title> <g id="svgstore0a3ea127513f2d9e756fe454443bc7ddStructural_Icons">          </g> <g id="svgstore0a3ea127513f2d9e756fe454443bc7ddForm_Icons">  <polyline style="fill:none;stroke:#58595B;stroke-width:2;stroke-miterlimit:10;" points="13,11 19,11 19,5 	"/> <path style="fill:none;stroke:#58595B;stroke-width:2;stroke-miterlimit:10;" d="M19,10.96c-2-2-3.035-2.965-5-5
		c-5.381-5.572-12,2-7,7c3.5,3.5,4,4,5,5"/> <line style="fill:none;stroke:#58595B;stroke-width:2;stroke-miterlimit:10;" x1="13.562" y1="19.5" x2="14.562" y2="20.5"/> </g> <g id="svgstore0a3ea127513f2d9e756fe454443bc7ddStatus_Icons">  </g>    </symbol><symbol viewBox="0 0 24 24" id="gridicon-spam"><title>spam</title> <g id="svgstore86e7ab403510c0134e307322c7de2769Structural_Icons">          </g> <g id="svgstore86e7ab403510c0134e307322c7de2769Form_Icons">  </g> <g id="svgstore86e7ab403510c0134e307322c7de2769Status_Icons">  <path style="fill:#58595B;" d="M16,4H8L4,8v8l4,4h8l4-4V8L16,4z M13,17h-2v-2h2V17z M13,13h-2l-0.5-6h3L13,13z"/> </g>    </symbol><symbol viewBox="0 0 24 24" id="gridicon-tablet"><title>tablet</title> <g id="svgstoref6a308d8e2da31e20321d24bd63ba67bStructural_Icons">          </g> <g id="svgstoref6a308d8e2da31e20321d24bd63ba67bForm_Icons">  </g> <g id="svgstoref6a308d8e2da31e20321d24bd63ba67bStatus_Icons">  <path style="fill:#58595B;" d="M22,18V6c0-1.104-0.896-2-2-2H4C2.896,4,2,4.896,2,6v12c0,1.104,0.896,2,2,2h16
		C21.104,20,22,19.104,22,18z M5,18V6h14v12H5z"/> </g>    </symbol><symbol viewBox="0 0 24 24" id="gridicon-tag"><title>tag</title> <g id="svgstore391682d684ce03345fb8186e25aabcfcStructural_Icons">          </g> <g id="svgstore391682d684ce03345fb8186e25aabcfcForm_Icons">  <path style="fill:#58595B;" d="M16,7H5C3.896,7,3,7.896,3,9v6c0,1.104,0.896,2,2,2h11l5-5L16,7z"/> </g> <g id="svgstore391682d684ce03345fb8186e25aabcfcStatus_Icons">  </g>    </symbol><symbol viewBox="0 0 24 24" id="gridicon-textcolor"><title>textcolor</title> <g id="svgstored0420e7a2073a74ae7717e5ef3b103efStructural_Icons">          </g> <g id="svgstored0420e7a2073a74ae7717e5ef3b103efForm_Icons">  <path style="fill:#58595B;" d="M13.413,6h-2.841L6.706,17h2.503l0.794-2.607h3.994L14.79,17h2.504L13.413,6z M10.587,12.444
		c0.78-2.522,1.252-4.104,1.416-4.744c0.041,0.18,0.106,0.426,0.199,0.735c0.092,0.31,0.506,1.646,1.24,4.009H10.587z"/> <rect x="3" y="19" style="opacity:0.5;fill:#58595B;" width="18" height="3"/> </g> <g id="svgstored0420e7a2073a74ae7717e5ef3b103efStatus_Icons">  </g>    </symbol><symbol viewBox="0 0 24 24" id="gridicon-undo"><title>undo</title> <g id="svgstored7778caa0daa11dfbcd73e2226bdc9ceStructural_Icons">          </g> <g id="svgstored7778caa0daa11dfbcd73e2226bdc9ceForm_Icons">  <polyline style="fill:none;stroke:#58595B;stroke-width:2;stroke-miterlimit:10;" points="11,11 5,11 5,5 	"/> <path style="fill:none;stroke:#58595B;stroke-width:2;stroke-miterlimit:10;" d="M5,11c2-2,3.035-2.965,5-5c5.381-5.572,12,2,7,7
		c-3.5,3.5-4,4-5,5"/> <line style="fill:none;stroke:#58595B;stroke-width:2;stroke-miterlimit:10;" x1="10.5" y1="19.562" x2="9.5" y2="20.562"/> </g> <g id="svgstored7778caa0daa11dfbcd73e2226bdc9ceStatus_Icons">  </g>    </symbol></svg>