<svg viewBox="0 0 24 24" xmlns="http://www.w3.org/2000/svg"><symbol viewBox="0 0 24 24" id="gridicon-arrow"><title>arrow</title> <g>         <g> <polygon points="20,11 6.414,11 12.707,4.707 11.293,3.293 2.586,12 11.293,20.707 12.707,19.293 6.414,13 20,13 
					"/> </g> </g> <g>  </g> <g>  </g>    </symbol><symbol viewBox="0 0 24 24" id="gridicon-attachment"><title>attachment</title> <g>          </g> <g> <g> <path d="M14,1c-2.762,0-5,2.238-5,5v10c0,1.657,1.343,3,3,3s2.99-1.343,2.99-3V6H13v10c0,0.553-0.447,1-1,1
			s-1-0.447-1-1V6c0-1.657,1.343-3,3-3s3,1.343,3,3v10.125C17,18.887,14.762,21,12,21s-5-2.238-5-5v-5H5v5c0,3.866,3.134,7,7,7
			s6.99-3.134,6.99-7V6C18.99,3.238,16.762,1,14,1z"/> </g> </g> <g>  </g>    </symbol><symbol viewBox="0 0 24 24" id="gridicon-backspace"><title>backspace</title> <g>          </g> <g>  <path d="M19,7H8l-5,5l5,5h11c1.104,0,2-0.896,2-2V9C21,7.896,20.104,7,19,7z M18.354,13.646l-0.707,0.707L16,12.707
		l-1.646,1.646l-0.707-0.707L15.293,12l-1.646-1.646l0.707-0.707L16,11.293l1.646-1.646l0.707,0.707L16.707,12L18.354,13.646z"/> </g> <g>  </g>    </symbol><symbol viewBox="0 0 24 24" id="gridicon-bell-dot"><title>bell-dot</title> <g>          </g> <g>  </g> <g> <g> <circle fill-rule="evenodd" clip-rule="evenodd" cx="10.844" cy="5.531" r="2.844"/> </g> </g>    </symbol><symbol viewBox="0 0 24 24" id="gridicon-bell"><title>bell</title> <g>          </g> <g>  </g> <g> <g> <path fill-rule="evenodd" clip-rule="evenodd" d="M5.858,18.141c0.613,0.613,1.598,0.625,2.197,0.024
			c0.222-0.222,0.188-0.919,0.188-0.919l-1.476-1.471c0,0-0.67-0.096-0.935,0.169C5.234,16.544,5.245,17.527,5.858,18.141z
			 M19.102,4.972c-2.222-2.221-6.178-2.708-8.595-0.29C9.022,6.165,5.973,9.216,5.973,9.216S3.453,8.968,3.051,9.37
			C2.648,9.773,3.629,11.56,3.629,11.56l8.885,8.885l2.121,0.51l0.154-2.785l4.603-4.603C21.841,11.117,21.125,7,19.102,4.972z"/> </g> </g>    </symbol><symbol viewBox="0 0 24 24" id="gridicon-block"><title>block</title> <g>          </g> <g>  </g> <g>  <path d="M12,4c-4.419,0-8,3.582-8,8s3.581,8,8,8c4.418,0,8-3.582,8-8S16.418,4,12,4z M6,12c0-3.313,2.686-6,6-6
		c1.295,0,2.491,0.415,3.473,1.113l-8.359,8.359C6.415,14.492,6,13.296,6,12z M12,18c-1.295,0-2.492-0.415-3.473-1.113l8.359-8.359
		C17.585,9.509,18,10.705,18,12C18,15.313,15.313,18,12,18z"/> </g>    </symbol><symbol viewBox="0 0 24 24" id="gridicon-bold"><title>bold</title> <g>          </g> <g>  <g> <path d="M8,6h3.423c1.561,0,2.692,0.222,3.398,0.666c0.704,0.443,1.056,1.149,1.056,2.117
			c0,0.657-0.153,1.196-0.462,1.617c-0.309,0.422-0.719,0.675-1.23,0.761v0.075c0.697,0.155,1.2,0.446,1.509,0.873
			c0.309,0.426,0.463,0.993,0.463,1.7c0,1.003-0.362,1.785-1.088,2.348C14.345,16.719,13.359,17,12.115,17H8V6z M10.333,10.356
			h1.354c0.633,0,1.09-0.099,1.374-0.294c0.282-0.195,0.425-0.519,0.425-0.97c0-0.422-0.154-0.725-0.463-0.907
			C12.714,8.002,12.226,7.91,11.56,7.91h-1.227V10.356z M10.333,12.206v2.867h1.52c0.642,0,1.115-0.122,1.423-0.369
			c0.305-0.245,0.458-0.621,0.458-1.128c0-0.912-0.652-1.37-1.956-1.37H10.333z"/> </g> </g> <g>  </g>    </symbol><symbol viewBox="0 0 24 24" id="gridicon-bookmark"><title>bookmark</title> <g>          </g> <g>  </g> <g>  <path d="M16,4H8C6.896,4,6,4.896,6,6v14l6-4l6,4V6C18,4.896,17.104,4,16,4z M16,16.263l-2.891-1.927L12,13.597
		l-1.109,0.739L8,16.263V6h8V16.263z"/> </g>    </symbol><symbol viewBox="0 0 24 24" id="gridicon-bookmarked"><title>bookmarked</title> <g>          </g> <g>  </g> <g>  <path d="M16,4H8C6.896,4,6,4.896,6,6v5v2v7l6-4l6,4v-7v-2V6C18,4.896,17.104,4,16,4z"/> </g>    </symbol><symbol viewBox="0 0 24 24" id="gridicon-calendar"><title>calendar</title> <g>          </g> <g>  <path d="M19,4h-1V2h-2v2H8V2H6v2H5C3.896,4,3,4.896,3,6v13c0,1.104,0.896,2,2,2h14c1.104,0,2-0.896,2-2V6
		C21,4.896,20.104,4,19,4z M19,19H5V8h14V19z"/> </g> <g>  </g>    </symbol><symbol viewBox="0 0 24 24" id="gridicon-camera"><title>camera</title> <g>          </g> <g>  </g> <g>  </g> <g> <path d="M18,6h-3l-1-2h-4L9,6H6C4.896,6,4,6.896,4,8v8c0,1.104,0.896,2,2,2h12c1.104,0,2-0.896,2-2V8
		C20,6.896,19.104,6,18,6z M12,16c-2.209,0-4-1.79-4-4s1.791-4,4-4c2.21,0,4,1.79,4,4S14.21,16,12,16z"/> <circle opacity="0.5" cx="12" cy="12" r="2"/> </g>   </symbol><symbol viewBox="0 0 24 24" id="gridicon-cell"><title>cell</title> <g>          </g> <g>  </g> <g>  <path d="M16,2H8C6.896,2,6,2.896,6,4v16c0,1.104,0.896,2,2,2h8c1.104,0,2-0.896,2-2V4C18,2.896,17.104,2,16,2z
		 M16,18H8V6h8V18z"/> </g>    </symbol><symbol viewBox="0 0 24 24" id="gridicon-checkmark"><title>checkmark</title> <g>      <g> <polygon points="9,19.414 2.293,12.707 3.707,11.293 9,16.586 20.293,5.293 21.707,6.707 		"/> </g>    </g> <g>  </g> <g>  </g>    </symbol><symbol viewBox="0 0 24 24" id="gridicon-cloud-download"><title>cloud-download</title> <g>          </g> <g>  </g> <g>  </g> <g> <g> <path d="M17.988,8.013c-0.289,0-0.576,0.029-0.861,0.088c-0.682-1.951-2.164-3.082-4.129-3.082
			c-1.447,0-2.76,0.652-3.576,1.638c-0.52-0.402-1.184-0.64-1.914-0.64c-1.389,0-2.562,0.951-2.898,2.236
			c-1.809,0.596-3.092,2.306-3.092,4.254C1.518,14.984,3.533,17,6.01,17H10v-4h4v4h3.988c2.479,0,4.494-2.016,4.494-4.493
			C22.482,10.028,20.467,8.013,17.988,8.013z"/> <polygon points="13,19.586 13,14 11,14 11,19.586 9.707,18.293 8.293,19.707 12,23.414 15.707,19.707 
			14.293,18.293 		"/> </g> </g>   </symbol><symbol viewBox="0 0 24 24" id="gridicon-cloud-empty"><title>cloud-empty</title> <g>          </g> <g>  </g> <g>  </g> <g> <path d="M17.988,17H6.01c-2.477,0-4.492-2.016-4.492-4.493c0-1.953,1.29-3.666,3.103-4.258
		c0.347-1.298,1.51-2.232,2.888-2.232c0.73,0,1.395,0.237,1.914,0.64c0.817-0.985,2.129-1.638,3.576-1.638
		c1.964,0,3.447,1.131,4.128,3.081c0.283-0.058,0.572-0.087,0.862-0.087c2.479,0,4.494,2.016,4.494,4.494
		C22.482,14.984,20.467,17,17.988,17z M7.508,8.017c-0.549,0-0.996,0.447-0.996,0.996l-0.855,1.041
		c-1.219,0.174-2.139,1.229-2.139,2.453C3.518,13.882,4.636,15,6.01,15h11.979c1.375,0,2.494-1.118,2.494-2.493
		c0-1.532-1.427-2.771-2.967-2.444c0.023,0.297,0.035,0.603,0.035,0.917h-2c-0.006-0.129-0.078-1.097-0.112-1.451
		c-0.274-1.643-1.098-2.51-2.44-2.51c-1.28,0-2.445,0.93-2.445,1.951h-2C8.553,8.344,8.027,8.017,7.508,8.017z"/> </g>   </symbol><symbol viewBox="0 0 24 24" id="gridicon-cloud-upload"><title>cloud-upload</title> <g>          </g> <g>  </g> <g>  </g> <g> <path d="M17.988,8.013c-0.289,0-0.576,0.029-0.861,0.088c-0.682-1.951-2.164-3.082-4.129-3.082
		c-1.447,0-2.76,0.652-3.576,1.638c-0.52-0.402-1.184-0.64-1.914-0.64c-1.389,0-2.562,0.951-2.898,2.236
		c-1.809,0.596-3.092,2.306-3.092,4.254C1.518,14.984,3.533,17,6.01,17H11v-4v-0.586l-1.293,1.293l-1.414-1.414L12,8.586
		l3.707,3.707l-1.414,1.414L13,12.414V13v4h4.988c2.479,0,4.494-2.016,4.494-4.493C22.482,10.028,20.467,8.013,17.988,8.013z"/> </g>   </symbol><symbol viewBox="0 0 24 24" id="gridicon-cloud"><title>cloud</title> <g>          </g> <g>  </g> <g>  </g> <g> <path d="M17.988,8.013c-0.289,0-0.576,0.029-0.861,0.088c-0.682-1.951-2.164-3.082-4.129-3.082
		c-1.447,0-2.76,0.652-3.576,1.638c-0.52-0.402-1.184-0.64-1.914-0.64c-1.389,0-2.562,0.951-2.898,2.236
		c-1.809,0.596-3.092,2.306-3.092,4.254C1.518,14.984,3.533,17,6.01,17h11.979c2.479,0,4.494-2.016,4.494-4.493
		C22.482,10.028,20.467,8.013,17.988,8.013z"/> </g>   </symbol><symbol viewBox="0 0 24 24" id="gridicon-cross"><title>cross</title> <g>        <g> <polygon points="20.707,4.707 19.293,3.293 12,10.586 4.707,3.293 3.293,4.707 10.586,12 3.293,19.293 
			4.707,20.707 12,13.414 19.293,20.707 20.707,19.293 13.414,12 		"/> </g>  </g> <g>  </g> <g>  </g>    </symbol><symbol viewBox="0 0 24 24" id="gridicon-edit"><title>edit</title> <g>          </g> <g>  <path d="M4,15v5h5l9-9l-5-5L4,15z M16,3l-2,2l5,5l2-2L16,3z"/> </g> <g>  </g>    </symbol><symbol viewBox="0 0 24 24" id="gridicon-ellipsis"><title>ellipsis</title> <g>     <g> <g> <circle cx="5" cy="12" r="2"/> <circle cx="19" cy="12" r="2"/> <circle cx="12" cy="12" r="2"/> </g> </g>     </g> <g>  </g> <g>  </g>    </symbol><symbol viewBox="0 0 24 24" id="gridicon-flag"><title>flag</title> <g>          </g> <g>  </g> <g>  <polygon points="14,7 12,4 5,4 5,20 7,20 7,12 10,12 12,15 20,15 20,7 	"/> </g>    </symbol><symbol viewBox="0 0 24 24" id="gridicon-help"><title>help</title> <g>          </g> <g>  </g> <g>  <path d="M12,4c-4.419,0-8,3.583-8,8c0,4.418,3.581,8,8,8c4.418,0,8-3.582,8-8C20,7.583,16.418,4,12,4z M13,17h-2v-2
		h2V17z M15.32,10.626c-0.263,0.408-0.675,0.792-1.247,1.155c-0.479,0.312-0.781,0.542-0.906,0.688
		c-0.123,0.144-0.18,0.315-0.18,0.511V13h-2.123v-0.261c0-0.447,0.093-0.83,0.276-1.141c0.185-0.311,0.512-0.611,0.981-0.906
		c0.373-0.234,0.639-0.446,0.805-0.634c0.162-0.188,0.245-0.405,0.245-0.647c0-0.193-0.086-0.348-0.266-0.459
		c-0.175-0.113-0.401-0.17-0.68-0.17c-0.695,0-1.508,0.246-2.438,0.738L8.832,7.646c1.145-0.653,2.34-0.979,3.587-0.979
		c1.023,0,1.834,0.224,2.417,0.674c0.583,0.451,0.872,1.065,0.872,1.842C15.708,9.739,15.578,10.222,15.32,10.626z"/> </g>    </symbol><symbol viewBox="0 0 24 24" id="gridicon-italic"><title>italic</title> <g>          </g> <g>  <polygon points="15.938,8 16.474,6 10.474,6 9.938,8 11.938,8 10.062,15 8.062,15 7.526,17 13.526,17 14.062,15 
		12.062,15 13.938,8 	"/> </g> <g>  </g>    </symbol><symbol viewBox="0 0 24 24" id="gridicon-link"><title>link</title> <g>          </g> <g>  <path d="M5,12c0-2.209,1.791-4,4-4h2V6H9c-3.313,0-6,2.687-6,6s2.687,6,6,6h2v-2H9C6.791,16,5,14.209,5,12z M15,6
		h-2v2h2c2.209,0,4,1.791,4,4s-1.791,4-4,4h-2v2h2c3.313,0,6-2.687,6-6S18.313,6,15,6z M8,12c0,0.553,0.447,1,1,1h6
		c0.553,0,1-0.447,1-1s-0.447-1-1-1H9C8.447,11,8,11.447,8,12z"/> </g> <g>  </g>    </symbol><symbol viewBox="0 0 24 24" id="gridicon-mail"><title>mail</title> <g>          </g> <g>  </g> <g>  </g> <g> <path d="M4,6v12h16V6H4z M18,10.118l-6,3l-6-3V7.882l6,3l6-3V10.118z"/> </g>   </symbol><symbol viewBox="0 0 24 24" id="gridicon-menu"><title>menu</title> <g>       <g> <g> <rect x="3" y="6" width="18" height="2"/> <rect x="3" y="16" width="18" height="2"/> <rect x="3" y="11" width="18" height="2"/> </g> </g>   </g> <g>  </g> <g>  </g>    </symbol><symbol viewBox="0 0 24 24" id="gridicon-microphone"><title>microphone</title> <g>          </g> <g>  </g> <g>  </g> <g> <path d="M12,13c1.104,0,2-0.896,2-2V6c0-1.104-0.896-2-2-2s-2,0.896-2,2v5C10,12.104,10.896,13,12,13z M16,11
		c0,2.209-1.791,4-4,4s-4-1.791-4-4H6c0,2.972,2.164,5.433,5,5.91V20h2v-3.09c2.836-0.478,5-2.938,5-5.91H16z"/> </g>   </symbol><symbol viewBox="0 0 24 24" id="gridicon-minus-small"><title>minus-small</title> <g>  <g> <rect x="9" y="11" width="12" height="2"/> <rect x="9" y="11" width="12" height="2"/> </g>        </g> <g>  </g> <g>  </g>    </symbol><symbol viewBox="0 0 24 24" id="gridicon-minus"><title>minus</title> <g> <g> <rect x="3" y="11" width="18" height="2"/> </g>         </g> <g>  </g> <g>  </g>    </symbol><symbol viewBox="0 0 24 24" id="gridicon-note"><title>note</title> <g>          </g> <g>  </g> <g>  <path d="M12,4c-4.418,0-8,3.582-8,8s3.582,8,8,8s8-3.582,8-8S16.418,4,12,4z M13,17h-2v-2h2V17z M13,13h-2l-0.5-6h3
		L13,13z"/> </g>    </symbol><symbol viewBox="0 0 24 24" id="gridicon-plus-small"><title>plus-small</title> <g>    <g> <rect x="14" y="6" width="2" height="12"/> <rect x="9" y="11" width="12" height="2"/> <rect x="9" y="11" width="12" height="2"/> </g>      </g> <g>  </g> <g>  </g>    </symbol><symbol viewBox="0 0 24 24" id="gridicon-plus"><title>plus</title> <g>   <g> <rect x="11" y="3" width="2" height="18"/> <rect x="3" y="11" width="18" height="2"/> </g>       </g> <g>  </g> <g>  </g>    </symbol><symbol viewBox="0 0 24 24" id="gridicon-reader"><title>reader</title> <g>          </g> <g>  </g> <g>  </g>  <g> <g display="none"> <path display="inline" d="M18.305,18.913h-3.37V20h3.37V18.913z"/> <path display="inline" d="M1.261,4v13.913C1.261,19.065,2.195,20,3.348,20h14.261V4H1.261z M16.619,18.261h-0.75
			h-1.435H3.348C3.156,18.261,3,18.104,3,17.913V5.739h12.869v11.152h0.75V18.261z"/> <path display="inline" d="M19,8.87v8.72c0,0.37-0.301,0.671-0.671,0.671H18.28c-0.37,0-0.672-0.301-0.672-0.671
			V8.87H19 M20.739,7.13h-4.87V17.59c0,1.331,1.08,2.41,2.411,2.41h0.049c1.331,0,2.41-1.079,2.41-2.41V7.13L20.739,7.13z"/> <path display="inline" d="M14.131,9.217H4.739V7.478h9.392V9.217z"/> <path display="inline" d="M14.131,12.696h-2.783v-1.739h2.783V12.696z"/> <path display="inline" d="M14.131,15.826h-2.783v-1.739h2.783V15.826z"/> <path display="inline" d="M9.608,15.826H4.739v-4.87h4.869V15.826z"/> <path display="inline" d="M18.305,18.913h-3.37V20h3.37V18.913z"/> </g> <g display="none"> <polyline display="inline" stroke="#CCCCCC" stroke-width="2" stroke-miterlimit="10" points="19,4 11,12 19,20 		"/> <polyline display="inline" stroke="#CCCCCC" stroke-width="2" stroke-miterlimit="10" points="3,4 11,12 3,20 		"/> </g> <path d="M18,6V4H2v14c0,1.104,0.896,2,2,2h16c1.104,0,2-0.896,2-2V6H18z M9,16H4v-6h5V16z M16,16h-5v-2h5V16z
		 M16,12h-5v-2h5V12z M16,8H4V6h12V8z M20,17c0,0.553-0.447,1-1,1s-1-0.447-1-1V8h2V17z"/> </g>  </symbol><symbol viewBox="0 0 24 24" id="gridicon-redo"><title>redo</title> <g>          </g> <g>  <g> <path d="M18,5v3.561c-0.047-0.046-0.099-0.098-0.145-0.143c-0.998-0.982-1.874-1.846-3.136-3.152
			c-1.826-1.891-3.991-2.637-6.101-2.099C6.615,3.679,5.016,5.293,4.443,7.379c-0.606,2.214,0.067,4.506,1.85,6.288l5,5l1.414-1.414
			l-5-5C5.982,10.528,6.131,8.79,6.372,7.907c0.377-1.373,1.453-2.474,2.742-2.803c1.383-0.353,2.86,0.197,4.166,1.55
			c1.276,1.322,2.162,2.194,3.172,3.188c0.051,0.05,0.107,0.106,0.159,0.157H13v2h7V5H18z"/> <rect x="13.355" y="19" transform="matrix(-0.7071 -0.7071 0.7071 -0.7071 9.8641 44.0858)" width="1.414" height="2"/> </g> </g> <g>  </g>    </symbol><symbol viewBox="0 0 24 24" id="gridicon-spam"><title>spam</title> <g>          </g> <g>  </g> <g>  <path d="M16,4H8L4,8v8l4,4h8l4-4V8L16,4z M13,17h-2v-2h2V17z M13,13h-2l-0.5-6h3L13,13z"/> </g>    </symbol><symbol viewBox="0 0 24 24" id="gridicon-tablet"><title>tablet</title> <g>          </g> <g>  </g> <g>  <path d="M22,18V6c0-1.104-0.896-2-2-2H4C2.896,4,2,4.896,2,6v12c0,1.104,0.896,2,2,2h16C21.104,20,22,19.104,22,18z
		 M5,18V6h14v12H5z"/> </g>    </symbol><symbol viewBox="0 0 24 24" id="gridicon-tag"><title>tag</title> <g>          </g> <g>  <path d="M16,7H5C3.896,7,3,7.896,3,9v6c0,1.104,0.896,2,2,2h11l5-5L16,7z"/> </g> <g>  </g>    </symbol><symbol viewBox="0 0 24 24" id="gridicon-textcolor"><title>textcolor</title> <g>          </g> <g>  <path d="M13.413,6h-2.841L6.706,17h2.503l0.794-2.607h3.994L14.79,17h2.504L13.413,6z M10.587,12.444
		c0.78-2.522,1.252-4.104,1.416-4.744c0.041,0.18,0.106,0.426,0.199,0.735c0.092,0.31,0.506,1.646,1.24,4.009H10.587z"/> <rect x="3" y="19" opacity="0.5" width="18" height="3"/> </g> <g>  </g>    </symbol><symbol viewBox="0 0 24 24" id="gridicon-undo"><title>undo</title> <g>          </g> <g>  <g> <path d="M19.557,7.419c-0.572-2.086-2.172-3.7-4.176-4.212c-2.108-0.54-4.274,0.207-6.101,2.099
			c-1.262,1.307-2.138,2.17-3.136,3.152C6.099,8.504,6.047,8.555,6,8.601V5H4v7h7v-2H7.429C7.468,9.962,7.51,9.92,7.548,9.883
			c1.01-0.994,1.896-1.866,3.172-3.188c1.306-1.352,2.786-1.902,4.166-1.55c1.289,0.329,2.365,1.43,2.742,2.803
			c0.241,0.883,0.39,2.621-1.335,4.346l-5,5l1.414,1.414l5-5C19.489,11.925,20.163,9.633,19.557,7.419z"/> <rect x="9" y="19.355" transform="matrix(-0.7071 -0.7071 0.7071 -0.7071 2.8847 41.3199)" width="2" height="1.414"/> </g> </g> <g>  </g>    </symbol></svg>