<?xml version="1.0" encoding="utf-8"?>
<svg version="1.1" xmlns="http://www.w3.org/2000/svg" viewBox="0 0 24 24">
  <g id="gridicons-video" fill="#000000">
    <path d="M8.00138318,4 L16.0013832,4 L16.0013832,5.9967288 L18.0013832,5.9967288 L18.0013832,4.00000043 C19.1053169,4.00074762 20,4.8958916 20,6 L20,18 C20,19.1041084 19.1053169,19.9992524 18.0013832,19.9999995 L18.0013832,17.9967288 L16.0013832,17.9967288 L16.0013832,20 L8.00138318,20 L8.00138318,17.9967288 L6.00138318,17.9967288 L6.00138318,20 L6,20 C4.8954305,20 4,19.1045695 4,18 L4,6 C4,4.8954305 4.8954305,4 6,4 L6.00138318,4 L6.00138318,5.9967288 L8.00138318,5.9967288 L8.00138318,4 Z M10,15 L14.5,12 L10,9 L10,15 Z M18.0013832,15.9967288 L18.0013832,12.9967288 L16.0013832,12.9967288 L16.0013832,15.9967288 L18.0013832,15.9967288 Z M18.0013832,10.9967288 L18.0013832,7.9967288 L16.0013832,7.9967288 L16.0013832,10.9967288 L18.0013832,10.9967288 Z M8.00138318,15.9967288 L8.00138318,12.9967288 L6.00138318,12.9967288 L6.00138318,15.9967288 L8.00138318,15.9967288 Z M8.00138318,10.9967288 L8.00138318,7.9967288 L6.00138318,7.9967288 L6.00138318,10.9967288 L8.00138318,10.9967288 Z"></path>
  </g>
</svg>