<?xml version="1.0" encoding="iso-8859-1"?>
<!-- Generator: Adobe Illustrator 19.2.1, SVG Export Plug-In . SVG Version: 6.00 Build 0)  -->
<svg version="1.1" xmlns="http://www.w3.org/2000/svg" xmlns:xlink="http://www.w3.org/1999/xlink" x="0px" y="0px"
	 viewBox="0 0 24 24" style="enable-background:new 0 0 24 24;" xml:space="preserve">
<g id="shipping">
	<path d="M18,8h-2V7c0-1.105-0.895-2-2-2H4C2.895,5,2,5.895,2,7v10h2c0,1.657,1.343,3,3,3s3-1.343,3-3h4c0,1.657,1.343,3,3,3
		s3-1.343,3-3h2v-5L18,8z M7,18.5c-0.828,0-1.5-0.672-1.5-1.5s0.672-1.5,1.5-1.5s1.5,0.672,1.5,1.5S7.828,18.5,7,18.5z M4,14V7h10v7
		H4z M17,18.5c-0.828,0-1.5-0.672-1.5-1.5s0.672-1.5,1.5-1.5s1.5,0.672,1.5,1.5S17.828,18.5,17,18.5z"/>
</g>
<g id="Layer_1">
</g>
</svg>
