<?xml version="1.0" encoding="iso-8859-1"?>
<!-- Generator: Adobe Illustrator 19.1.0, SVG Export Plug-In . SVG Version: 6.00 Build 0)  -->
<svg version="1.1" xmlns="http://www.w3.org/2000/svg" xmlns:xlink="http://www.w3.org/1999/xlink" x="0px" y="0px"
	 viewBox="0 0 24 24" style="enable-background:new 0 0 24 24;" xml:space="preserve">
<g id="status">
	<path d="M12,4c4.411,0,8,3.589,8,8s-3.589,8-8,8s-8-3.589-8-8S7.589,4,12,4 M12,2C6.477,2,2,6.477,2,12s4.477,10,10,10
		s10-4.477,10-10S17.523,2,12,2L12,2z M7.55,13c-0.019,0.166-0.05,0.329-0.05,0.5c0,2.485,2.015,4.5,4.5,4.5s4.5-2.015,4.5-4.5
		c0-0.171-0.032-0.334-0.05-0.5H7.55z M10,10V8c0-0.552-0.448-1-1-1l0,0C8.448,7,8,7.448,8,8v2c0,0.552,0.448,1,1,1l0,0
		C9.552,11,10,10.552,10,10z M16,10V8c0-0.552-0.448-1-1-1l0,0c-0.552,0-1,0.448-1,1v2c0,0.552,0.448,1,1,1l0,0
		C15.552,11,16,10.552,16,10z"/>
</g>
<g id="Layer_1">
</g>
</svg>
