<svg xmlns="http://www.w3.org/2000/svg" viewBox="0 0 24 24">
  <path id="Shape" d="M24,14.6c0,0.6-1.2,1-2.6,1.2c-0.9-1.7-2.7-3-4.8-3.9c0.2-0.3,0.4-0.5,0.6-0.8c0.3,0,0.6,0,0.8,0
	C21.1,11,24,12.9,24,14.6z M6.8,11c-0.3,0-0.6,0-0.8,0c-3.1,0-6,1.9-6,3.6c0,0.6,1.2,1,2.6,1.2c0.9-1.7,2.7-3,4.8-3.9
	C7.2,11.6,7,11.3,6.8,11z M12,12c2.2,0,4-1.8,4-4s-1.8-4-4-4S8,5.8,8,8S9.8,12,12,12z M12,13c-4.1,0-8,2.6-8,5c0,2,8,2,8,2s8,0,8-2
	C20,15.6,16.1,13,12,13z M17.7,10c0.1,0,0.2,0,0.3,0c1.7,0,3-1.3,3-3s-1.3-3-3-3c-0.5,0-0.9,0.1-1.3,0.3C17.5,5.3,18,6.6,18,8
	C18,8.7,17.9,9.4,17.7,10z M6,10c0.1,0,0.2,0,0.3,0C6.1,9.4,6,8.7,6,8c0-1.4,0.5-2.7,1.3-3.7C6.9,4.1,6.5,4,6,4C4.3,4,3,5.3,3,7
	S4.3,10,6,10z"/>
</svg>
