<svg xmlns="http://www.w3.org/2000/svg" viewBox="0 0 20 20"><defs><style>.cls-1{fill:#fff;}</style></defs><title>gridicons-image-remove</title><g id="Artwork"><g id="new_remove" data-name="new remove"><path d="M13,9.5A1.5,1.5,0,1,1,14.5,11,1.5,1.5,0,0,1,13,9.5ZM20,6V18a2,2,0,0,1-2,2H6a2,2,0,0,1-2-2V6A2,2,0,0,1,6,4H18A2,2,0,0,1,20,6ZM18,6H6v6.38l2.19-2.19,5.23,5.23,1-1a1.59,1.59,0,0,1,2.11.11L18,16Z" transform="translate(-2 -2)"/><rect x="11.71" y="0.57" width="2" height="24.28" transform="translate(10.71 -7.26) rotate(45)"/><rect class="cls-1" x="10.29" y="-0.85" width="2" height="24.28" transform="translate(9.29 -6.68) rotate(45)"/></g></g></svg>