<?xml version="1.0" encoding="iso-8859-1"?>
<!-- Generator: Adobe Illustrator 19.1.0, SVG Export Plug-In . SVG Version: 6.00 Build 0)  -->
<svg version="1.1" xmlns="http://www.w3.org/2000/svg" xmlns:xlink="http://www.w3.org/1999/xlink" x="0px" y="0px"
	 viewBox="0 0 24 24" style="enable-background:new 0 0 24 24;" xml:space="preserve">
<g id="rotate">
	<path d="M18,14v6c0,1.105-0.895,2-2,2H6c-1.105,0-2-0.895-2-2v-6c0-1.105,0.895-2,2-2h10C17.105,12,18,12.895,18,14z M13.914,2.914
		L11.828,5H14c4.418,0,8,3.582,8,8h-2c0-3.308-2.692-6-6-6h-2.172l2.086,2.086L12.5,10.5L8,6l1.414-1.414L12.5,1.5L13.914,2.914z"/>
</g>
<g id="Layer_1">
</g>
</svg>
