<?xml version="1.0" encoding="utf-8"?>
<!-- Generator: Adobe Illustrator 19.2.1, SVG Export Plug-In . SVG Version: 6.00 Build 0)  -->
<svg version="1.1" id="Layer_1" xmlns="http://www.w3.org/2000/svg" xmlns:xlink="http://www.w3.org/1999/xlink" x="0px" y="0px"
	 viewBox="0 0 24 24" style="enable-background:new 0 0 24 24;" xml:space="preserve">
<g>
	<path d="M17.4,8.7c0.3-0.5,1-2.8,1.3-4.1C16.9,3,14.6,2,12,2c-1.4,0-2.8,0.3-4,0.8l8.2,6C16.2,8.8,16.9,9.5,17.4,8.7z"/>
	<path d="M10.5,6c-0.4-0.5-2.5-1.9-3.6-2.6C4,5.1,2,8.3,2,12c0,0.4,0,0.7,0.1,1.1l8.2-5.9C10.3,7.2,11.1,6.7,10.5,6z"/>
	<path d="M5.8,11.7c-0.5,0.2-2.5,1.7-3.6,2.5c0.8,3.8,3.8,6.7,7.5,7.6l-2.9-9.5C6.8,12.2,6.6,11.3,5.8,11.7z"/>
	<path d="M9.8,17.9c0.1,0.6,0.8,2.7,1.3,4.1c0.3,0,0.6,0,0.9,0c3.6,0,6.8-2,8.6-4.9l-9.9,0C10.7,17.1,9.7,17,9.8,17.9z"/>
	<path d="M19.5,5.4l-3.1,9.5c0,0-0.4,0.9,0.5,1.1c0.6,0.1,2.8,0.1,4.2,0c0.5-1.2,0.8-2.6,0.8-4C22,9.5,21.1,7.2,19.5,5.4z"/>
</g>
</svg>
