<?xml version="1.0" encoding="utf-8"?>
<!-- Generator: Adobe Illustrator 19.2.1, SVG Export Plug-In . SVG Version: 6.00 Build 0)  -->
<svg version="1.1" xmlns="http://www.w3.org/2000/svg" xmlns:xlink="http://www.w3.org/1999/xlink" x="0px" y="0px"
	 viewBox="0 0 24 24" enable-background="new 0 0 24 24" xml:space="preserve">
<g id="Adv._Guides">
</g>
<g id="Guides">
</g>
<g id="Artwork">
	<g id="Layer_1_1_">
	</g>
	<g id="Layer_1_2_">
	</g>
	<g id="Layer_1_3_">
	</g>
	<g id="Layer_1_4_">
	</g>
	<g id="Layer_1_5_">
	</g>
	<g>
		<circle cx="13.5" cy="9.5" r="1.5"/>
		<polygon points="19,4 19,1 17,1 17,4 14,4 14,6 17,6 17,9 19,9 19,6 22,6 22,4 		"/>
		<g>
			<path d="M3,18h3.1V19h-2v1.1h1.7v0.9H4.1V23H3V18z"/>
			<path d="M9.7,23l-1-1.8H8.1V23H7v-5h1.8c1.1,0,1.9,0.4,1.9,1.5c0,0.7-0.4,1.2-0.9,1.4l1.1,2H9.7z M8.1,20.3h0.6
				c0.6,0,0.9-0.2,0.9-0.7c0-0.5-0.3-0.7-0.9-0.7H8.1V20.3z"/>
			<path d="M11.7,18h3.1V19h-2v1h1.7v0.9h-1.7v1.1h2.1V23h-3.2V18z"/>
			<path d="M15.8,18h3.1V19h-2v1h1.7v0.9h-1.7v1.1H19V23h-3.2V18z"/>
		</g>
		<path d="M19,16.6V11h-2v3.2l-0.5-0.6c-0.8-0.9-2.2-0.9-3,0l-0.7,0.7L8,9l-3,3.3V6h7V4H5C3.9,4,3,4.9,3,6v10.5H19z"/>
	</g>
</g>
</svg>
