<?xml version="1.0" encoding="utf-8"?>
<!-- Generator: Adobe Illustrator 21.1.0, SVG Export Plug-In . SVG Version: 6.00 Build 0)  -->
<svg version="1.1" id="Layer_1" xmlns="http://www.w3.org/2000/svg" xmlns:xlink="http://www.w3.org/1999/xlink" x="0px" y="0px"
	 viewBox="0 0 24 24" style="enable-background:new 0 0 24 24;" xml:space="preserve">
<style type="text/css">
	.st0{fill:#FFFFFF;}
</style>
<g id="credit-card">
	<path d="M20,6H4C2.9,6,2,6.9,2,8v11c0,1.1,0.9,2,2,2h16c1.1,0,2-0.9,2-2V8C22,6.9,21.1,6,20,6z M4,19v-7h16v7H4z"/>
</g>
<g>
	<path d="M10.5,9.5C9.7,9.5,9,8.8,9,8V3c0-0.8,0.7-1.5,1.5-1.5h3C14.3,1.5,15,2.2,15,3v5c0,0.8-0.7,1.5-1.5,1.5H10.5z"/>
	<path class="st0" d="M13.5,2c0.6,0,1,0.5,1,1v5c0,0.6-0.4,1-1,1h-3c-0.6,0-1-0.4-1-1V3c0-0.5,0.4-1,1-1H13.5 M13.5,1h-3
		c-1.1,0-2,0.9-2,2v5c0,1.1,0.9,2,2,2h3c1.1,0,2-0.9,2-2V3C15.5,1.9,14.6,1,13.5,1L13.5,1z"/>
</g>
<g>
	<circle class="st0" cx="12" cy="5" r="1"/>
</g>
<g id="Layer_1_1_">
</g>
</svg>
