<?xml version="1.0" encoding="iso-8859-1"?>
<!-- Generator: Adobe Illustrator 19.1.0, SVG Export Plug-In . SVG Version: 6.00 Build 0)  -->
<svg version="1.1" xmlns="http://www.w3.org/2000/svg" xmlns:xlink="http://www.w3.org/1999/xlink" x="0px" y="0px"
	 viewBox="0 0 24 24" style="enable-background:new 0 0 24 24;" xml:space="preserve">
<g id="bold">
	<path d="M7,5.009h4.547c2.126,0,3.671,0.303,4.632,0.907c0.962,0.605,1.442,1.567,1.442,2.887c0,0.896-0.211,1.63-0.631,2.205
		c-0.421,0.574-0.98,0.919-1.678,1.036v0.103c0.951,0.212,1.637,0.608,2.057,1.189C17.79,13.916,18,14.688,18,15.652
		c0,1.367-0.494,2.434-1.482,3.199C15.529,19.617,14.186,20,12.491,20H7V5.009z M10,10.946h2.027c0.862,0,1.486-0.133,1.872-0.4
		c0.387-0.267,0.579-0.708,0.579-1.323c0-0.574-0.21-0.986-0.63-1.236c-0.421-0.249-1.087-0.374-1.996-0.374H10V10.946z M10,13.469
		v3.906h2.253c0.876,0,1.521-0.167,1.939-0.502c0.417-0.335,0.626-0.848,0.626-1.539c0-1.244-0.889-1.865-2.668-1.865H10z"/>
</g>
<g id="Layer_1">
</g>
</svg>
