<?xml version="1.0" encoding="iso-8859-1"?>
<!-- Generator: Adobe Illustrator 19.2.1, SVG Export Plug-In . SVG Version: 6.00 Build 0)  -->
<svg version="1.1" xmlns="http://www.w3.org/2000/svg" xmlns:xlink="http://www.w3.org/1999/xlink" x="0px" y="0px"
	 viewBox="0 0 24 24" style="enable-background:new 0 0 24 24;" xml:space="preserve">
<g id="help-outline">
	<path d="M12,4c4.411,0,8,3.589,8,8s-3.589,8-8,8s-8-3.589-8-8S7.589,4,12,4 M12,2C6.477,2,2,6.477,2,12s4.477,10,10,10
		s10-4.477,10-10S17.523,2,12,2L12,2z M16,10c0-2.209-1.791-4-4-4s-4,1.791-4,4h2c0-1.103,0.897-2,2-2s2,0.897,2,2s-0.897,2-2,2
		c-0.552,0-1,0.448-1,1v2h2v-1.141C14.722,13.413,16,11.862,16,10z M13,16h-2v2h2V16z"/>
</g>
<g id="Layer_1">
</g>
</svg>
