<?xml version="1.0" encoding="utf-8"?>
<svg version="1.1" xmlns="http://www.w3.org/2000/svg" viewBox="0 0 24 24">
  <g id="gridicons-video-remove" fill="#000000">
    <path d="M19.4202141,4.59022686 L20.5871696,3.42327135 L22.0013832,4.83748491 L20.0000001,6.83886802 L20.0000001,18.0000001 C20.0000001,19.1045696 19.1045696,20.0000001 18.0000001,20.0000001 L18.0000001,18.0000001 L16.0000001,18.0000001 L16.0000001,20.0000001 L6.83886802,20.0000001 L4.83283053,22.0060376 L3.41861697,20.591824 L4.59022686,19.4202141 C4.58680698,19.4168229 4.583398,19.4134183 4.58000008,19.4100001 L8.00000008,16.0000001 L18.0000001,6.00000008 L19.4100001,4.58000008 C19.4134183,4.583398 19.4168229,4.58680698 19.420214,4.59022695 Z M15.8400639,10.9988042 L15.8400001,11.0000001 L18.0000001,11.0000001 L18.0000001,8.83886802 L15.8400639,10.9988042 Z M15.9994119,8.01102911 L16.0104409,8.00000008 L16.0000001,8.00000008 L15.9994119,8.01102911 Z M6.00000008,15.1700001 L4.00000008,17.1700001 L4.00000008,6.00000008 C4.00000008,4.89543058 4.89543058,4.00000008 6.00000008,4.00000008 L6.00000008,6.00000008 L8.00000008,6.00000008 L8.00000008,4.00000008 L17.1700001,4.00000008 L8.17000008,13.0000001 L6.00000008,13.0000001 L6.00000008,15.1700001 Z M6.00000008,8.00000008 L6.00000008,11.0000001 L8.00000008,11.0000001 L8.00000008,8.00000008 L6.00000008,8.00000008 Z M18.0000001,16.0000001 L18.0000001,13.0000001 L16.0000001,13.0000001 L16.0000001,16.0000001 L18.0000001,16.0000001 Z"></path>
  </g>
</svg>