<?xml version="1.0" encoding="iso-8859-1"?>
<!-- Generator: Adobe Illustrator 21.1.0, SVG Export Plug-In . SVG Version: 6.00 Build 0)  -->
<svg version="1.1" xmlns="http://www.w3.org/2000/svg" xmlns:xlink="http://www.w3.org/1999/xlink" x="0px" y="0px"
	 viewBox="0 0 24 24" style="enable-background:new 0 0 24 24;" xml:space="preserve">
<g id="heading-h3">
	<path d="M14.11,14.218c0.355,0.287,0.749,0.523,1.17,0.7c0.434,0.181,0.9,0.273,1.37,0.27c0.484,0.017,0.965-0.086,1.4-0.3
		c0.333-0.146,0.549-0.476,0.55-0.84c0.003-0.203-0.049-0.403-0.15-0.58c-0.123-0.191-0.301-0.341-0.51-0.43
		c-0.319-0.137-0.655-0.228-1-0.27c-0.503-0.073-1.012-0.106-1.52-0.1v-1.57c0.742,0.052,1.485-0.071,2.17-0.36
		c0.37-0.164,0.615-0.525,0.63-0.93c0.026-0.318-0.119-0.627-0.38-0.81c-0.341-0.203-0.734-0.301-1.13-0.28
		c-0.395,0.013-0.784,0.108-1.14,0.28c-0.375,0.167-0.731,0.375-1.06,0.62l-1.22-1.39c0.501-0.377,1.053-0.68,1.64-0.9
		c0.608-0.224,1.252-0.336,1.9-0.33c0.525-0.007,1.049,0.05,1.56,0.17c0.431,0.101,0.84,0.277,1.21,0.52
		c0.325,0.211,0.595,0.495,0.79,0.83c0.19,0.342,0.287,0.729,0.28,1.12c0.011,0.48-0.177,0.943-0.52,1.28
		c-0.417,0.391-0.916,0.685-1.46,0.86v0.06c0.609,0.14,1.175,0.425,1.65,0.83c0.437,0.382,0.68,0.94,0.66,1.52
		c0.005,0.421-0.113,0.835-0.34,1.19c-0.231,0.357-0.538,0.657-0.9,0.88c-0.408,0.253-0.853,0.439-1.32,0.55
		c-0.514,0.128-1.041,0.192-1.57,0.19c-0.786,0.019-1.569-0.106-2.31-0.37c-0.59-0.214-1.126-0.556-1.57-1L14.11,14.218z M9,11H5V7
		H3v10h2v-4h4v4h2V7H9V11z"/>
</g>
<g id="Layer_1">
</g>
</svg>
