<?xml version="1.0" encoding="iso-8859-1"?>
<!-- Generator: Adobe Illustrator 21.1.0, SVG Export Plug-In . SVG Version: 6.00 Build 0)  -->
<svg version="1.1" xmlns="http://www.w3.org/2000/svg" xmlns:xlink="http://www.w3.org/1999/xlink" x="0px" y="0px"
	 viewBox="0 0 24 24" style="enable-background:new 0 0 24 24;" xml:space="preserve">
<g id="heading-h6">
	<path d="M11,17H9v-4H5v4H3V7h2v4h4V7h2V17z M19.579,9.492c-0.247-0.204-0.523-0.369-0.82-0.49c-0.624-0.242-1.316-0.242-1.94,0
		c-0.298,0.109-0.565,0.287-0.78,0.52c-0.244,0.27-0.431,0.586-0.55,0.93c-0.158,0.461-0.242,0.943-0.25,1.43
		c0.368-0.329,0.791-0.589,1.25-0.77c0.406-0.171,0.84-0.262,1.28-0.27c0.416-0.006,0.83,0.048,1.23,0.16
		c0.365,0.118,0.705,0.304,1,0.55c0.296,0.253,0.529,0.571,0.68,0.93c0.194,0.403,0.303,0.843,0.32,1.29
		c0.01,0.468-0.093,0.931-0.3,1.35c-0.205,0.387-0.488,0.727-0.83,1c-0.356,0.287-0.763,0.504-1.2,0.64
		c-0.979,0.311-2.032,0.293-3-0.05c-0.506-0.182-0.967-0.472-1.35-0.85c-0.436-0.416-0.777-0.921-1-1.48
		c-0.242-0.693-0.351-1.426-0.32-2.16c-0.018-0.797,0.111-1.59,0.38-2.34c0.216-0.604,0.557-1.156,1-1.62
		c0.407-0.416,0.898-0.74,1.44-0.95c0.542-0.209,1.119-0.314,1.7-0.31c0.683-0.019,1.362,0.096,2,0.34
		c0.5,0.19,0.963,0.464,1.37,0.81L19.579,9.492z M17.189,15.332c0.203,0.001,0.406-0.03,0.6-0.09c0.184-0.046,0.357-0.128,0.51-0.24
		c0.151-0.136,0.271-0.303,0.35-0.49c0.093-0.225,0.137-0.467,0.13-0.71c0.038-0.405-0.122-0.804-0.43-1.07
		c-0.327-0.231-0.72-0.347-1.12-0.33c-0.345-0.002-0.686,0.069-1,0.21c-0.382,0.169-0.723,0.418-1,0.73
		c0.047,0.346,0.144,0.683,0.29,1c0.109,0.231,0.258,0.441,0.44,0.62c0.153,0.149,0.338,0.261,0.54,0.33
		C16.725,15.347,16.959,15.36,17.189,15.332z"/>
</g>
<g id="Layer_1">
</g>
</svg>
