<?xml version="1.0" encoding="iso-8859-1"?>
<!-- Generator: Adobe Illustrator 19.1.0, SVG Export Plug-In . SVG Version: 6.00 Build 0)  -->
<svg version="1.1" xmlns="http://www.w3.org/2000/svg" xmlns:xlink="http://www.w3.org/1999/xlink" x="0px" y="0px"
	 viewBox="0 0 24 24" style="enable-background:new 0 0 24 24;" xml:space="preserve">
<g id="visible">
	<path d="M12,6C5.188,6,1,12,1,12s4.188,6,11,6s11-6,11-6S18.812,6,12,6z M12,16c-3.943,0-6.926-2.484-8.379-4
		c1.04-1.085,2.862-2.657,5.254-3.469C8.335,9.213,8,10.063,8,11c0,2.209,1.791,4,4,4s4-1.791,4-4c0-0.937-0.335-1.787-0.875-2.469
		c2.393,0.812,4.216,2.385,5.254,3.469C18.924,13.518,15.942,16,12,16z"/>
</g>
<g id="Layer_1">
</g>
</svg>
