<?xml version="1.0" encoding="utf-8"?>
<!-- Generator: Adobe Illustrator 21.1.0, SVG Export Plug-In . SVG Version: 6.00 Build 0)  -->
<svg version="1.1" id="Layer_1" xmlns="http://www.w3.org/2000/svg" xmlns:xlink="http://www.w3.org/1999/xlink" x="0px" y="0px"
	 viewBox="0 0 24 24" style="enable-background:new 0 0 24 24;" xml:space="preserve">
<g>
	<g>
		<circle cx="12" cy="7" r="1"/>
		<rect x="6" y="14" width="12" height="3"/>
		<path d="M20,6h-4V3H8v3H4C2.9,6,2,6.9,2,8v11c0,1.1,0.9,2,2,2h16c1.1,0,2-0.9,2-2V8C22,6.9,21.1,6,20,6z M10,5h4v5h-4V5z M20,19H4
			v-9h4c0,1.1,0.9,2,2,2h4c1.1,0,2-0.9,2-2h4V19z"/>
	</g>
</g>
</svg>
