<svg xmlns="http://www.w3.org/2000/svg" viewBox="0 0 18.58 18.58"><title>gridicons-video-remove</title><g id="Artwork"><rect x="11.71" y="0.57" width="2" height="24.28" transform="translate(9.29 -8.68) rotate(45)"/><path d="M6,15.17V13H8.17l9-9H8V6H6V4A2,2,0,0,0,4,6V17.17ZM6,8H8v3H6Z" transform="translate(-3.42 -3.42)"/><path d="M19.41,4.58,18,6h0L8,16H8L4.58,19.41A2,2,0,0,0,6,20v0H16V18h2v2a2,2,0,0,0,2-2V6A2,2,0,0,0,19.41,4.58ZM18,16H16V13h2Zm0-5H15.84L16,8h2Z" transform="translate(-3.42 -3.42)"/></g></svg>