<?xml version="1.0" encoding="utf-8"?>
<!-- Generator: Adobe Illustrator 19.2.1, SVG Export Plug-In . SVG Version: 6.00 Build 0)  -->
<svg version="1.1" id="Layer_1" xmlns="http://www.w3.org/2000/svg" xmlns:xlink="http://www.w3.org/1999/xlink" x="0px" y="0px"
	 viewBox="0 0 24 24" style="enable-background:new 0 0 24 24;" xml:space="preserve">
<g>
	<path d="M2,6v4.9c0,1.3,0.6,2.5,1.7,3.3L7,16.5V13h2v-2c0-1.7,1.3-3,3-3h2V6c0-1.1-0.9-2-2-2H4C2.9,4,2,4.9,2,6z"/>
	<g>
		<path d="M12,9h8c1.1,0,2,0.9,2,2v4.9c0,1.3-0.6,2.5-1.7,3.3L17,21.5V18h-5c-1.1,0-2-0.9-2-2v-5C10,9.9,10.9,9,12,9z"/>
	</g>
</g>
</svg>
