<?xml version="1.0" encoding="utf-8"?>
<!-- Generator: Adobe Illustrator 19.2.1, SVG Export Plug-In . SVG Version: 6.00 Build 0)  -->
<svg version="1.1" xmlns="http://www.w3.org/2000/svg" xmlns:xlink="http://www.w3.org/1999/xlink" x="0px" y="0px"
	 viewBox="0 0 24 24" enable-background="new 0 0 24 24" xml:space="preserve">
<g id="Adv._Guides">
</g>
<g id="Guides">
</g>
<g id="Artwork">
	<g id="Layer_1_1_">
	</g>
	<g id="Layer_1_2_">
	</g>
	<g id="Layer_1_3_">
	</g>
	<g id="Layer_1_4_">
	</g>
	<g id="Layer_1_5_">
	</g>
	<g id="Layer_1_6_">
	</g>
	<g>
		<circle cx="14.5" cy="9.5" r="1.5"/>
		<polygon points="20,4 20,1 18,1 18,4 15,4 15,6 18,6 18,9 20,9 20,6 23,6 23,4 		"/>
		<polygon points="4,22 5.1,22 5.1,20.1 6.8,20.1 6.8,19.1 5.1,19.1 5.1,18 7.1,18 7.1,17 4,17 		"/>
		<path d="M11.7,18.6c0-1.2-0.9-1.5-1.9-1.5H8v5h1.1v-1.8h0.6l1,1.8h1.3l-1.1-2C11.3,19.8,11.7,19.3,11.7,18.6z M9.7,19.3H9.1v-1.4
			h0.6c0.6,0,0.9,0.2,0.9,0.7C10.6,19.1,10.3,19.3,9.7,19.3z"/>
		<polygon points="13.8,19.9 15.5,19.9 15.5,19 13.8,19 13.8,18 15.8,18 15.8,17 12.7,17 12.7,22 15.8,22 15.8,21.1 13.8,21.1 		"/>
		<polygon points="17.9,19.9 19.6,19.9 19.6,19 17.9,19 17.9,18 19.9,18 19.9,17 16.8,17 16.8,22 20,22 20,21.1 17.9,21.1 		"/>
		<path d="M18,14.3l-0.5-0.6c-0.8-0.9-2.2-0.9-3,0l-0.7,0.7L9,9l-3,3.3V6h7V4H6C4.9,4,4,4.9,4,6v10h16v-5h-2V14.3z"/>
	</g>
</g>
</svg>
