<?xml version="1.0" encoding="iso-8859-1"?>
<!-- Generator: Adobe Illustrator 18.1.1, SVG Export Plug-In . SVG Version: 6.00 Build 0)  -->
<svg version="1.1" xmlns="http://www.w3.org/2000/svg" xmlns:xlink="http://www.w3.org/1999/xlink" x="0px" y="0px"
	 viewBox="0 0 24 24" style="enable-background:new 0 0 24 24;" xml:space="preserve">
<g id="domains">
	<path d="M12,2C6.477,2,2,6.477,2,12c0,5.523,4.477,10,10,10s10-4.477,10-10C22,6.477,17.523,2,12,2z M18.918,8h-3.215
		c-0.188-1.424-0.42-2.651-0.565-3.357C16.731,5.325,18.054,6.513,18.918,8z M13.014,4.072C13.082,4.424,13.401,6.11,13.659,8
		h-3.318c0.258-1.89,0.577-3.576,0.645-3.928C11.319,4.029,11.656,4,12,4S12.681,4.029,13.014,4.072z M14,12
		c0,0.598-0.043,1.286-0.109,2h-3.782C10.043,13.286,10,12.598,10,12s0.043-1.286,0.109-2h3.782C13.957,10.714,14,11.402,14,12z
		 M8.862,4.643C8.717,5.349,8.485,6.576,8.297,8H5.082C5.946,6.513,7.269,5.325,8.862,4.643z M4.263,10h3.821
		C8.033,10.668,8,11.344,8,12s0.033,1.332,0.085,2H4.263C4.097,13.359,4,12.692,4,12S4.098,10.641,4.263,10z M5.082,16h3.215
		c0.188,1.424,0.42,2.65,0.565,3.357C7.269,18.675,5.946,17.487,5.082,16z M10.986,19.928c-0.068-0.353-0.388-2.038-0.645-3.928
		h3.318c-0.258,1.89-0.577,3.576-0.645,3.928C12.681,19.971,12.344,20,12,20S11.319,19.971,10.986,19.928z M15.138,19.357
		c0.145-0.707,0.377-1.933,0.565-3.357h3.215C18.054,17.487,16.731,18.675,15.138,19.357z M19.737,14h-3.821
		C15.967,13.332,16,12.656,16,12s-0.033-1.332-0.085-2h3.821C19.902,10.641,20,11.308,20,12S19.903,13.359,19.737,14z"/>
</g>
<g id="Layer_1">
</g>
</svg>
