<svg version="1.1" xmlns="http://www.w3.org/2000/svg" viewBox="0 0 24 24" style="enable-background:new 0 0 24 24;"><g id="gridicons-shutter"><path d="M18.9,4.8c0,0-0.7,5.6-3.5,10.2c1.7-0.3,3.9-0.9,6.6-2C22,13,22.7,8.4,18.9,4.8z"/><path d="M12.9,7.6c-1.1-1.3-2.7-3-5-4.7C5.1,4.2,3,6.6,2.3,9.6C7,7.7,11,7.5,12.9,7.6z"/><path d="M16.3,10.5c0.6-1.6,1.2-3.9,1.6-6.7c-4.1-3-8.6-1.5-8.6-1.5S13.7,5.7,16.3,10.5z"/><path d="M11.1,16.5c1.1,1.3,2.7,3,5,4.7c0,0,4.3-1.6,5.6-6.7C21.7,14.4,16.4,16.6,11.1,16.5z"/><path d="M7.7,13.4c-0.6,1.6-1.2,3.8-1.5,6.7c0,0,3.6,2.9,8.6,1.5C14.8,21.6,10.2,18.2,7.7,13.4z"/><path d="M2,11.1c0,0-0.7,4.5,3.1,8.2c0,0,0.7-5.7,3.5-10.3C6.9,9.3,4.6,9.9,2,11.1z"/></g></svg>
