<?xml version="1.0" encoding="utf-8"?>
<!-- Generator: Adobe Illustrator 19.2.1, SVG Export Plug-In . SVG Version: 6.00 Build 0)  -->
<svg version="1.1" id="Layer_1" xmlns="http://www.w3.org/2000/svg" xmlns:xlink="http://www.w3.org/1999/xlink" x="0px" y="0px"
	 viewBox="0 0 24 24" enable-background="new 0 0 24 24" xml:space="preserve">
<g>
	<path fill="#010101" d="M3,10c0,3.9,3.1,7,7,7c1.4,0,2.7-0.5,3.8-1.2L19,21l2-2l-5.2-5.2c0.8-1.1,1.2-2.4,1.2-3.8c0-3.9-3.1-7-7-7
		S3,6.1,3,10z M5,10c0-2.8,2.2-5,5-5s5,2.2,5,5s-2.2,5-5,5S5,12.8,5,10z"/>
	<rect x="7" y="9" fill="#010101" width="6" height="2"/>
</g>
</svg>
