<svg id="eaf4fead-e611-47cf-bd8f-2b6f7cd390be" data-name="Layer 1" xmlns="http://www.w3.org/2000/svg" viewBox="0 0 24 24"><g id="bc23457a-3f24-4744-b5d6-7a9f042e5068" data-name="Artwork"><path d="M15,21.19l-3-1.25L9,21.06,7.27,18.42l-3.08-.69.24-3.31-2-2.32,1.9-2.51L4.21,6.3l3.24-.79L9,2.81,12.08,4.1,15,2.88l1.68,2.88,3.26.61-.37,3.19,2,2.52-2,2.39.17,3.32-3,.61Zm-3-3.4,2.2.91,1.31-2.09,2.13-.44-.12-2.4L19,12l-1.52-1.88L17.68,8l-2.31-.44L14.11,5.41l-2.06.87L9.84,5.34,8.77,7.24l-2.48.61.12,2.36L5,12l1.46,1.72-.18,2.41,2.22.49,1.22,2Z"/><rect x="10.92" y="7.47" width="2.16" height="6.11"/><rect x="10.92" y="14.74" width="2.16" height="1.81"/></g></svg>