<?xml version="1.0" encoding="utf-8"?>
<!-- Generator: Adobe Illustrator 19.2.1, SVG Export Plug-In . SVG Version: 6.00 Build 0)  -->
<svg version="1.1" id="Layer_1" xmlns="http://www.w3.org/2000/svg" xmlns:xlink="http://www.w3.org/1999/xlink" x="0px" y="0px"
	 viewBox="0 0 24 24" enable-background="new 0 0 24 24" xml:space="preserve">
<g>
	<path fill="#010101" d="M14,3c-3.9,0-7,3.1-7,7c0,1.4,0.4,2.7,1.2,3.8L3,19l2,2l5.2-5.2c1.1,0.7,2.4,1.2,3.8,1.2c3.9,0,7-3.1,7-7
		S17.9,3,14,3z M14,15c-2.8,0-5-2.2-5-5s2.2-5,5-5s5,2.2,5,5S16.8,15,14,15z"/>
	<rect x="11" y="9" fill="#010101" width="6" height="2"/>
</g>
</svg>
