<svg xmlns="http://www.w3.org/2000/svg" viewBox="0 0 21.98 21.98"><title>gridicons-image-remove</title><g id="Artwork"><path d="M9.31,10.45,7.74,8.71,4,12.65V6h9.76l2-2H4A2,2,0,0,0,2,6V17.76Z" transform="translate(-1.02 -1)"/><path d="M20,4H18.59l-2,2H20v9.43L18.52,13.7a2,2,0,0,0-3,0L13.9,15.55l-3.25-3.61L2.91,19.67A2,2,0,0,0,4,20H20a2,2,0,0,0,2-2V6A2,2,0,0,0,20,4Z" transform="translate(-1.02 -1)"/><rect x="-2.54" y="10.99" width="29.09" height="2" transform="translate(-5.98 11) rotate(-45)"/></g></svg>