<svg xmlns="http://www.w3.org/2000/svg" width="19.08" height="18.39" viewBox="0 0 19.08 18.39"><g id="Artwork"><path d="M15,21.18l-3-1.25-3,1.12L7.27,18.41l-3.08-.69.24-3.31-2-2.32,1.9-2.51L4.21,6.29,7.45,5.5,9,2.8l3.08,1.29L15,2.87l1.68,2.88,3.26.61-.38,3.19,2,2.52-2,2.39.17,3.32-3,.61Zm-3-3.4,2.2.91,1.31-2.09,2.13-.44-.12-2.4L19,12l-1.52-1.88L17.68,8l-2.32-.44L14.11,5.4l-2.06.87L9.84,5.33,8.77,7.23l-2.48.61.12,2.36L5,12l1.46,1.72-.18,2.41,2.22.49,1.22,2Z" transform="translate(-2.47 -2.8)"/><rect x="8.45" y="4.66" width="2.16" height="6.11"/><rect x="8.45" y="11.93" width="2.16" height="1.81"/><path d="M17.43,10.16" transform="translate(-2.47 -2.8)"/></g></svg>