<?xml version="1.0" encoding="iso-8859-1"?>
<!-- Generator: Adobe Illustrator 19.1.0, SVG Export Plug-In . SVG Version: 6.00 Build 0)  -->
<svg version="1.1" xmlns="http://www.w3.org/2000/svg" xmlns:xlink="http://www.w3.org/1999/xlink" x="0px" y="0px"
	 viewBox="0 0 24 24" style="enable-background:new 0 0 24 24;" xml:space="preserve">
<g id="my-sites-horizon">
	<path d="M10.986,13.928l0.762-2.284l-1.324-3.629C9.966,7.988,9.532,7.934,9.532,7.934C9.074,7.907,9.127,7.207,9.586,7.233
		c0,0,1.403,0.108,2.239,0.108c0.889,0,2.266-0.108,2.266-0.108c0.458-0.027,0.512,0.646,0.054,0.701c0,0-0.461,0.054-0.973,0.081
		l2.006,5.966c-0.875-0.035-1.74-0.054-2.599-0.061l-0.429-1.177l-0.403,1.171C11.495,13.915,11.239,13.924,10.986,13.928z
		 M3.83,14.321C3.62,13.583,3.5,12.806,3.5,12c0-1.232,0.264-2.402,0.736-3.459l2.036,5.578c0.849-0.059,1.69-0.103,2.526-0.137
		L6.792,8.015c0.512-0.027,0.973-0.081,0.973-0.081C8.223,7.88,8.169,7.207,7.71,7.233c0,0-1.376,0.108-2.265,0.108
		c-0.16,0-0.347-0.004-0.547-0.01C6.418,5.024,9.03,3.5,12,3.5c2.213,0,4.228,0.846,5.74,2.232c-0.036-0.002-0.072-0.007-0.11-0.007
		c-0.835,0-1.427,0.727-1.427,1.509c0,0.701,0.404,1.293,0.835,1.994c0.323,0.566,0.701,1.293,0.701,2.344
		c0,0.674-0.245,1.463-0.573,2.51c0.301,0.019,0.604,0.043,0.907,0.066l0.798-2.307c0.485-1.213,0.646-2.182,0.646-3.044
		c0-0.313-0.021-0.603-0.057-0.874C20.122,9.133,20.5,10.522,20.5,12c0,0.807-0.128,1.581-0.339,2.32
		c0.5,0.049,1.005,0.112,1.508,0.169C21.875,13.692,22,12.862,22,12c0-5.523-4.477-10-10-10S2,6.477,2,12
		c0,0.862,0.125,1.692,0.331,2.49C2.831,14.433,3.333,14.37,3.83,14.321z M18.468,17.488c-1.792,2.184-4.35,3.013-6.468,3.013
		c-1.876,0-4.551-0.698-6.463-3.013c-0.585,0.048-1.174,0.1-1.769,0.161C5.571,20.271,8.578,22,12,22
		c3.422,0,6.429-1.729,8.232-4.351C19.639,17.587,19.052,17.536,18.468,17.488z M12,15.01c-3.715,0-7.368,0.266-10.958,0.733
		c0.179,0.41,0.35,0.825,0.506,1.247c3.427-0.431,6.91-0.679,10.452-0.679s7.025,0.248,10.452,0.679
		c0.156-0.422,0.327-0.836,0.506-1.246C19.368,15.277,15.715,15.01,12,15.01z"/>
</g>
<g id="Layer_1">
</g>
</svg>
