<?xml version="1.0" encoding="utf-8"?>
<!-- Generator: Adobe Illustrator 27.1.1, SVG Export Plug-In . SVG Version: 6.00 Build 0)  -->
<svg version="1.1" xmlns="http://www.w3.org/2000/svg" xmlns:xlink="http://www.w3.org/1999/xlink" x="0px" y="0px" width="24px"
     height="24px" viewBox="0 0 24 24" enable-background="new 0 0 24 24" xml:space="preserve">
        <path d="M21.5,13.4c0,1.2-0.2,2.3-0.7,3.4c-0.5,1.1-1.2,2-2.1,2.9c-0.9,0.8-1.9,1.5-3.1,1.9c-0.5,0.2-1.1,0.4-1.7,0.5l0.3-0.1
		c0,0,2.2-1.3,2.7-4.1c0.2-2.5-1.9-3.6-1.9-3.6s-1.1,1.4-2.6,1.4c-2.4,0-2-4-2-4s-3.6,1.9-3.6,5.9c0,2.5,2.6,4.4,2.6,4.4v0
		c-0.3-0.1-0.7-0.2-1-0.3c-1.2-0.4-2.2-1.1-3.1-1.9c-0.9-0.8-1.6-1.8-2.1-2.9c-0.5-1.1-0.7-2.2-0.7-3.4c0-3.9,4.6-7.7,4.6-7.7
		s0.4,3,2.7,3c4.2,0,2.7-6.7,2.7-6.7s3.8,2.2,4.9,8.2c2.1-0.3,1.9-3,1.9-3S21.5,10.2,21.5,13.4"/>
</svg>
