<svg width="24" height="24" viewBox="0 0 24 24" fill="none" xmlns="http://www.w3.org/2000/svg">
<path fill-rule="evenodd" clip-rule="evenodd" d="M3.21127 19.7C3.58551 20.5667 4.22173 21 5.11992 21H18.8801C19.7783 21 20.4145 20.5667 20.7887 19.7C21.163 18.8333 21.04 18.0444 20.4198 17.3333L15.4644 11V5H17.1325C17.4105 5 17.6404 4.90556 17.8222 4.71667C18.004 4.52778 18.0949 4.28889 18.0949 4C18.0949 3.71111 18.004 3.47222 17.8222 3.28333C17.6404 3.09444 17.4105 3 17.1325 3H6.86749C6.58948 3 6.35959 3.09444 6.17781 3.28333C5.99603 3.47222 5.90515 3.71111 5.90515 4C5.90515 4.28889 5.99603 4.52778 6.17781 4.71667C6.35959 4.90556 6.58948 5 6.86749 5H8.53556V11L3.58017 17.3333C2.95999 18.0444 2.83702 18.8333 3.21127 19.7ZM7.66815 15.2771L16.3318 15.2771L13.5398 11.7333V5H10.4602V11.7333L7.66815 15.2771Z" fill="black"/>
</svg>
