<?xml version="1.0" encoding="iso-8859-1"?>
<!-- Generator: Adobe Illustrator 19.1.0, SVG Export Plug-In . SVG Version: 6.00 Build 0)  -->
<svg version="1.1" xmlns="http://www.w3.org/2000/svg" xmlns:xlink="http://www.w3.org/1999/xlink" x="0px" y="0px"
	 viewBox="0 0 24 24" style="enable-background:new 0 0 24 24;" xml:space="preserve">
<g id="bell">
	<path d="M6.14,14.969l2.828,2.828c-0.362,0.362-0.862,0.586-1.414,0.586c-1.105,0-2-0.895-2-2
		C5.555,15.831,5.778,15.331,6.14,14.969z M15.007,20.294L14.301,21L3,9.699l0.706-0.706L4.808,9.15
		c0.754,0.108,1.689-0.122,2.077-0.51l3.885-3.884c2.34-2.34,6.135-2.34,8.475,0s2.34,6.135,0,8.475l-3.885,3.885
		c-0.388,0.388-0.618,1.323-0.51,2.077L15.007,20.294z"/>
</g>
<g id="Layer_1">
</g>
</svg>
