<?xml version="1.0" encoding="utf-8"?>
<!-- Generator: Adobe Illustrator 19.2.1, SVG Export Plug-In . SVG Version: 6.00 Build 0)  -->
<svg version="1.1" xmlns="http://www.w3.org/2000/svg" xmlns:xlink="http://www.w3.org/1999/xlink" x="0px" y="0px"
	 viewBox="0 0 24 24" enable-background="new 0 0 24 24" xml:space="preserve">
<g id="Adv._Guides">
</g>
<g id="Guides">
</g>
<g id="Artwork">
	<g id="Layer_1_1_">
	</g>
	<g id="Layer_1_2_">
	</g>
	<g>
		<path d="M4,12c-1.1,0-2-0.9-2-2V5c0-1.1,0.9-2,2-2h8c1.1,0,2,0.9,2,2v5c0,1.1-0.9,2-2,2h-2v3l-3-3H4z"/>
		<path d="M22,18c1.1,0,2-0.9,2-2v-5c0-1.1-0.9-2-2-2h-6v1c0,2.2-1.8,4-4,4v2c0,1.1,0.9,2,2,2h2v3l3-3H22z"/>
	</g>
</g>
</svg>
