<?xml version="1.0" encoding="iso-8859-1"?>
<svg xmlns="http://www.w3.org/2000/svg" viewBox="0 0 24 24"><rect x="0" fill="none" width="24" height="24"/>
    <g id="Page-1" stroke="none" stroke-width="1" fill="none" fill-rule="evenodd">
        <g id="gridicons-list-ordered-rtl" fill="#000000" fill-rule="nonzero">
            <g transform="translate(3.000000, 3.000000)" id="Shape">
                <path d="M0,16 L13,16 L13,14 L0,14 L0,16 Z M0,10 L13,10 L13,8 L0,8 L0,10 Z M0,2 L0,4 L13,4 L13,2 L0,2 Z M16.587,2.252 C16.694,2.156 16.784,2.064 16.856,1.977 C16.844,2.205 16.838,2.457 16.838,2.733 L16.838,5 L18.013,5 L18.013,0.717 L16.971,0.717 L15.5,1.915 L16.101,2.653 L16.587,2.252 Z M17.035,10.078 C17.51,9.652 17.82,9.363 17.965,9.211 C18.111,9.059 18.227,8.914 18.315,8.776 C18.403,8.638 18.468,8.498 18.51,8.356 C18.552,8.213 18.573,8.058 18.573,7.89 C18.573,7.665 18.513,7.463 18.393,7.282 C18.273,7.101 18.104,6.962 17.886,6.865 C17.668,6.766 17.421,6.717 17.144,6.717 C16.923,6.717 16.725,6.739 16.548,6.784 C16.371,6.829 16.208,6.894 16.057,6.979 C15.907,7.064 15.721,7.205 15.5,7.402 L16.136,8.146 C16.31,7.996 16.466,7.882 16.603,7.805 C16.741,7.728 16.877,7.689 17.012,7.689 C17.143,7.689 17.245,7.721 17.317,7.786 C17.389,7.85 17.425,7.938 17.425,8.05 C17.425,8.14 17.407,8.226 17.371,8.308 C17.335,8.39 17.271,8.488 17.179,8.602 C17.087,8.716 16.892,8.93 16.593,9.242 L15.547,10.3 L15.547,11.062 L18.655,11.062 L18.655,10.107 L17.035,10.107 L17.035,10.078 Z M17.494,14.825 L17.494,14.807 C17.801,14.721 18.035,14.582 18.197,14.393 C18.359,14.202 18.44,13.974 18.44,13.708 C18.44,13.399 18.314,13.157 18.062,12.981 C17.81,12.805 17.462,12.717 17.019,12.717 C16.712,12.717 16.44,12.75 16.203,12.817 C15.966,12.884 15.734,12.995 15.507,13.151 L15.987,13.924 C16.28,13.74 16.563,13.649 16.837,13.649 C16.984,13.649 17.1,13.676 17.187,13.731 C17.274,13.786 17.317,13.87 17.317,13.983 C17.317,14.284 17.023,14.434 16.435,14.434 L16.165,14.434 L16.165,15.304 L16.429,15.304 C16.646,15.304 16.822,15.32 16.956,15.353 C17.091,15.384 17.188,15.433 17.249,15.496 C17.31,15.56 17.34,15.65 17.34,15.767 C17.34,15.919 17.282,16.031 17.166,16.103 C17.05,16.173 16.865,16.209 16.611,16.209 C16.447,16.209 16.268,16.187 16.073,16.14 C15.879,16.095 15.688,16.024 15.5,15.928 L15.5,16.889 C15.728,16.977 15.941,17.037 16.137,17.071 C16.333,17.104 16.547,17.121 16.777,17.121 C17.338,17.121 17.775,17.007 18.091,16.778 C18.406,16.55 18.564,16.236 18.564,15.838 C18.567,15.253 18.209,14.915 17.494,14.825 Z"></path>
            </g>
        </g>
    </g>
</svg>
