<?xml version="1.0" encoding="utf-8"?>
<svg version="1.1" xmlns="http://www.w3.org/2000/svg" viewBox="0 0 24 24">
  <g id="gridicons-image" fill="#000000">
    <path d="M20,6 L20,18 C20,19.1045695 19.1045695,20 18,20 L6,20 C4.8954305,20 4,19.1045695 4,18 L4,6 C4,4.8954305 4.8954305,4 6,4 L18,4 C19.1045695,4 20,4.8954305 20,6 Z M18,6 L6,6 L6,12.38 L8.19,10.19 L13.42,15.42 L14.42,14.42 C15.0495258,13.9164877 15.9562434,13.9637573 16.53,14.53 L18,16 L18,6 Z M13,9.5 C13,8.67157288 13.6715729,8 14.5,8 C15.3284271,8 16,8.67157288 16,9.5 C16,10.3284271 15.3284271,11 14.5,11 C13.6715729,11 13,10.3284271 13,9.5 Z"></path>
  </g>
</svg>