<?xml version="1.0" encoding="UTF-8"?>
<svg viewBox="0 0 24 24" version="1.1" xmlns="http://www.w3.org/2000/svg" xmlns:xlink="http://www.w3.org/1999/xlink">
    <g id="gridicons-create" fill="#000000">
        <path d="M21,14 L21,19 C21,20.105 20.105,21 19,21 L5,21 C3.895,21 3,20.105 3,19 L3,5 C3,3.895 3.895,3 5,3 L10,3 L10,5 L5,5 L5,19 L19,19 L19,14 L21,14 Z" id="sheet"></path>
        <polygon id="plus" points="21 7 17 7 17 3 15 3 15 7 11 7 11 9 15 9 15 13 17 13 17 9 21 9"></polygon>
    </g>
</svg>