<?xml version="1.0" encoding="utf-8"?>
<svg version="1.1" xmlns="http://www.w3.org/2000/svg" viewBox="0 0 24 24">
  <g id="gridicons-image-remove" fill="#000000">
    <path d="M20.5871695,3.42327127 L22.0013831,4.83748484 L20,6.83886794 L20,18 C20,19.1045695 19.1045695,20 18,20 L6.83886794,20 L4.83283046,22.0060375 L3.41861689,20.5918239 L20.5871695,3.42327127 Z M12.419434,14.419434 L13.42,15.42 L14.42,14.42 C15.0495258,13.9164877 15.9562434,13.9637573 16.53,14.53 L18,16 L18,8.83886794 L12.419434,14.419434 Z M15.1622576,6 L6,6 L6,12.38 L8.19,10.19 L9.58112878,11.5811288 L4,17.1622576 L4,6 C4,4.8954305 4.8954305,4 6,4 L17.1622576,4 L15.1622576,6 Z"></path>
  </g>
</svg>