<svg xmlns="http://www.w3.org/2000/svg" viewBox="0 0 18.58 18.58"><title>gridicons-image-remove</title><g id="Artwork"><rect x="11.71" y="0.57" width="2" height="24.28" transform="translate(9.29 -8.68) rotate(45)"/><path d="M9.58,11.58,8.19,10.19,6,12.38V6h9.17l2-2H6A2,2,0,0,0,4,6V17.17Z" transform="translate(-3.42 -3.42)"/><path d="M19.41,4.58,18,6h0v9.43l-1.09-.94a1.86,1.86,0,0,0-2.81.06l-.8.76L11,13,4.58,19.41A2,2,0,0,0,6,20H18a2,2,0,0,0,2-2V6A2,2,0,0,0,19.41,4.58Z" transform="translate(-3.42 -3.42)"/></g></svg>