<?xml version="1.0" encoding="iso-8859-1"?>
<!-- Generator: Adobe Illustrator 19.2.1, SVG Export Plug-In . SVG Version: 6.00 Build 0)  -->
<svg version="1.1" xmlns="http://www.w3.org/2000/svg" xmlns:xlink="http://www.w3.org/1999/xlink" x="0px" y="0px"
	 viewBox="0 0 24 24" style="enable-background:new 0 0 24 24;" xml:space="preserve">
<g id="product-virtual">
	<path d="M22,3H2v6h1v11c0,1.105,0.895,2,2,2h14c1.105,0,2-0.895,2-2V9h1V3z M4,5h16v2H4V5z M19,20H5V9h14V20z M7,16.45
		c0-1.005,0.815-1.82,1.82-1.82h0.09c-0.335-1.589,0.681-3.148,2.27-3.483s3.148,0.681,3.483,2.27
		c0.02,0.097,0.036,0.195,0.046,0.293l0,0c1.253-0.025,2.29,0.971,2.315,2.224c0.017,0.868-0.462,1.67-1.235,2.066H7.87
		C7.329,17.671,6.999,17.083,7,16.45z"/>
</g>
<g id="Layer_1">
</g>
</svg>
