<svg xmlns="http://www.w3.org/2000/svg" viewBox="0 0 24 24"><g id="gridicons-shutter"><path class="st0" d="M12.9,7.6c-1.1-1.3-2.7-3-5-4.7C5.1,4.2,3,6.6,2.3,9.6C7.1,7.7,11,7.5,12.9,7.6z"/><path class="st0" d="M2.1,11c0,0-0.7,4.6,3,8.2c0,0,0.7-5.8,3.5-10.2C7,9.3,4.7,9.9,2.1,11z"/><path class="st0" d="M16.3,10.5c0.6-1.6,1.2-3.8,1.5-6.7c-4.3-3.1-8.6-1.5-8.6-1.5S13.7,5.7,16.3,10.5z"/><path class="st0" d="M18.9,4.8c0,0-0.7,5.6-3.5,10.2c1.7-0.3,4-0.9,6.6-2C22,13,22.7,8.5,18.9,4.8z"/><path class="st0" d="M7.7,13.5c-1.3,3.4-1.5,6.6-1.5,6.6c4.4,3.1,8.6,1.5,8.6,1.5C9.2,17,7.7,13.5,7.7,13.5z"/><path class="st0" d="M11,16.4c1.8,2.3,5,4.7,5,4.7c2.8-1.2,4.9-3.7,5.7-6.8C16.4,16.7,11,16.4,11,16.4z"/></g></svg>
