<?xml version="1.0" encoding="utf-8"?>
<!-- Generator: Adobe Illustrator 19.2.1, SVG Export Plug-In . SVG Version: 6.00 Build 0)  -->
<svg version="1.1" id="Layer_1" xmlns="http://www.w3.org/2000/svg" xmlns:xlink="http://www.w3.org/1999/xlink" x="0px" y="0px"
	 viewBox="0 0 24 24" style="enable-background:new 0 0 24 24;" xml:space="preserve">
<style type="text/css">
	.st0{fill:#010101;}
</style>
<path class="st0" d="M18.9,4.8c0,0-0.7,5.6-3.5,10.2c1.7-0.3,3.9-0.9,6.6-2C22,13,22.7,8.4,18.9,4.8z"/>
<path class="st0" d="M12.9,7.6c-1.1-1.3-2.7-3-5-4.7C5.1,4.2,3,6.6,2.3,9.6C7,7.7,11,7.5,12.9,7.6z"/>
<path class="st0" d="M9.2,2.4c0,0,4.5,3.3,7.1,8.1c0.6-1.6,1.2-3.9,1.6-6.7C13.7,0.9,9.2,2.4,9.2,2.4"/>
<path class="st0" d="M11.1,16.5c1.1,1.3,2.7,3,5,4.7c0,0,4.3-1.6,5.6-6.7C21.7,14.4,16.4,16.6,11.1,16.5z"/>
<path class="st0" d="M7.7,13.4c-0.6,1.6-1.2,3.8-1.5,6.7c0,0,3.6,2.9,8.6,1.5C14.8,21.6,10.2,18.2,7.7,13.4z"/>
<path class="st0" d="M2,11.1c0,0-0.7,4.5,3.1,8.2c0,0,0.7-5.7,3.5-10.3C6.9,9.3,4.6,9.9,2,11.1z"/>
</svg>
