<svg viewBox="0 0 24 24" xmlns="http://www.w3.org/2000/svg"><symbol viewBox="0 0 24 24" id="gridicons-reader"><g><path d="M3 4v14c0 1.1.9 2 2 2h14c1.1 0 2-.9 2-2V4H3zm7 11H5v-1h5v1zm2-2H5v-1h7v1zm0-2H5v-1h7v1zm7 4h-5v-5h5v5zm0-7H5V6h14v2z"/></g></symbol><symbol viewBox="0 0 24 24" id="gridicons-reader-comment"><g><path d="m12.5278 14.5556v-.75h-.75-8.00002c-.56801 0-1.02778-.4598-1.02778-1.0278v-8.00002c0-.56801.45977-1.02778 1.02778-1.02778h12.44442c.568 0 1.0278.45977 1.0278 1.02778v7.94842c0 .9051-.4384 1.7561-1.1748 2.2822l-3.5474 2.5341z" fill="none" stroke="#000" stroke-width="1.5" /></g></symbol><symbol viewBox="0 0 24 24" id="gridicons-reader-external"><g><path clip-rule="evenodd" d="m11.3764 2.01611h.75 5.1075.75v.75 5.10749.75h-1.5v-.75-3.2968l-5.8701 5.8701-.5303.5303-1.0607-1.06062.53032-.53033 5.87008-5.87014h-3.2968-.75zm-6.3764 3.48389h4v-1.5h-4c-1.10457 0-2 .89543-2 2v9c0 1.1046.89543 2 2 2h9c1.1046 0 2-.8954 2-2v-4h-1.5v4c0 .2761-.2239.5-.5.5h-9c-.27614 0-.5-.2239-.5-.5v-9c0-.27614.22386-.5.5-.5z" fill="#000" fill-rule="evenodd"/></g></symbol><symbol viewBox="0 0 24 24" id="gridicons-reader-follow"><g><path clip-rule="evenodd" d="m4 4.5h12v6.5h1.5v-6.5-1.5h-1.5-12-1.5v1.5 10.5c0 1.1046.89543 2 2 2h7v-1.5h-7c-.27614 0-.5-.2239-.5-.5zm10.5 2h-9v1.5h9zm-5 3h-4v1.5h4zm3.5 1.5h-1v1h1zm-1-1.5h-1.5v1.5 1 1.5h1.5 1 1.5v-1.5-1-1.5h-1.5zm-2.5 2.5h-4v1.5h4zm6.5 1.25h1.5v2.25h2.25v1.5h-2.25v2.25h-1.5v-2.25h-2.25v-1.5h2.25z" fill="#000" fill-rule="evenodd"/></g></symbol><symbol viewBox="0 0 24 24" id="gridicons-reader-follow-conversation"><g><path d="M20 14v-3h-2v3h-3v2h3v3h2v-3h3v-2z"/><path d="M13 16h-2l-5 5v-5H4c-1.1 0-2-.9-2-2V5c0-1.1.9-2 2-2h14c1.1 0 2 .9 2 2v4h-4v3h-3v4z"/></g></symbol><symbol viewBox="0 0 24 24" id="gridicons-reader-following"><mask id="mask0_372_400" style="mask-type:alpha" maskUnits="userSpaceOnUse" x="3" y="3" width="21" height="19"><path fill-rule="evenodd" clip-rule="evenodd" d="M21 11.889L16.545 16.344L14.451 14.168L9.538 19H5C3.9 19 3 18.1 3 17V3H21V11.889ZM16.508 22L24 14.482L22.612 13.106L16.518 19.2L14.412 17.012L13 18.4L16.508 22ZM9 14H5V13H9V14ZM5 12H12V11H5V12ZM12 10H5V9H12V10ZM5 7H19V5H5V7Z" fill="white"/></mask><g mask="url(#mask0_372_400)"><rect x="1" y="-1" width="24" height="24" fill="#000" /></g></symbol><symbol viewBox="0 0 24 24" id="gridicons-reader-following-conversation"><g><path d="M16.8 14.5l3.2-3.2V5c0-1.1-.9-2-2-2H4c-1.1 0-2 .9-2 2v9c0 1.1.9 2 2 2h2v5l8.7-8.7 2.1 2.2z"/><path d="M22.6 11.1l-6.1 6.1-2.1-2.2-1.4 1.4 3.5 3.6 7.5-7.6z"/></g></symbol><symbol viewBox="0 0 24 24" id="gridicons-reader-following-share"><clipPath id="a"><path d="m0 0h20v20h-20z" /></clipPath><g clip-path="url(#a)"><path d="m11.8666 6.79996v-3.79996l6.8 6.64993-6.8 6.64997v-3.8s-10.19997-.8844-10.19997 4.5001c0-10.77003 10.19997-10.20004 10.19997-10.20004z" stroke="#000" stroke-linecap="round" stroke-width="1.5" /></g></symbol><symbol viewBox="0 0 24 24" id="gridicons-reader-following-star"><g><path d="m10.0001 2.5 2.4463 5.33517h5.4704l-4.5834 4.23893 1.5592 5.4259-4.8925-2.8125-4.8925 2.8125 1.55917-5.4259-4.58333-4.23893h2.7352 2.73521z" stroke="#000" stroke-linecap="round" stroke-width="1.5" /></g></symbol><symbol viewBox="0 0 24 24" id="gridicons-reader-following-star-outline"><g><path d="M12.0002 3L14.9357 9.40221H21.5002L16.0002 14.489L17.8712 21L12.0002 17.625L6.12924 21L8.00024 14.489L2.50024 9.40221H5.78249H9.06474L12.0002 3Z" stroke="#000" stroke-width="1.5" stroke-linecap="round" /></g></symbol></svg>
