<svg xmlns="http://www.w3.org/2000/svg" viewBox="0 0 24 24"><rect x="0" fill="none" width="24" height="24"/><g><path d="M9 7h2v10H9v-4H5v4H3V7h2v4h4V7zm8 8c.51-.41.6-.62 1.06-1.05.437-.4.848-.828 1.23-1.28a6.4 6.4 0 00.85-1.28c.199-.39.305-.822.31-1.26a3.007 3.007 0 00-.27-1.28 2.902 2.902 0 00-.76-1 3.485 3.485 0 00-1.17-.63 4.766 4.766 0 00-1.5-.22c-.359 0-.717.033-1.07.1a4.895 4.895 0 00-1 .29 4.431 4.431 0 00-.86.49c-.287.21-.561.437-.82.68l1.24 1.22a5.829 5.829 0 011-.7c.35-.201.747-.304 1.15-.3a1.91 1.91 0 011.27.38c.311.278.477.684.45 1.1a2.127 2.127 0 01-.36 1.11 7.126 7.126 0 01-1 1.25c-.44.43-.98.92-1.59 1.43-.61.51-1.41 1.06-2.16 1.65V17h8v-2h-4z"/></g></svg>