<svg xmlns="http://www.w3.org/2000/svg" viewBox="0 0 24 24"><rect x="0" fill="none" width="24" height="24"/><g><path d="M11 17H9v-4H5v4H3V7h2v4h4V7h2v10zm8.579-7.508a3.157 3.157 0 00-.82-.49 2.683 2.683 0 00-1.94 0 1.991 1.991 0 00-.78.52c-.244.27-.431.586-.55.93a4.643 4.643 0 00-.25 1.43 4.168 4.168 0 011.25-.77c.406-.171.84-.262 1.28-.27.416-.006.83.048 1.23.16.365.118.705.304 1 .55.296.253.529.571.68.93.194.403.303.843.32 1.29.01.468-.093.931-.3 1.35a3.192 3.192 0 01-.83 1 3.63 3.63 0 01-1.2.64 4.71 4.71 0 01-3-.05 3.71 3.71 0 01-1.35-.85 4.193 4.193 0 01-1-1.48 5.809 5.809 0 01-.32-2.16 6.496 6.496 0 01.38-2.34 4.58 4.58 0 011-1.62c.407-.416.898-.74 1.44-.95a4.637 4.637 0 011.7-.31 5.192 5.192 0 012 .34c.5.19.963.464 1.37.81l-1.31 1.34zm-2.39 5.84c.203.001.406-.03.6-.09.184-.046.357-.128.51-.24.151-.136.271-.303.35-.49.093-.225.137-.467.13-.71a1.259 1.259 0 00-.43-1.07 1.806 1.806 0 00-1.12-.33 2.406 2.406 0 00-1 .21 2.913 2.913 0 00-1 .73c.047.346.144.683.29 1 .109.231.258.441.44.62.153.149.338.261.54.33.226.055.46.068.69.04z"/></g></svg>