<svg xmlns="http://www.w3.org/2000/svg" viewBox="0 0 24 24"><rect x="0" fill="none" width="24" height="24"/><g><path d="M17.4 8.7c.3-.5 1-2.8 1.3-4.1C16.9 3 14.6 2 12 2c-1.4 0-2.8.3-4 .8l8.2 6s.7.7 1.2-.1zM10.5 6c-.4-.5-2.5-1.9-3.6-2.6C4 5.1 2 8.3 2 12c0 .4 0 .7.1 1.1l8.2-5.9s.8-.5.2-1.2zm-4.7 5.7c-.5.2-2.5 1.7-3.6 2.5C3 18 6 20.9 9.7 21.8l-2.9-9.5c0-.1-.2-1-1-.6zm4 6.2c.1.6.8 2.7 1.3 4.1h.9c3.6 0 6.8-2 8.6-4.9h-9.9s-1-.1-.9.8zm9.7-12.5l-3.1 9.5s-.4.9.5 1.1c.6.1 2.8.1 4.2 0 .5-1.2.8-2.6.8-4 .1-2.5-.8-4.8-2.4-6.6z"/></g></svg>