<svg xmlns="http://www.w3.org/2000/svg" viewBox="0 0 24 24"><rect x="0" fill="none" width="24" height="24"/><g><path d="M3 19h13v-2H3v2zm0-6h13v-2H3v2zm0-8v2h13V5H3zm16.587.252c.107-.096.197-.188.269-.275-.012.228-.018.48-.018.756V8h1.175V3.717h-1.042L18.5 4.915l.601.738.486-.401zm.448 7.826c.475-.426.785-.715.93-.867.146-.152.262-.297.35-.435.088-.138.153-.278.195-.42.042-.143.063-.298.063-.466 0-.225-.06-.427-.18-.608a1.153 1.153 0 00-.507-.417 1.775 1.775 0 00-.742-.148 2.42 2.42 0 00-.596.067c-.177.045-.34.11-.491.195-.15.085-.336.226-.557.423l.636.744c.174-.15.33-.264.467-.341a.835.835 0 01.409-.116.44.44 0 01.305.097.335.335 0 01.108.264c0 .09-.018.176-.054.258-.036.082-.1.18-.192.294-.092.114-.287.328-.586.64L18.547 13.3v.762h3.108v-.955h-1.62v-.029zm.459 4.747v-.018c.307-.086.541-.225.703-.414.162-.191.243-.419.243-.685a.839.839 0 00-.378-.727c-.252-.176-.6-.264-1.043-.264-.307 0-.579.033-.816.1a2.363 2.363 0 00-.696.334l.48.773c.293-.184.576-.275.85-.275.147 0 .263.027.35.082.087.055.13.139.13.252 0 .301-.294.451-.882.451h-.27v.87h.264c.217 0 .393.016.527.049.135.031.232.08.293.143.061.064.091.154.091.271 0 .152-.058.264-.174.336-.116.07-.301.106-.555.106a2.3 2.3 0 01-.538-.069 2.502 2.502 0 01-.573-.212v.961c.228.088.441.148.637.182.196.033.41.05.64.05.561 0 .998-.114 1.314-.343.315-.228.473-.542.473-.94.003-.585-.355-.923-1.07-1.013z"/></g></svg>