<svg xmlns="http://www.w3.org/2000/svg" viewBox="0 0 24 24"><rect x="0" fill="none" width="24" height="24"/><g><path d="M11.5 5a4.514 4.514 0 014.481 4.154l.141 1.861 1.867-.013.093-.001A3.003 3.003 0 0121 14c0 .748-.28 1.452-.783 2H3.279A1.906 1.906 0 013 15c0-1.074.851-1.953 1.915-1.998.059.007.118.012.178.015l2.659.124-.621-2.588A4.468 4.468 0 017 9.5C7 7.019 9.019 5 11.5 5m0-2A6.5 6.5 0 005 9.5a6.5 6.5 0 00.186 1.519C5.123 11.016 5.064 11 5 11a4 4 0 00-4 4c0 1.202.541 2.267 1.38 3h18.593C22.196 17.089 23 15.643 23 14a5 5 0 00-5-5l-.025.002A6.496 6.496 0 0011.5 3z"/></g></svg>