<svg xmlns="http://www.w3.org/2000/svg" viewBox="0 0 24 24"><path d="M11 13.9l.8-2.3L10.4 8c-.4 0-.9-.1-.9-.1-.5 0-.4-.7.1-.7 0 0 1.4.1 2.2.1.9 0 2.3-.1 2.3-.1.5 0 .5.6.1.7 0 0-.5.1-1 .1l2 6c-.9 0-1.7-.1-2.6-.1l-.4-1.2-.4 1.2H11zm-7.2.4c-.2-.7-.3-1.5-.3-2.3 0-1.2.3-2.4.7-3.5l2 5.6c.9 0 1.8-.1 2.6-.1l-2-6c.5 0 1-.1 1-.1.5-.1.4-.7-.1-.7 0 0-1.4.1-2.3.1h-.5C6.4 5 9 3.5 12 3.5c2.2 0 4.2.8 5.7 2.2h-.1c-.8 0-1.4.7-1.4 1.5 0 .7.4 1.3.8 2 .3.6.7 1.3.7 2.3 0 .7-.2 1.5-.6 2.5.3 0 .6 0 .9.1l.8-2.3c.5-1.2.6-2.2.6-3 0-.3 0-.6-.1-.9.7 1.2 1 2.6 1 4.1 0 .8-.1 1.6-.3 2.3.5 0 1 .1 1.5.2.2-.8.3-1.6.3-2.5 0-5.5-4.5-10-10-10S2 6.5 2 12c0 .9.1 1.7.3 2.5.5-.1 1-.1 1.5-.2zm14.7 3.2c-1.8 2.2-4.3 3-6.5 3-1.9 0-4.6-.7-6.5-3-.6 0-1.2.1-1.8.2C5.6 20.3 8.6 22 12 22c3.4 0 6.4-1.7 8.2-4.4-.6 0-1.1-.1-1.7-.1zM12 15c-3.7 0-7.4.3-11 .7.2.4.4.8.5 1.2 3.5-.3 7-.6 10.5-.6s7 .2 10.5.7c.2-.4.3-.8.5-1.2-3.6-.5-7.3-.8-11-.8z"/></svg>