<svg xmlns="http://www.w3.org/2000/svg" viewBox="0 0 24 24" enable-background="new 0 0 24 24"><path fill="#333" d="M17.988 17H6.01c-2.477 0-4.492-2.016-4.492-4.493 0-1.953 1.29-3.666 3.102-4.258.347-1.3 1.51-2.233 2.888-2.233.73 0 1.394.237 1.914.64.817-.985 2.13-1.638 3.576-1.638 1.964 0 3.447 1.13 4.128 3.08.283-.058.572-.087.862-.087 2.48 0 4.494 2.016 4.494 4.494 0 2.477-2.015 4.493-4.494 4.493zM7.508 8.017c-.55 0-.996.447-.996.996l-.855 1.04c-1.22.175-2.14 1.23-2.14 2.454C3.518 13.882 4.638 15 6.01 15h11.98c1.374 0 2.493-1.118 2.493-2.493 0-1.532-1.427-2.77-2.967-2.444.024.297.035.602.035.917h-2c-.005-.13-.077-1.097-.11-1.45-.275-1.644-1.1-2.51-2.44-2.51-1.28 0-2.446.93-2.446 1.95h-2c0-.626-.527-.953-1.046-.953z"/></svg>