<svg xmlns="http://www.w3.org/2000/svg" viewBox="0 0 24 24" enable-background="new 0 0 24 24"><g><path d="M5.555 16.383c0 1.105.895 2 2 2 .552 0 1.052-.224 1.414-.586L6.14 14.97c-.362.36-.585.86-.585 1.413z"/><path d="M14.85 19.193c-.108-.754.122-1.69.51-2.077l3.885-3.885c2.34-2.34 2.34-6.134 0-8.474s-6.135-2.34-8.475 0L6.885 8.64c-.388.388-1.323.618-2.077.51l-1.102-.157L3 9.7 14.3 21l.707-.706-.157-1.1z"/><path d="M6.172 15c-.78.78-.78 2.047 0 2.828.78.78 2.047.78 2.828 0L6.172 15z"/></g></svg>