<svg xmlns="http://www.w3.org/2000/svg" viewBox="0 0 24 24"><rect x="0" fill="none" width="24" height="24"/><g><path d="M3 19h13v-2H3v2zm0-6h13v-2H3v2zm0-8v2h13V5H3zm16.587.252c.107-.096.197-.188.27-.275-.013.228-.02.48-.02.756V8h1.176V3.717H19.97L18.5 4.915l.6.738.487-.4zm.448 7.826c.475-.426.785-.715.93-.867.146-.15.262-.296.35-.434.088-.138.153-.278.195-.42.042-.143.063-.298.063-.466 0-.225-.06-.427-.18-.608-.12-.18-.29-.32-.507-.417-.218-.1-.465-.148-.742-.148-.22 0-.42.022-.596.067-.177.045-.34.11-.49.195-.15.084-.337.225-.558.422l.636.744c.174-.15.33-.264.467-.34.138-.078.274-.117.41-.117.13 0 .232.03.304.096.072.064.108.152.108.264 0 .09-.018.176-.054.258-.035.082-.1.18-.19.294-.093.114-.288.328-.587.64L18.547 13.3v.762h3.108v-.955h-1.62v-.03zm.46 4.747v-.018c.306-.086.54-.225.702-.414.162-.19.243-.42.243-.685 0-.31-.126-.55-.378-.727-.252-.175-.6-.263-1.043-.263-.308 0-.58.033-.817.1s-.47.178-.696.334l.48.774c.293-.184.576-.275.85-.275.147 0 .263.026.35.08.087.056.13.14.13.253 0 .3-.294.45-.882.45h-.27v.87h.264c.216 0 .392.017.526.05.135.03.232.08.293.143.06.064.09.154.09.27 0 .153-.058.265-.174.337-.116.07-.3.106-.555.106-.163 0-.342-.023-.537-.07-.194-.045-.385-.116-.573-.212v.96c.228.09.44.15.637.183.196.034.41.05.64.05.56 0 .998-.113 1.314-.342.316-.228.474-.542.474-.94.003-.585-.355-.923-1.07-1.013z"/></g></svg>