<svg xmlns="http://www.w3.org/2000/svg" viewBox="0 0 24 24"><rect x="0" fill="none" width="24" height="24"/><g><path d="M12.005 7.418c-1.237 0-2.191.376-2.861 1.128S8.14 10.358 8.14 11.725c0 1.388.226 2.514.677 3.378.451.865 1.135 1.543 2.051 2.036V20H5v-2.666h3.119a6.427 6.427 0 01-2.404-2.6c-.564-1.097-.846-2.322-.846-3.676 0-1.258.292-2.363.876-3.317.585-.953 1.417-1.686 2.497-2.199s2.334-.769 3.763-.769c2.181 0 3.915.571 5.204 1.712s1.933 2.673 1.933 4.594c0 1.354-.283 2.57-.852 3.65a6.655 6.655 0 01-2.44 2.604H19V20h-5.908v-2.861c.95-.492 1.651-1.179 2.102-2.061s.677-2.006.677-3.374c0-1.36-.337-2.415-1.01-3.164-.673-.747-1.625-1.122-2.856-1.122z"/></g></svg>