<svg xmlns="http://www.w3.org/2000/svg" viewBox="0 0 24 24" enable-background="new 0 0 24 24"><g><path d="M5.148 15.852L6.6 14.4C5.317 13.62 4.3 12.706 3.62 12c1.04-1.085 2.863-2.657 5.255-3.47C8.335 9.214 8 10.064 8 11c0 .586.133 1.14.36 1.64l6.318-6.318C13.838 6.122 12.948 6 12 6 5.187 6 1 12 1 12s1.497 2.13 4.148 3.852zM18.853 8.147L22 5l-1.5-1.5-17 17L5 22l4.323-4.323c.84.2 1.73.323 2.677.323 6.812 0 11-6 11-6s-1.5-2.13-4.147-3.853zM12 16c-.323 0-.637-.022-.946-.053L12 15c2.21 0 4-1.79 4-4l1.4-1.4c1.29.78 2.306 1.698 2.984 2.406C18.942 13.522 15.978 16 12 16z"/></g></svg>