<svg xmlns="http://www.w3.org/2000/svg" viewBox="0 0 24 24"><path d="M12 2C6.5 2 2 6.5 2 12c0 .9.1 1.8.4 2.7h.2c.4 0 .9-.1 1.3-.1-.3-.8-.4-1.7-.4-2.5 0-1.2.3-2.4.7-3.5l2.1 5.8c.8-.1 1.7-.1 2.5-.1L6.8 8c.5 0 1-.1 1-.1.5-.1.4-.7-.1-.7 0 0-1.4.1-2.3.1h-.5C6.4 5 9 3.5 12 3.5c2.2 0 4.2.8 5.7 2.2h-.1c-.8 0-1.4.7-1.4 1.5 0 .7.4 1.3.8 2 .3.6.7 1.3.7 2.3 0 .7-.3 1.6-.6 2.7.3 0 .6 0 .9.1l.9-2.5c.5-1.2.6-2.2.6-3 0-.3 0-.6-.1-.9.7 1.2 1 2.6 1 4.1 0 .9-.1 1.7-.4 2.5.4 0 .9.1 1.3.1h.2c.2-.9.4-1.8.4-2.7C22 6.5 17.5 2 12 2zm2.1 5.2s-1.4.1-2.3.1c-.8 0-2.2-.1-2.2-.1-.5 0-.5.7-.1.7 0 0 .4.1.9.1l1.3 3.6-.8 2.5h.8l.5-1.4.5 1.4c.9 0 1.7 0 2.6.1L13.2 8c.5 0 1-.1 1-.1.4 0 .3-.7-.1-.7zM2.7 15.7c.1.3.3.6.4.9 3-.3 5.9-.5 8.9-.5s5.9.2 8.8.5c.2-.3.3-.6.4-.9-3.1-.3-6.1-.5-9.3-.5-3-.1-6.1.1-9.2.5zm9.3 4.8c-2.7 0-5-1.2-6.6-3.1-.6 0-1.2.1-1.7.2C5.5 20.2 8.5 22 12 22c3.5 0 6.6-1.8 8.3-4.5-.6-.1-1.2-.1-1.7-.2-1.6 2-3.9 3.2-6.6 3.2z"/></svg>