<svg width="24" height="24" viewBox="0 0 24 24" xmlns="http://www.w3.org/2000/svg"><rect x="0" fill="none" width="24" height="24"/><g><path fill-rule="evenodd" clip-rule="evenodd" d="M3.211 19.7c.375.867 1.01 1.3 1.909 1.3h13.76c.898 0 1.535-.433 1.909-1.3.374-.867.251-1.656-.37-2.367L15.465 11V5h1.668a.917.917 0 00.69-.283.992.992 0 00.273-.717.992.992 0 00-.273-.717.917.917 0 00-.69-.283H6.867a.916.916 0 00-.69.283.992.992 0 00-.272.717c0 .289.091.528.273.717a.916.916 0 00.69.283h1.668v6L3.58 17.333c-.62.711-.743 1.5-.369 2.367zm4.457-4.423h8.664l-2.792-3.544V5h-3.08v6.733l-2.792 3.544z"/></g></svg>