<svg xmlns="http://www.w3.org/2000/svg" viewBox="0 0 24 24"><rect x="0" fill="none" width="24" height="24"/><g><path d="M14.09 14.19c.352.269.73.5 1.13.69a3.07 3.07 0 001.34.29 2.54 2.54 0 001.44-.4 1.29 1.29 0 00.57-1.14A1.3 1.3 0 0018 12.5a2.292 2.292 0 00-1.38-.39h-.47a2.197 2.197 0 00-.4.08l-.41.15-.48.23-1.02-.57.28-5h6.4v1.92h-4.31L16 10.76a4.57 4.57 0 01.68-.18c.235-.037.472-.054.71-.05.463-.004.924.057 1.37.18.411.115.798.305 1.14.56.33.248.597.57.78.94.212.422.322.888.32 1.36.007.497-.11.989-.34 1.43a3.336 3.336 0 01-.91 1.07c-.393.3-.837.527-1.31.67a5.165 5.165 0 01-1.54.26 5.993 5.993 0 01-2.31-.39 5.427 5.427 0 01-1.59-1l1.09-1.42zM11 17H9v-4H5v4H3V7h2v4h4V7h2v10z"/></g></svg>