<svg xmlns="http://www.w3.org/2000/svg" viewBox="0 0 24 24" enable-background="new 0 0 24 24"><g><path fill="#58595B" d="M12 4c-4.42 0-8 3.583-8 8 0 4.418 3.58 8 8 8 4.418 0 8-3.582 8-8 0-4.417-3.582-8-8-8zm1 13h-2v-2h2v2zm2.32-6.374c-.263.408-.675.792-1.247 1.155-.48.313-.78.543-.906.69-.123.143-.18.314-.18.51V13h-2.123v-.26c0-.448.093-.83.276-1.142.185-.31.512-.61.98-.906.374-.234.64-.446.806-.634.162-.188.245-.405.245-.647 0-.192-.085-.347-.265-.458-.175-.113-.4-.17-.68-.17-.695 0-1.508.246-2.438.738l-.955-1.874c1.145-.653 2.34-.98 3.587-.98 1.022 0 1.833.225 2.416.675.583.452.872 1.066.872 1.843 0 .556-.13 1.04-.388 1.443z"/></g></svg>