<svg xmlns="http://www.w3.org/2000/svg" viewBox="0 0 24 24" enable-background="new 0 0 24 24"><g fill="#58595B"><path d="M17.988 8.013c-.29 0-.576.03-.86.088-.683-1.95-2.165-3.08-4.13-3.08-1.447 0-2.76.65-3.576 1.637-.52-.402-1.184-.64-1.914-.64-1.39 0-2.562.95-2.898 2.236-1.81.596-3.092 2.306-3.092 4.254C1.518 14.984 3.533 17 6.01 17H10v-4h4v4h3.988c2.48 0 4.494-2.016 4.494-4.493 0-2.48-2.015-4.494-4.494-4.494zM13 19.586V14h-2v5.586l-1.293-1.293-1.414 1.414L12 23.414l3.707-3.707-1.414-1.414z"/></g></svg>