<svg xmlns="http://www.w3.org/2000/svg" viewBox="0 0 24 24"><rect x="0" fill="none" width="24" height="24"/><g><path d="M10.986 13.928l.762-2.284-1.324-3.629a15.694 15.694 0 01-.892-.081c-.458-.027-.405-.727.054-.701 0 0 1.403.108 2.239.108.889 0 2.266-.108 2.266-.108.458-.027.512.646.054.701 0 0-.461.054-.973.081l2.006 5.966a81.578 81.578 0 00-2.599-.061l-.429-1.177-.403 1.171c-.252.001-.508.01-.761.014zm-7.156.393A8.463 8.463 0 013.5 12c0-1.232.264-2.402.736-3.459l2.036 5.578c.849-.059 1.69-.103 2.526-.137L6.792 8.015c.512-.027.973-.081.973-.081.458-.054.404-.727-.055-.701 0 0-1.376.108-2.265.108-.16 0-.347-.004-.547-.01A8.491 8.491 0 0112 3.5c2.213 0 4.228.846 5.74 2.232-.036-.002-.072-.007-.11-.007-.835 0-1.427.727-1.427 1.509 0 .701.404 1.293.835 1.994.323.566.701 1.293.701 2.344 0 .674-.245 1.463-.573 2.51.301.019.604.043.907.066l.798-2.307c.485-1.213.646-2.182.646-3.044 0-.313-.021-.603-.057-.874A8.469 8.469 0 0120.5 12c0 .807-.128 1.581-.339 2.32.5.049 1.005.112 1.508.169A9.916 9.916 0 0022 12c0-5.523-4.477-10-10-10S2 6.477 2 12c0 .862.125 1.692.331 2.49.5-.057 1.002-.12 1.499-.169zm14.638 3.167c-1.792 2.184-4.35 3.013-6.468 3.013-1.876 0-4.551-.698-6.463-3.013-.585.048-1.174.1-1.769.161C5.571 20.271 8.578 22 12 22c3.422 0 6.429-1.729 8.232-4.351a79.692 79.692 0 00-1.764-.161zM12 15.01c-3.715 0-7.368.266-10.958.733.179.41.35.825.506 1.247 3.427-.431 6.91-.679 10.452-.679s7.025.248 10.452.679c.156-.422.327-.836.506-1.246A84.852 84.852 0 0012 15.01z"/></g></svg>