<svg xmlns="http://www.w3.org/2000/svg" viewBox="0 0 24 24"><rect x="0" fill="none" width="24" height="24"/><g><path d="M24 14.6c0 .6-1.2 1-2.6 1.2-.9-1.7-2.7-3-4.8-3.9.2-.3.4-.5.6-.8h.8c3.1-.1 6 1.8 6 3.5zM6.8 11H6c-3.1 0-6 1.9-6 3.6 0 .6 1.2 1 2.6 1.2.9-1.7 2.7-3 4.8-3.9l-.6-.9zm5.2 1c2.2 0 4-1.8 4-4s-1.8-4-4-4-4 1.8-4 4 1.8 4 4 4zm0 1c-4.1 0-8 2.6-8 5 0 2 8 2 8 2s8 0 8-2c0-2.4-3.9-5-8-5zm5.7-3h.3c1.7 0 3-1.3 3-3s-1.3-3-3-3c-.5 0-.9.1-1.3.3.8 1 1.3 2.3 1.3 3.7 0 .7-.1 1.4-.3 2zM6 10h.3C6.1 9.4 6 8.7 6 8c0-1.4.5-2.7 1.3-3.7C6.9 4.1 6.5 4 6 4 4.3 4 3 5.3 3 7s1.3 3 3 3z"/></g></svg>