<svg xmlns="http://www.w3.org/2000/svg" viewBox="0 0 24 24" enable-background="new 0 0 24 24"><g><path fill="#58595B" d="M12 2C6.477 2 2 6.477 2 12s4.477 10 10 10 10-4.477 10-10S17.523 2 12 2zm1 16h-2v-2h2v2zm2.67-7.567c-.266.427-.774.908-1.522 1.443-.513.38-.837.668-.974.866-.136.198-.205.457-.205.778V14h-2.125v-.594c0-.513.11-.96.328-1.338.22-.38.62-.783 1.203-1.21.56-.402.93-.727 1.11-.98.18-.25.27-.53.27-.84 0-.347-.13-.612-.386-.794-.256-.18-.615-.272-1.075-.272-.802 0-1.714.26-2.74.785l-.873-1.755C9.872 6.335 11.137 6 12.472 6c1.1 0 1.976.265 2.625.794.65.53.974 1.234.974 2.116 0 .587-.132 1.096-.4 1.523z"/></g></svg>