<svg xmlns="http://www.w3.org/2000/svg" viewBox="0 0 24 24" enable-background="new 0 0 24 24"><g><path fill="#58595B" d="M5.294 14.464C4.514 13.922 4 13.022 4 12c0-1.657 1.343-3 3-3h2c.553 0 1-.447 1-1 0-.553-.447-1-1-1H7c-2.76 0-5 2.24-5 5 0 1.574.742 2.96 1.88 3.878l1.414-1.414zm12.946-7.29l2.245-2.245-1.414-1.415L3.516 19.07l1.414 1.415L8.413 17H9c.553 0 1-.447 1-1 0-.17-.052-.32-.126-.46l2.54-2.54H17c.553 0 1-.447 1-1s-.447-1-1-1h-2.586l2-2H17c1.657 0 3 1.343 3 3s-1.343 3-3 3h-2c-.553 0-1 .447-1 1s.447 1 1 1h2c2.76 0 5-2.24 5-5 0-2.33-1.602-4.272-3.76-4.826zM6 12c0 .48.346.863.798.96L8.758 11H7c-.553 0-1 .447-1 1z"/></g></svg>