<svg xmlns="http://www.w3.org/2000/svg" viewBox="0 0 24 24" enable-background="new 0 0 24 24"><g><path fill="#58595B" d="M17.375 13.376c-.418-.574-1.092-.984-2.022-1.23v-.103c.705-.17 1.272-.554 1.703-1.15.43-.594.646-1.31.646-2.152 0-1.277-.494-2.22-1.482-2.824-.988-.604-2.5-.907-4.538-.907H6V20h6.288c1.764 0 3.155-.392 4.18-1.174C17.487 18.043 18 16.972 18 15.61c0-.915-.21-1.66-.625-2.234zM10 8h1.627c1.42 0 2.13.47 2.13 1.41 0 .526-.178.923-.533 1.19-.355.267-.857.4-1.505.4H10V8zm2.192 9H10v-3h2.114c.613 0 1.08.127 1.402.38.322.255.484.62.484 1.095C14 16.492 13.397 17 12.192 17z"/></g></svg>