<?xml version="1.0" encoding="iso-8859-1"?>
<!-- Generator: Adobe Illustrator 21.1.0, SVG Export Plug-In . SVG Version: 6.00 Build 0)  -->
<svg version="1.1" xmlns="http://www.w3.org/2000/svg" xmlns:xlink="http://www.w3.org/1999/xlink" x="0px" y="0px"
	 viewBox="0 0 24 24" style="enable-background:new 0 0 24 24;" xml:space="preserve">
<g id="create">
	<path d="M24,10v11.333C24,22.806,22.806,24,21.333,24H2.667C1.194,24,0,22.806,0,21.333V2.667C0,1.194,1.194,0,2.667,0H14l-3,3H3
		v18h18v-8L24,10z M6,18h4l9.333-9.333l-4-4L6,14V18z M18.586,1.414l-1.919,1.919l4,4l1.919-1.919c0.781-0.781,0.781-2.047,0-2.828
		l-1.172-1.172C20.633,0.633,19.367,0.633,18.586,1.414z"/>
</g>
<g id="Layer_1">
</g>
</svg>
