<?xml version="1.0" encoding="iso-8859-1"?>
<!-- Generator: Adobe Illustrator 21.1.0, SVG Export Plug-In . SVG Version: 6.00 Build 0)  -->
<svg version="1.1" xmlns="http://www.w3.org/2000/svg" xmlns:xlink="http://www.w3.org/1999/xlink" x="0px" y="0px"
	 viewBox="0 0 26.667 26.667" style="enable-background:new 0 0 26.667 26.667;" xml:space="preserve">
<g id="my-sites">
	<path d="M13.333,0C5.97,0,0,5.969,0,13.333c0,7.364,5.97,13.333,13.333,13.333s13.333-5.97,13.333-13.333
		C26.667,5.969,20.697,0,13.333,0z M2,13.333c0-1.643,0.353-3.203,0.981-4.612l5.406,14.812C4.607,21.697,2,17.819,2,13.333z
		 M13.333,24.668c-1.112,0-2.186-0.163-3.202-0.462l3.401-9.881l3.483,9.544c0.023,0.056,0.051,0.108,0.081,0.156
		C15.919,24.44,14.653,24.668,13.333,24.668z M14.895,8.02c0.682-0.036,1.297-0.108,1.297-0.108c0.611-0.072,0.539-0.97-0.072-0.934
		c0,0-1.836,0.144-3.021,0.144c-1.114,0-2.985-0.144-2.985-0.144c-0.611-0.036-0.683,0.898-0.072,0.934c0,0,0.578,0.072,1.189,0.108
		l1.766,4.838l-2.481,7.439L6.389,8.02c0.683-0.036,1.297-0.108,1.297-0.108c0.61-0.072,0.538-0.97-0.073-0.934
		c0,0-1.835,0.144-3.02,0.144c-0.213,0-0.463-0.005-0.73-0.014C5.89,4.032,9.374,2,13.333,2c2.951,0,5.637,1.128,7.653,2.976
		c-0.049-0.003-0.096-0.009-0.147-0.009c-1.113,0-1.903,0.97-1.903,2.011c0,0.934,0.539,1.724,1.113,2.658
		c0.431,0.755,0.934,1.724,0.934,3.126c0,0.97-0.373,2.096-0.862,3.664l-1.131,3.777L14.895,8.02z M19.031,23.13l3.462-10.009
		c0.646-1.617,0.862-2.91,0.862-4.059c0-0.417-0.028-0.804-0.076-1.165c0.885,1.614,1.388,3.467,1.388,5.437
		C24.667,17.515,22.401,21.165,19.031,23.13z"/>
</g>
<g id="Layer_1">
</g>
</svg>
