<?xml version="1.0" encoding="iso-8859-1"?>
<!-- Generator: Adobe Illustrator 21.1.0, SVG Export Plug-In . SVG Version: 6.00 Build 0)  -->
<svg version="1.1" xmlns="http://www.w3.org/2000/svg" xmlns:xlink="http://www.w3.org/1999/xlink" x="0px" y="0px"
	 viewBox="0 0 26.667 26.667" style="enable-background:new 0 0 26.667 26.667;" xml:space="preserve">
<g id="user-circle">
	<path d="M13.333,0C5.97,0,0,5.969,0,13.333c0,7.364,5.97,13.333,13.333,13.333s13.333-5.97,13.333-13.333
		C26.667,5.969,20.697,0,13.333,0z M13.333,24.667C7.074,24.667,2,19.592,2,13.333C2,7.074,7.074,2,13.333,2
		s11.333,5.074,11.333,11.333C24.667,19.592,19.592,24.667,13.333,24.667z M13.333,14C9.283,14,6,16.304,6,18.667
		s3.283,4.667,7.333,4.667s7.333-2.304,7.333-4.667S17.383,14,13.333,14z M13.333,13.333c2.209,0,4-1.791,4-4c0-2.209-1.791-4-4-4
		s-4,1.791-4,4C9.333,11.543,11.124,13.333,13.333,13.333z"/>
</g>
<g id="Layer_1">
</g>
</svg>
